<svg width="649" height="481" viewBox="0 0 649 481" fill="none" xmlns="http://www.w3.org/2000/svg">
<circle cx="385" cy="251" r="160" fill="#2E3270"/>
<circle cx="385" cy="251" r="160" fill="url(#paint0_radial)" fill-opacity="0.17"/>
<path d="M428.87 300.922C447.646 300.922 462.921 285.797 462.921 267.206C462.921 249.043 448.342 234.189 430.165 233.513C429.483 215.514 414.481 201.079 396.14 201.079C384.204 201.079 373.144 207.297 366.989 217.389M355.77 215.124C340.002 215.124 327.174 227.825 327.174 243.438C327.174 243.796 327.179 244.154 327.19 244.51C313.008 246.223 302.079 258.322 302.079 272.606C302.079 288.22 314.906 300.922 330.674 300.922H396.14" stroke="white" stroke-miterlimit="10"/>
<line x1="398" y1="297.5" x2="410" y2="297.5" stroke="#FF0000"/>
<circle cx="199" cy="109" r="10.5" stroke="white"/>
<circle cx="146" cy="288" r="6.5" stroke="white"/>
<circle cx="602" cy="187" r="10.5" stroke="white"/>
<circle cx="335" cy="388" r="10.5" stroke="white"/>
<path d="M591 188H500V321.5" stroke="url(#paint1_linear)" stroke-linecap="round" stroke-linejoin="round" stroke-dasharray="2 10"/>
<path d="M333.5 378V310" stroke="url(#paint2_linear)" stroke-linecap="round" stroke-linejoin="round" stroke-dasharray="2 10"/>
<path d="M153.5 289H244V328.5H333.5" stroke="url(#paint3_linear)" stroke-linecap="round" stroke-linejoin="round" stroke-dasharray="2 10"/>
<path d="M211 109.5H378V184.5" stroke="url(#paint4_linear)" stroke-linecap="round" stroke-linejoin="round" stroke-dasharray="2 10"/>
<line x1="0.5" y1="89" x2="0.499994" y2="231" stroke="url(#paint5_linear)" stroke-dasharray="1 10"/>
<line x1="569.5" y1="19" x2="569.5" y2="161" stroke="url(#paint6_linear)" stroke-dasharray="1 10"/>
<line x1="40.5" y1="129" x2="40.5" y2="481" stroke="url(#paint7_linear)" stroke-dasharray="1 10"/>
<line x1="648.5" y1="59" x2="648.5" y2="411" stroke="url(#paint8_linear)" stroke-dasharray="1 10"/>
<line x1="113.5" y1="2.18557e-08" x2="113.5" y2="352" stroke="url(#paint9_linear)" stroke-dasharray="1 10"/>
<path d="M428.406 154.066L457.434 183.372L486.422 212.719L487.298 213.596V214.829L487.059 256.042L486.861 297.295L486.82 298.528L485.984 299.405L456.637 328.433L427.331 357.421L426.454 358.298H425.22L383.967 358.057L342.714 357.858L341.481 357.819L340.604 356.983L311.616 327.637L282.587 298.33L281.712 297.453L281.752 296.219L281.951 254.966L282.19 213.715V212.48L283.066 211.604L312.372 182.616L341.72 153.587L342.596 152.712L343.83 152.751L385.043 152.951L426.296 153.19H427.529L428.406 154.066Z" stroke="#E9453B" stroke-width="3"/>
<line x1="313.061" y1="181.939" x2="458.061" y2="326.939" stroke="#E9453B" stroke-width="3"/>
<defs>
<radialGradient id="paint0_radial" cx="0" cy="0" r="1" gradientUnits="userSpaceOnUse" gradientTransform="translate(385 251) rotate(90) scale(160)">
<stop stop-color="#FF0000"/>
<stop offset="1" stop-color="#25274D" stop-opacity="0"/>
</radialGradient>
<linearGradient id="paint1_linear" x1="545.5" y1="188" x2="545.5" y2="321.5" gradientUnits="userSpaceOnUse">
<stop stop-color="white"/>
<stop offset="1" stop-color="#FF0000" stop-opacity="0"/>
</linearGradient>
<linearGradient id="paint2_linear" x1="334" y1="310" x2="334" y2="378" gradientUnits="userSpaceOnUse">
<stop stop-color="#FF0000"/>
<stop offset="1" stop-color="white"/>
</linearGradient>
<linearGradient id="paint3_linear" x1="243.5" y1="289" x2="333" y2="289" gradientUnits="userSpaceOnUse">
<stop stop-color="white"/>
<stop offset="1" stop-color="#FF0000" stop-opacity="0"/>
</linearGradient>
<linearGradient id="paint4_linear" x1="294" y1="110" x2="294.5" y2="184.5" gradientUnits="userSpaceOnUse">
<stop stop-color="white"/>
<stop offset="1" stop-color="#FF0000"/>
</linearGradient>
<linearGradient id="paint5_linear" x1="0" y1="231" x2="-3.8675e-08" y2="89" gradientUnits="userSpaceOnUse">
<stop stop-color="white" stop-opacity="0"/>
<stop offset="1" stop-color="white"/>
</linearGradient>
<linearGradient id="paint6_linear" x1="569" y1="161" x2="569" y2="19" gradientUnits="userSpaceOnUse">
<stop stop-color="white" stop-opacity="0"/>
<stop offset="1" stop-color="white"/>
</linearGradient>
<linearGradient id="paint7_linear" x1="40" y1="481" x2="40" y2="129" gradientUnits="userSpaceOnUse">
<stop stop-color="white" stop-opacity="0"/>
<stop offset="1" stop-color="white"/>
</linearGradient>
<linearGradient id="paint8_linear" x1="648" y1="411" x2="648" y2="59" gradientUnits="userSpaceOnUse">
<stop stop-color="white" stop-opacity="0"/>
<stop offset="1" stop-color="white"/>
</linearGradient>
<linearGradient id="paint9_linear" x1="113" y1="352" x2="113" y2="0" gradientUnits="userSpaceOnUse">
<stop stop-color="white" stop-opacity="0"/>
<stop offset="1" stop-color="white"/>
</linearGradient>
</defs>
</svg>
