<svg width="364" height="364" viewBox="0 0 364 364" fill="none" xmlns="http://www.w3.org/2000/svg">
<circle cx="182" cy="182" r="181.5" fill="" stroke="#00BD4D"/>
<g filter="url(#filter0_d)">
<path d="M223 259C223 282.196 204.196 301 181 301C157.804 301 139 282.196 139 259" stroke="#00BD4D"/>
</g>
<g filter="url(#filter1_d)">
<path d="M129 259C129 282.196 110.196 301 87 301C63.804 301 45 282.196 45 259" stroke="#00BD4D"/>
</g>
<g filter="url(#filter2_d)">
<path d="M317 259C317 282.196 298.196 301 275 301C251.804 301 233 282.196 233 259" stroke="#00BD4D"/>
</g>
<path d="M126.098 151.278V159H124.217V154.171L122.545 159H120.917L119.234 154.16V159H117.353V151.278H119.652L121.753 156.657L123.81 151.278H126.098ZM134.36 157.581H131.445L130.961 159H128.981L131.83 151.278H133.997L136.846 159H134.844L134.36 157.581ZM133.876 156.151L132.908 153.291L131.929 156.151H133.876ZM144.442 159L142.803 156.58L141.395 159H139.239L141.725 154.996L139.162 151.223H141.395L142.99 153.566L144.365 151.223H146.51L144.057 155.139L146.675 159H144.442ZM151.429 151.223V159H149.548V151.223H151.429ZM163.618 151.278V159H161.737V154.171L160.065 159H158.437L156.754 154.16V159H154.873V151.278H157.172L159.273 156.657L161.33 151.278H163.618ZM168.888 151.223V155.711C168.888 156.224 169.002 156.617 169.229 156.888C169.464 157.159 169.801 157.295 170.241 157.295C170.681 157.295 171.015 157.159 171.242 156.888C171.477 156.617 171.594 156.224 171.594 155.711V151.223H173.475V155.711C173.475 156.444 173.332 157.064 173.046 157.57C172.76 158.069 172.368 158.446 171.869 158.703C171.378 158.952 170.82 159.077 170.197 159.077C169.574 159.077 169.024 158.952 168.547 158.703C168.07 158.454 167.696 158.076 167.425 157.57C167.154 157.064 167.018 156.444 167.018 155.711V151.223H168.888ZM185.622 151.278V159H183.741V154.171L182.069 159H180.441L178.758 154.16V159H176.877V151.278H179.176L181.277 156.657L183.334 151.278H185.622ZM195.294 157.559H197.802V159H193.413V151.223H195.294V157.559ZM205.629 157.581H202.714L202.23 159H200.25L203.099 151.278H205.266L208.115 159H206.113L205.629 157.581ZM205.145 156.151L204.177 153.291L203.198 156.151H205.145ZM221.562 151.223L219.703 159H217.371L216.128 153.797L214.874 159H212.542L210.683 151.223H212.729L213.73 156.855L215.094 151.223H217.151L218.515 156.855L219.527 151.223H221.562ZM229.766 151.223V152.719H226.576V154.424H229.04V155.854H226.576V159H224.695V151.223H229.766ZM234.703 151.223V155.711C234.703 156.224 234.816 156.617 235.044 156.888C235.278 157.159 235.616 157.295 236.056 157.295C236.496 157.295 236.829 157.159 237.057 156.888C237.291 156.617 237.409 156.224 237.409 155.711V151.223H239.29V155.711C239.29 156.444 239.147 157.064 238.861 157.57C238.575 158.069 238.182 158.446 237.684 158.703C237.192 158.952 236.635 159.077 236.012 159.077C235.388 159.077 234.838 158.952 234.362 158.703C233.885 158.454 233.511 158.076 233.24 157.57C232.968 157.064 232.833 156.444 232.833 155.711V151.223H234.703ZM244.573 157.559H247.081V159H242.692V151.223H244.573V157.559ZM115.785 168.223V172.711C115.785 173.224 115.898 173.617 116.126 173.888C116.36 174.159 116.698 174.295 117.138 174.295C117.578 174.295 117.911 174.159 118.139 173.888C118.373 173.617 118.491 173.224 118.491 172.711V168.223H120.372V172.711C120.372 173.444 120.229 174.064 119.943 174.57C119.657 175.069 119.264 175.446 118.766 175.703C118.274 175.952 117.717 176.077 117.094 176.077C116.47 176.077 115.92 175.952 115.444 175.703C114.967 175.454 114.593 175.076 114.322 174.57C114.05 174.064 113.915 173.444 113.915 172.711V168.223H115.785ZM129.362 168.223V169.719H127.25V176H125.358V169.719H123.268V168.223H129.362ZM134.181 168.223V176H132.3V168.223H134.181ZM139.505 174.559H142.013V176H137.624V168.223H139.505V174.559ZM146.903 168.223V176H145.022V168.223H146.903ZM155.935 168.223V169.719H153.823V176H151.931V169.719H149.841V168.223H155.935ZM165.594 168.223L162.899 173.415V176H161.007V173.415L158.312 168.223H160.468L161.964 171.391L163.46 168.223H165.594ZM177.627 174.581H174.712L174.228 176H172.248L175.097 168.278H177.264L180.113 176H178.111L177.627 174.581ZM177.143 173.151L176.175 170.291L175.196 173.151H177.143ZM189.897 176H188.016L184.87 171.226V176H182.989V168.223H184.87L188.016 173.041V168.223H189.897V176ZM200.337 172.095C200.337 172.858 200.172 173.536 199.842 174.13C199.52 174.717 199.05 175.175 198.434 175.505C197.826 175.835 197.107 176 196.278 176H193.341V168.223H196.278C197.114 168.223 197.837 168.384 198.445 168.707C199.054 169.03 199.52 169.484 199.842 170.071C200.172 170.658 200.337 171.332 200.337 172.095ZM196.113 174.317C196.847 174.317 197.415 174.123 197.818 173.734C198.229 173.345 198.434 172.799 198.434 172.095C198.434 171.391 198.229 170.845 197.818 170.456C197.415 170.067 196.847 169.873 196.113 169.873H195.222V174.317H196.113ZM209.353 168.223L211.256 174.075L213.159 168.223H215.172L212.466 176H210.035L207.34 168.223H209.353ZM222.856 174.581H219.941L219.457 176H217.477L220.326 168.278H222.493L225.342 176H223.34L222.856 174.581ZM222.372 173.151L221.404 170.291L220.425 173.151H222.372ZM230.099 174.559H232.607V176H228.218V168.223H230.099V174.559ZM237.442 168.223V172.711C237.442 173.224 237.556 173.617 237.783 173.888C238.018 174.159 238.355 174.295 238.795 174.295C239.235 174.295 239.569 174.159 239.796 173.888C240.031 173.617 240.148 173.224 240.148 172.711V168.223H242.029V172.711C242.029 173.444 241.886 174.064 241.6 174.57C241.314 175.069 240.922 175.446 240.423 175.703C239.932 175.952 239.374 176.077 238.751 176.077C238.128 176.077 237.578 175.952 237.101 175.703C236.624 175.454 236.25 175.076 235.979 174.57C235.708 174.064 235.572 173.444 235.572 172.711V168.223H237.442ZM247.312 169.719V171.347H249.941V172.766H247.312V174.493H250.271V176H245.431V168.223H250.271V169.719H247.312Z" fill="#696969"/>
<path d="M41.6865 101.456V106H40.2305V94.72H43.8145C45.1052 94.72 46.0705 95.024 46.7105 95.632C47.3505 96.2293 47.6705 97.0507 47.6705 98.096C47.6705 99.152 47.3398 99.9787 46.6785 100.576C46.0172 101.163 45.0625 101.456 43.8145 101.456H41.6865ZM43.6865 100.24C44.5718 100.24 45.2065 100.053 45.5905 99.68C45.9852 99.3067 46.1825 98.7787 46.1825 98.096C46.1825 97.392 45.9852 96.8587 45.5905 96.496C45.2065 96.1227 44.5718 95.936 43.6865 95.936H41.6865V100.24H43.6865ZM53.3551 97.104C54.1978 97.104 54.9498 97.2853 55.6111 97.648C56.2831 98.0107 56.8058 98.5333 57.1791 99.216C57.5631 99.8987 57.7551 100.699 57.7551 101.616C57.7551 102.533 57.5631 103.333 57.1791 104.016C56.8058 104.688 56.2831 105.205 55.6111 105.568C54.9498 105.931 54.1978 106.112 53.3551 106.112C52.5125 106.112 51.7551 105.931 51.0831 105.568C50.4218 105.205 49.8991 104.688 49.5151 104.016C49.1311 103.333 48.9391 102.533 48.9391 101.616C48.9391 100.699 49.1311 99.8987 49.5151 99.216C49.8991 98.5333 50.4218 98.0107 51.0831 97.648C51.7551 97.2853 52.5125 97.104 53.3551 97.104ZM53.3551 98.384C52.8325 98.384 52.3471 98.5013 51.8991 98.736C51.4618 98.9707 51.1045 99.3333 50.8271 99.824C50.5605 100.304 50.4271 100.901 50.4271 101.616C50.4271 102.32 50.5605 102.917 50.8271 103.408C51.1045 103.888 51.4618 104.245 51.8991 104.48C52.3471 104.715 52.8325 104.832 53.3551 104.832C53.8778 104.832 54.3578 104.715 54.7951 104.48C55.2431 104.245 55.6005 103.888 55.8671 103.408C56.1445 102.917 56.2831 102.32 56.2831 101.616C56.2831 100.901 56.1445 100.304 55.8671 99.824C55.6005 99.3333 55.2431 98.9707 54.7951 98.736C54.3578 98.5013 53.8778 98.384 53.3551 98.384ZM62.4044 97.104C63.3964 97.104 64.191 97.3653 64.7884 97.888C65.3964 98.4 65.7644 99.0933 65.8924 99.968H64.5004C64.4364 99.4453 64.2177 99.0187 63.8444 98.688C63.4817 98.3467 62.991 98.176 62.3724 98.176C61.8497 98.176 61.439 98.304 61.1404 98.56C60.8524 98.8053 60.7084 99.1413 60.7084 99.568C60.7084 99.888 60.8044 100.149 60.9964 100.352C61.199 100.544 61.4444 100.693 61.7324 100.8C62.031 100.896 62.4364 101.003 62.9484 101.12C63.599 101.269 64.1217 101.424 64.5164 101.584C64.9217 101.733 65.263 101.979 65.5404 102.32C65.8284 102.661 65.9724 103.12 65.9724 103.696C65.9724 104.411 65.7004 104.992 65.1564 105.44C64.623 105.888 63.9084 106.112 63.0124 106.112C61.967 106.112 61.1137 105.861 60.4524 105.36C59.791 104.859 59.4017 104.16 59.2844 103.264H60.6924C60.7457 103.797 60.975 104.229 61.3804 104.56C61.7964 104.891 62.3404 105.056 63.0124 105.056C63.5137 105.056 63.903 104.928 64.1804 104.672C64.4684 104.416 64.6124 104.08 64.6124 103.664C64.6124 103.323 64.511 103.051 64.3084 102.848C64.1057 102.645 63.855 102.491 63.5564 102.384C63.2577 102.277 62.847 102.165 62.3244 102.048C61.6737 101.899 61.151 101.749 60.7564 101.6C60.3724 101.451 60.0417 101.216 59.7644 100.896C59.4977 100.565 59.3644 100.123 59.3644 99.568C59.3644 98.832 59.6364 98.24 60.1804 97.792C60.7244 97.3333 61.4657 97.104 62.4044 97.104ZM72.11 104.72V106H71.022C70.126 106 69.454 105.787 69.006 105.36C68.5687 104.933 68.35 104.219 68.35 103.216V98.48H67.038V97.216H68.35V95.024H69.822V97.216H72.094V98.48H69.822V103.248C69.822 103.813 69.9233 104.203 70.126 104.416C70.3393 104.619 70.702 104.72 71.214 104.72H72.11ZM78.8788 99.52V100.752H72.4787V99.52H78.8788ZM86.8661 94.608C88.1781 94.608 89.2768 94.9333 90.1621 95.584C91.0581 96.2347 91.6608 97.12 91.9701 98.24H90.4341C90.1675 97.5573 89.7195 97.008 89.0901 96.592C88.4715 96.176 87.7355 95.968 86.8821 95.968C86.1141 95.968 85.4261 96.1493 84.8181 96.512C84.2101 96.864 83.7301 97.3707 83.3781 98.032C83.0368 98.6933 82.8661 99.472 82.8661 100.368C82.8661 101.285 83.0421 102.08 83.3941 102.752C83.7461 103.413 84.2315 103.925 84.8501 104.288C85.4795 104.64 86.1995 104.816 87.0101 104.816C87.7035 104.816 88.3381 104.667 88.9141 104.368C89.4901 104.069 89.9595 103.637 90.3221 103.072C90.6955 102.496 90.9195 101.824 90.9941 101.056H86.5621V99.968H92.2261V101.312C92.1301 102.208 91.8528 103.019 91.3941 103.744C90.9355 104.469 90.3168 105.045 89.5381 105.472C88.7595 105.899 87.8741 106.112 86.8821 106.112C85.7941 106.112 84.8341 105.872 84.0021 105.392C83.1701 104.901 82.5195 104.224 82.0501 103.36C81.5915 102.485 81.3621 101.488 81.3621 100.368C81.3621 99.248 81.5915 98.256 82.0501 97.392C82.5195 96.5173 83.1701 95.8347 84.0021 95.344C84.8341 94.8533 85.7888 94.608 86.8661 94.608ZM103.703 100.352C103.703 101.493 103.474 102.491 103.015 103.344C102.557 104.187 101.879 104.843 100.983 105.312C100.098 105.771 99.0313 106 97.7833 106H94.1993V94.72H97.7833C99.0313 94.72 100.098 94.9493 100.983 95.408C101.879 95.856 102.557 96.5067 103.015 97.36C103.474 98.2027 103.703 99.2 103.703 100.352ZM97.6713 104.688C99.1433 104.688 100.269 104.309 101.047 103.552C101.826 102.795 102.215 101.728 102.215 100.352C102.215 98.976 101.826 97.9093 101.047 97.152C100.279 96.384 99.1539 96 97.6713 96H95.6553V104.688H97.6713ZM107.124 101.456V106H105.668V94.72H109.252C110.543 94.72 111.508 95.024 112.148 95.632C112.788 96.2293 113.108 97.0507 113.108 98.096C113.108 99.152 112.777 99.9787 112.116 100.576C111.455 101.163 110.5 101.456 109.252 101.456H107.124ZM109.124 100.24C110.009 100.24 110.644 100.053 111.028 99.68C111.423 99.3067 111.62 98.7787 111.62 98.096C111.62 97.392 111.423 96.8587 111.028 96.496C110.644 96.1227 110.009 95.936 109.124 95.936H107.124V100.24H109.124ZM120.793 106L117.849 101.392H116.265V106H114.809V94.72H118.521C119.801 94.72 120.761 95.0293 121.401 95.648C122.041 96.256 122.361 97.0667 122.361 98.08C122.361 98.9973 122.105 99.7387 121.593 100.304C121.081 100.859 120.339 101.205 119.369 101.344L122.441 106H120.793ZM116.265 100.336H118.393C120.046 100.336 120.873 99.6107 120.873 98.16C120.873 96.7093 120.046 95.984 118.393 95.984H116.265V100.336ZM129.546 104.864H133.546V106H128.09V94.72H129.546V104.864ZM138.627 97.104C139.481 97.104 140.201 97.3173 140.787 97.744C141.385 98.1707 141.801 98.7413 142.035 99.456V97.216H143.491V106H142.035V103.76C141.801 104.475 141.385 105.045 140.787 105.472C140.201 105.899 139.481 106.112 138.627 106.112C137.849 106.112 137.155 105.931 136.547 105.568C135.939 105.205 135.459 104.688 135.107 104.016C134.766 103.333 134.595 102.533 134.595 101.616C134.595 100.699 134.766 99.8987 135.107 99.216C135.459 98.5333 135.939 98.0107 136.547 97.648C137.155 97.2853 137.849 97.104 138.627 97.104ZM139.043 98.4C138.147 98.4 137.427 98.688 136.883 99.264C136.35 99.8293 136.083 100.613 136.083 101.616C136.083 102.619 136.35 103.408 136.883 103.984C137.427 104.549 138.147 104.832 139.043 104.832C139.619 104.832 140.131 104.699 140.579 104.432C141.038 104.165 141.395 103.792 141.651 103.312C141.907 102.821 142.035 102.256 142.035 101.616C142.035 100.976 141.907 100.411 141.651 99.92C141.395 99.4293 141.038 99.056 140.579 98.8C140.131 98.5333 139.619 98.4 139.043 98.4ZM157.873 97.216L155.345 106H153.777L151.361 98.848L148.929 106H147.345L144.849 97.216H146.321L148.193 104.608L150.625 97.216H152.145L154.593 104.592L156.481 97.216H157.873ZM163.119 95.136C162.34 95.1253 161.796 95.2587 161.487 95.536C161.188 95.8133 161.039 96.2933 161.039 96.976V97.216H163.119V98.496H161.039V106H159.583V98.496H158.319V97.216H159.583V96.864C159.583 94.7627 160.761 93.76 163.119 93.856V95.136ZM172.507 97.216V106H171.051V103.936C170.827 104.651 170.427 105.2 169.851 105.584C169.286 105.957 168.625 106.144 167.867 106.144C166.854 106.144 166.033 105.819 165.403 105.168C164.774 104.507 164.459 103.563 164.459 102.336V97.216H165.915V102.192C165.915 103.067 166.139 103.744 166.587 104.224C167.035 104.693 167.643 104.928 168.411 104.928C169.211 104.928 169.851 104.672 170.331 104.16C170.811 103.637 171.051 102.88 171.051 101.888V97.216H172.507ZM176.296 94.16V106H174.84V94.16H176.296ZM192.094 100.352C192.094 101.493 191.865 102.491 191.406 103.344C190.947 104.187 190.27 104.843 189.374 105.312C188.489 105.771 187.422 106 186.174 106H182.59V94.72H186.174C187.422 94.72 188.489 94.9493 189.374 95.408C190.27 95.856 190.947 96.5067 191.406 97.36C191.865 98.2027 192.094 99.2 192.094 100.352ZM186.062 104.688C187.534 104.688 188.659 104.309 189.438 103.552C190.217 102.795 190.606 101.728 190.606 100.352C190.606 98.976 190.217 97.9093 189.438 97.152C188.67 96.384 187.545 96 186.062 96H184.046V104.688H186.062ZM197.659 97.104C198.512 97.104 199.232 97.3173 199.819 97.744C200.416 98.1707 200.832 98.7413 201.067 99.456V97.216H202.523V106H201.067V103.76C200.832 104.475 200.416 105.045 199.819 105.472C199.232 105.899 198.512 106.112 197.659 106.112C196.88 106.112 196.187 105.931 195.579 105.568C194.971 105.205 194.491 104.688 194.139 104.016C193.797 103.333 193.627 102.533 193.627 101.616C193.627 100.699 193.797 99.8987 194.139 99.216C194.491 98.5333 194.971 98.0107 195.579 97.648C196.187 97.2853 196.88 97.104 197.659 97.104ZM198.075 98.4C197.179 98.4 196.459 98.688 195.915 99.264C195.381 99.8293 195.115 100.613 195.115 101.616C195.115 102.619 195.381 103.408 195.915 103.984C196.459 104.549 197.179 104.832 198.075 104.832C198.651 104.832 199.163 104.699 199.611 104.432C200.069 104.165 200.427 103.792 200.683 103.312C200.939 102.821 201.067 102.256 201.067 101.616C201.067 100.976 200.939 100.411 200.683 99.92C200.427 99.4293 200.069 99.056 199.611 98.8C199.163 98.5333 198.651 98.4 198.075 98.4ZM209.032 104.72V106H207.944C207.048 106 206.376 105.787 205.928 105.36C205.491 104.933 205.272 104.219 205.272 103.216V98.48H203.96V97.216H205.272V95.024H206.744V97.216H209.016V98.48H206.744V103.248C206.744 103.813 206.845 104.203 207.048 104.416C207.261 104.619 207.624 104.72 208.136 104.72H209.032ZM214.409 97.104C215.262 97.104 215.982 97.3173 216.569 97.744C217.166 98.1707 217.582 98.7413 217.817 99.456V97.216H219.273V106H217.817V103.76C217.582 104.475 217.166 105.045 216.569 105.472C215.982 105.899 215.262 106.112 214.409 106.112C213.63 106.112 212.937 105.931 212.329 105.568C211.721 105.205 211.241 104.688 210.889 104.016C210.547 103.333 210.377 102.533 210.377 101.616C210.377 100.699 210.547 99.8987 210.889 99.216C211.241 98.5333 211.721 98.0107 212.329 97.648C212.937 97.2853 213.63 97.104 214.409 97.104ZM214.825 98.4C213.929 98.4 213.209 98.688 212.665 99.264C212.131 99.8293 211.865 100.613 211.865 101.616C211.865 102.619 212.131 103.408 212.665 103.984C213.209 104.549 213.929 104.832 214.825 104.832C215.401 104.832 215.913 104.699 216.361 104.432C216.819 104.165 217.177 103.792 217.433 103.312C217.689 102.821 217.817 102.256 217.817 101.616C217.817 100.976 217.689 100.411 217.433 99.92C217.177 99.4293 216.819 99.056 216.361 98.8C215.913 98.5333 215.401 98.4 214.825 98.4ZM231.527 106L228.583 101.392H226.999V106H225.543V94.72H229.255C230.535 94.72 231.495 95.0293 232.135 95.648C232.775 96.256 233.095 97.0667 233.095 98.08C233.095 98.9973 232.839 99.7387 232.327 100.304C231.815 100.859 231.074 101.205 230.103 101.344L233.175 106H231.527ZM226.999 100.336H229.127C230.78 100.336 231.607 99.6107 231.607 98.16C231.607 96.7093 230.78 95.984 229.127 95.984H226.999V100.336ZM242.951 101.12C242.951 101.429 242.93 101.696 242.887 101.92H235.863C235.895 102.923 236.178 103.675 236.711 104.176C237.255 104.677 237.916 104.928 238.695 104.928C239.399 104.928 239.986 104.752 240.455 104.4C240.935 104.037 241.228 103.557 241.335 102.96H242.887C242.78 103.568 242.54 104.112 242.167 104.592C241.804 105.072 241.33 105.445 240.743 105.712C240.156 105.979 239.495 106.112 238.759 106.112C237.916 106.112 237.17 105.931 236.519 105.568C235.868 105.205 235.356 104.688 234.983 104.016C234.62 103.333 234.439 102.533 234.439 101.616C234.439 100.699 234.62 99.8987 234.983 99.216C235.356 98.5333 235.868 98.0107 236.519 97.648C237.17 97.2853 237.916 97.104 238.759 97.104C239.612 97.104 240.354 97.2853 240.983 97.648C241.623 98.0107 242.108 98.496 242.439 99.104C242.78 99.712 242.951 100.384 242.951 101.12ZM241.479 101.216C241.511 100.565 241.404 100.021 241.159 99.584C240.914 99.1467 240.578 98.8213 240.151 98.608C239.724 98.3947 239.26 98.288 238.759 98.288C237.959 98.288 237.287 98.5387 236.743 99.04C236.199 99.5307 235.906 100.256 235.863 101.216H241.479ZM249.704 97.104C250.482 97.104 251.176 97.2853 251.784 97.648C252.392 98.0107 252.866 98.5333 253.208 99.216C253.56 99.8987 253.736 100.699 253.736 101.616C253.736 102.533 253.56 103.333 253.208 104.016C252.866 104.688 252.392 105.205 251.784 105.568C251.176 105.931 250.482 106.112 249.704 106.112C248.85 106.112 248.125 105.899 247.528 105.472C246.941 105.035 246.536 104.464 246.312 103.76V110.16H244.856V97.216H246.312V99.456C246.536 98.752 246.941 98.1867 247.528 97.76C248.125 97.3227 248.85 97.104 249.704 97.104ZM249.288 98.4C248.722 98.4 248.21 98.5333 247.752 98.8C247.293 99.056 246.936 99.4293 246.68 99.92C246.424 100.411 246.296 100.976 246.296 101.616C246.296 102.256 246.424 102.821 246.68 103.312C246.936 103.792 247.293 104.165 247.752 104.432C248.21 104.699 248.722 104.832 249.288 104.832C250.194 104.832 250.914 104.549 251.448 103.984C251.992 103.408 252.264 102.619 252.264 101.616C252.264 100.613 251.992 99.8293 251.448 99.264C250.914 98.688 250.194 98.4 249.288 98.4ZM263.445 97.216V106H261.989V103.936C261.765 104.651 261.365 105.2 260.789 105.584C260.223 105.957 259.562 106.144 258.805 106.144C257.791 106.144 256.97 105.819 256.341 105.168C255.711 104.507 255.397 103.563 255.397 102.336V97.216H256.853V102.192C256.853 103.067 257.077 103.744 257.525 104.224C257.973 104.693 258.581 104.928 259.349 104.928C260.149 104.928 260.789 104.672 261.269 104.16C261.749 103.637 261.989 102.88 261.989 101.888V97.216H263.445ZM267.233 98.992C267.521 98.384 267.943 97.9147 268.497 97.584C269.052 97.2427 269.713 97.072 270.481 97.072V98.656H270.033C269.212 98.656 268.54 98.8693 268.017 99.296C267.495 99.712 267.233 100.405 267.233 101.376V106H265.777V97.216H267.233V98.992ZM276.766 97.104C277.545 97.104 278.238 97.2853 278.846 97.648C279.454 98.0107 279.929 98.5333 280.27 99.216C280.622 99.8987 280.798 100.699 280.798 101.616C280.798 102.533 280.622 103.333 280.27 104.016C279.929 104.688 279.454 105.205 278.846 105.568C278.238 105.931 277.545 106.112 276.766 106.112C275.913 106.112 275.187 105.899 274.59 105.472C274.003 105.035 273.598 104.464 273.374 103.76V110.16H271.918V97.216H273.374V99.456C273.598 98.752 274.003 98.1867 274.59 97.76C275.187 97.3227 275.913 97.104 276.766 97.104ZM276.35 98.4C275.785 98.4 275.273 98.5333 274.814 98.8C274.355 99.056 273.998 99.4293 273.742 99.92C273.486 100.411 273.358 100.976 273.358 101.616C273.358 102.256 273.486 102.821 273.742 103.312C273.998 103.792 274.355 104.165 274.814 104.432C275.273 104.699 275.785 104.832 276.35 104.832C277.257 104.832 277.977 104.549 278.51 103.984C279.054 103.408 279.326 102.619 279.326 101.616C279.326 100.613 279.054 99.8293 278.51 99.264C277.977 98.688 277.257 98.4 276.35 98.4ZM286.683 97.104C287.526 97.104 288.278 97.2853 288.939 97.648C289.611 98.0107 290.134 98.5333 290.507 99.216C290.891 99.8987 291.083 100.699 291.083 101.616C291.083 102.533 290.891 103.333 290.507 104.016C290.134 104.688 289.611 105.205 288.939 105.568C288.278 105.931 287.526 106.112 286.683 106.112C285.841 106.112 285.083 105.931 284.411 105.568C283.75 105.205 283.227 104.688 282.843 104.016C282.459 103.333 282.267 102.533 282.267 101.616C282.267 100.699 282.459 99.8987 282.843 99.216C283.227 98.5333 283.75 98.0107 284.411 97.648C285.083 97.2853 285.841 97.104 286.683 97.104ZM286.683 98.384C286.161 98.384 285.675 98.5013 285.227 98.736C284.79 98.9707 284.433 99.3333 284.155 99.824C283.889 100.304 283.755 100.901 283.755 101.616C283.755 102.32 283.889 102.917 284.155 103.408C284.433 103.888 284.79 104.245 285.227 104.48C285.675 104.715 286.161 104.832 286.683 104.832C287.206 104.832 287.686 104.715 288.123 104.48C288.571 104.245 288.929 103.888 289.195 103.408C289.473 102.917 289.611 102.32 289.611 101.616C289.611 100.901 289.473 100.304 289.195 99.824C288.929 99.3333 288.571 98.9707 288.123 98.736C287.686 98.5013 287.206 98.384 286.683 98.384ZM295.733 97.104C296.725 97.104 297.519 97.3653 298.117 97.888C298.725 98.4 299.093 99.0933 299.221 99.968H297.829C297.765 99.4453 297.546 99.0187 297.173 98.688C296.81 98.3467 296.319 98.176 295.701 98.176C295.178 98.176 294.767 98.304 294.469 98.56C294.181 98.8053 294.037 99.1413 294.037 99.568C294.037 99.888 294.133 100.149 294.325 100.352C294.527 100.544 294.773 100.693 295.061 100.8C295.359 100.896 295.765 101.003 296.277 101.12C296.927 101.269 297.45 101.424 297.845 101.584C298.25 101.733 298.591 101.979 298.869 102.32C299.157 102.661 299.301 103.12 299.301 103.696C299.301 104.411 299.029 104.992 298.485 105.44C297.951 105.888 297.237 106.112 296.341 106.112C295.295 106.112 294.442 105.861 293.781 105.36C293.119 104.859 292.73 104.16 292.613 103.264H294.021C294.074 103.797 294.303 104.229 294.709 104.56C295.125 104.891 295.669 105.056 296.341 105.056C296.842 105.056 297.231 104.928 297.509 104.672C297.797 104.416 297.941 104.08 297.941 103.664C297.941 103.323 297.839 103.051 297.637 102.848C297.434 102.645 297.183 102.491 296.885 102.384C296.586 102.277 296.175 102.165 295.653 102.048C295.002 101.899 294.479 101.749 294.085 101.6C293.701 101.451 293.37 101.216 293.093 100.896C292.826 100.565 292.693 100.123 292.693 99.568C292.693 98.832 292.965 98.24 293.509 97.792C294.053 97.3333 294.794 97.104 295.733 97.104ZM300.99 94.64C300.99 94.3733 301.081 94.16 301.262 94C301.443 93.8293 301.683 93.744 301.982 93.744C302.281 93.744 302.521 93.8293 302.702 94C302.883 94.16 302.974 94.3733 302.974 94.64C302.974 94.9067 302.883 95.1253 302.702 95.296C302.521 95.456 302.281 95.536 301.982 95.536C301.683 95.536 301.443 95.456 301.262 95.296C301.081 95.1253 300.99 94.9067 300.99 94.64ZM302.702 97.216V106H301.246V97.216H302.702ZM309.667 97.072C310.691 97.072 311.518 97.4027 312.147 98.064C312.776 98.7147 313.091 99.6587 313.091 100.896V106H311.635V101.024C311.635 100.149 311.411 99.4773 310.963 99.008C310.515 98.5387 309.907 98.304 309.139 98.304C308.339 98.304 307.699 98.5653 307.219 99.088C306.739 99.6 306.499 100.352 306.499 101.344V106H305.043V97.216H306.499V99.296C306.723 98.5813 307.118 98.032 307.683 97.648C308.259 97.264 308.92 97.072 309.667 97.072ZM318.924 97.104C319.778 97.104 320.498 97.3173 321.084 97.744C321.682 98.1707 322.098 98.7413 322.332 99.456V97.216H323.788V106.144C323.788 106.955 323.618 107.675 323.276 108.304C322.935 108.933 322.455 109.424 321.836 109.776C321.218 110.128 320.498 110.304 319.676 110.304C318.492 110.304 317.527 110.016 316.78 109.44C316.034 108.875 315.559 108.107 315.356 107.136H316.796C316.967 107.723 317.287 108.181 317.756 108.512C318.236 108.853 318.85 109.024 319.596 109.024C320.386 109.024 321.036 108.768 321.548 108.256C322.071 107.755 322.332 107.051 322.332 106.144V103.76C322.098 104.475 321.682 105.045 321.084 105.472C320.498 105.899 319.778 106.112 318.924 106.112C318.146 106.112 317.452 105.931 316.844 105.568C316.236 105.205 315.756 104.688 315.404 104.016C315.063 103.333 314.892 102.533 314.892 101.616C314.892 100.699 315.063 99.8987 315.404 99.216C315.756 98.5333 316.236 98.0107 316.844 97.648C317.452 97.2853 318.146 97.104 318.924 97.104ZM319.34 98.4C318.444 98.4 317.724 98.688 317.18 99.264C316.647 99.8293 316.38 100.613 316.38 101.616C316.38 102.619 316.647 103.408 317.18 103.984C317.724 104.549 318.444 104.832 319.34 104.832C319.916 104.832 320.428 104.699 320.876 104.432C321.335 104.165 321.692 103.792 321.948 103.312C322.204 102.821 322.332 102.256 322.332 101.616C322.332 100.976 322.204 100.411 321.948 99.92C321.692 99.4293 321.335 99.056 320.876 98.8C320.428 98.5333 319.916 98.4 319.34 98.4ZM98.8672 121.072L96.5792 130H93.5232L91.9072 124.016L90.2752 130H87.2192L84.9312 121.072H87.6672L88.8512 127.504L90.5152 121.072H93.4272L95.1392 127.52L96.3232 121.072H98.8672ZM99.6021 118.56C99.6021 118.144 99.7514 117.803 100.05 117.536C100.349 117.259 100.743 117.12 101.234 117.12C101.725 117.12 102.119 117.259 102.418 117.536C102.717 117.803 102.866 118.144 102.866 118.56C102.866 118.965 102.717 119.307 102.418 119.584C102.119 119.851 101.725 119.984 101.234 119.984C100.743 119.984 100.349 119.851 100.05 119.584C99.7514 119.307 99.6021 118.965 99.6021 118.56ZM102.594 121.072V130H99.8581V121.072H102.594ZM109.539 127.648V130H108.307C107.262 130 106.446 129.744 105.859 129.232C105.283 128.709 104.995 127.851 104.995 126.656V123.376H103.795V121.072H104.995V118.88H107.731V121.072H109.523V123.376H107.731V126.704C107.731 127.056 107.8 127.301 107.939 127.44C108.088 127.579 108.334 127.648 108.675 127.648H109.539ZM116.741 120.976C117.765 120.976 118.575 121.317 119.173 122C119.781 122.683 120.085 123.621 120.085 124.816V130H117.349V125.136C117.349 124.539 117.189 124.075 116.869 123.744C116.559 123.403 116.143 123.232 115.621 123.232C115.066 123.232 114.623 123.408 114.293 123.76C113.973 124.112 113.813 124.613 113.813 125.264V130H111.077V118.16H113.813V122.704C114.069 122.171 114.447 121.749 114.949 121.44C115.461 121.131 116.058 120.976 116.741 120.976ZM127.828 126.032V130H125.092V118.688H129.524C130.868 118.688 131.892 119.024 132.596 119.696C133.3 120.357 133.652 121.253 133.652 122.384C133.652 123.088 133.492 123.717 133.172 124.272C132.863 124.816 132.399 125.248 131.78 125.568C131.162 125.877 130.41 126.032 129.524 126.032H127.828ZM129.22 123.84C130.319 123.84 130.868 123.355 130.868 122.384C130.868 121.392 130.319 120.896 129.22 120.896H127.828V123.84H129.22ZM138.247 120.96C139.377 120.96 140.279 121.243 140.951 121.808C141.633 122.373 142.06 123.12 142.231 124.048H139.671C139.596 123.685 139.425 123.403 139.159 123.2C138.903 122.987 138.577 122.88 138.183 122.88C137.873 122.88 137.639 122.949 137.479 123.088C137.319 123.216 137.239 123.403 137.239 123.648C137.239 123.925 137.383 124.133 137.671 124.272C137.969 124.411 138.433 124.549 139.063 124.688C139.745 124.848 140.305 125.013 140.743 125.184C141.18 125.344 141.559 125.611 141.879 125.984C142.199 126.357 142.359 126.859 142.359 127.488C142.359 128 142.22 128.453 141.943 128.848C141.665 129.243 141.265 129.552 140.743 129.776C140.22 130 139.601 130.112 138.887 130.112C137.681 130.112 136.716 129.845 135.991 129.312C135.265 128.779 134.823 128.016 134.663 127.024H137.303C137.345 127.408 137.505 127.701 137.783 127.904C138.071 128.107 138.439 128.208 138.887 128.208C139.196 128.208 139.431 128.139 139.591 128C139.751 127.851 139.831 127.659 139.831 127.424C139.831 127.115 139.681 126.896 139.383 126.768C139.095 126.629 138.62 126.485 137.959 126.336C137.297 126.197 136.753 126.048 136.327 125.888C135.9 125.728 135.532 125.472 135.223 125.12C134.913 124.757 134.759 124.267 134.759 123.648C134.759 122.848 135.063 122.203 135.671 121.712C136.279 121.211 137.137 120.96 138.247 120.96ZM152.354 125.296C152.354 125.52 152.327 125.765 152.274 126.032H146.082C146.114 126.704 146.284 127.189 146.594 127.488C146.903 127.776 147.298 127.92 147.778 127.92C148.183 127.92 148.519 127.819 148.786 127.616C149.052 127.413 149.228 127.152 149.314 126.832H152.21C152.092 127.461 151.836 128.027 151.442 128.528C151.047 129.019 150.546 129.408 149.938 129.696C149.33 129.973 148.652 130.112 147.906 130.112C147.031 130.112 146.252 129.931 145.57 129.568C144.898 129.195 144.37 128.661 143.986 127.968C143.602 127.275 143.41 126.464 143.41 125.536C143.41 124.597 143.596 123.787 143.97 123.104C144.354 122.411 144.887 121.883 145.57 121.52C146.252 121.147 147.031 120.96 147.906 120.96C148.791 120.96 149.57 121.141 150.242 121.504C150.914 121.867 151.431 122.379 151.794 123.04C152.167 123.691 152.354 124.443 152.354 125.296ZM149.586 124.88C149.596 124.293 149.436 123.856 149.106 123.568C148.786 123.269 148.386 123.12 147.906 123.12C147.404 123.12 146.988 123.269 146.658 123.568C146.327 123.867 146.14 124.304 146.098 124.88H149.586ZM162.66 121.072V130H159.908V128.384C159.652 128.907 159.268 129.323 158.756 129.632C158.255 129.941 157.668 130.096 156.996 130.096C155.972 130.096 155.156 129.755 154.548 129.072C153.951 128.389 153.652 127.451 153.652 126.256V121.072H156.372V125.92C156.372 126.528 156.527 127.003 156.836 127.344C157.156 127.675 157.583 127.84 158.116 127.84C158.671 127.84 159.108 127.664 159.428 127.312C159.748 126.96 159.908 126.459 159.908 125.808V121.072H162.66ZM167.938 120.96C168.62 120.96 169.207 121.115 169.698 121.424C170.188 121.733 170.546 122.155 170.77 122.688V118.16H173.506V130H170.77V128.384C170.546 128.917 170.188 129.339 169.698 129.648C169.207 129.957 168.62 130.112 167.938 130.112C167.202 130.112 166.54 129.931 165.954 129.568C165.378 129.195 164.919 128.661 164.578 127.968C164.247 127.275 164.082 126.464 164.082 125.536C164.082 124.597 164.247 123.787 164.578 123.104C164.919 122.411 165.378 121.883 165.954 121.52C166.54 121.147 167.202 120.96 167.938 120.96ZM168.818 123.36C168.231 123.36 167.756 123.552 167.394 123.936C167.042 124.32 166.866 124.853 166.866 125.536C166.866 126.219 167.042 126.752 167.394 127.136C167.756 127.52 168.231 127.712 168.818 127.712C169.394 127.712 169.863 127.515 170.226 127.12C170.599 126.725 170.786 126.197 170.786 125.536C170.786 124.864 170.599 124.336 170.226 123.952C169.863 123.557 169.394 123.36 168.818 123.36ZM179.565 120.96C180.451 120.96 181.24 121.147 181.933 121.52C182.637 121.883 183.187 122.411 183.581 123.104C183.987 123.797 184.189 124.608 184.189 125.536C184.189 126.464 183.987 127.275 183.581 127.968C183.187 128.661 182.637 129.195 181.933 129.568C181.24 129.931 180.451 130.112 179.565 130.112C178.68 130.112 177.885 129.931 177.181 129.568C176.477 129.195 175.923 128.661 175.517 127.968C175.123 127.275 174.925 126.464 174.925 125.536C174.925 124.608 175.123 123.797 175.517 123.104C175.923 122.411 176.477 121.883 177.181 121.52C177.885 121.147 178.68 120.96 179.565 120.96ZM179.565 123.328C179.043 123.328 178.6 123.52 178.237 123.904C177.885 124.277 177.709 124.821 177.709 125.536C177.709 126.251 177.885 126.795 178.237 127.168C178.6 127.541 179.043 127.728 179.565 127.728C180.088 127.728 180.525 127.541 180.877 127.168C181.229 126.795 181.405 126.251 181.405 125.536C181.405 124.821 181.229 124.277 180.877 123.904C180.525 123.52 180.088 123.328 179.565 123.328ZM191.272 120.976C192.296 120.976 193.107 121.317 193.704 122C194.312 122.683 194.616 123.621 194.616 124.816V130H191.88V125.136C191.88 124.539 191.72 124.075 191.4 123.744C191.091 123.403 190.675 123.232 190.152 123.232C189.597 123.232 189.155 123.408 188.824 123.76C188.504 124.112 188.344 124.613 188.344 125.264V130H185.608V121.072H188.344V122.704C188.6 122.171 188.979 121.749 189.48 121.44C189.992 121.131 190.589 120.976 191.272 120.976ZM198.485 121.072L200.629 126.544L202.629 121.072H205.653L200.085 134.256H197.077L199.173 129.664L195.429 121.072H198.485ZM218.129 120.976C219.228 120.976 220.092 121.317 220.721 122C221.351 122.672 221.665 123.611 221.665 124.816V130H218.945V125.136C218.945 124.571 218.791 124.133 218.481 123.824C218.183 123.504 217.772 123.344 217.249 123.344C216.705 123.344 216.273 123.515 215.953 123.856C215.644 124.187 215.489 124.656 215.489 125.264V130H212.753V125.136C212.753 124.571 212.604 124.133 212.305 123.824C212.007 123.504 211.596 123.344 211.073 123.344C210.529 123.344 210.097 123.509 209.777 123.84C209.457 124.171 209.297 124.645 209.297 125.264V130H206.561V121.072H209.297V122.592C209.532 122.091 209.889 121.696 210.369 121.408C210.86 121.12 211.431 120.976 212.081 120.976C212.764 120.976 213.367 121.136 213.889 121.456C214.412 121.765 214.807 122.213 215.073 122.8C215.383 122.245 215.804 121.803 216.337 121.472C216.881 121.141 217.479 120.976 218.129 120.976ZM223.227 118.56C223.227 118.144 223.376 117.803 223.675 117.536C223.974 117.259 224.368 117.12 224.859 117.12C225.35 117.12 225.744 117.259 226.043 117.536C226.342 117.803 226.491 118.144 226.491 118.56C226.491 118.965 226.342 119.307 226.043 119.584C225.744 119.851 225.35 119.984 224.859 119.984C224.368 119.984 223.974 119.851 223.675 119.584C223.376 119.307 223.227 118.965 223.227 118.56ZM226.219 121.072V130H223.483V121.072H226.219ZM231.356 120.96C232.487 120.96 233.388 121.243 234.06 121.808C234.743 122.373 235.169 123.12 235.34 124.048H232.78C232.705 123.685 232.535 123.403 232.268 123.2C232.012 122.987 231.687 122.88 231.292 122.88C230.983 122.88 230.748 122.949 230.588 123.088C230.428 123.216 230.348 123.403 230.348 123.648C230.348 123.925 230.492 124.133 230.78 124.272C231.079 124.411 231.543 124.549 232.172 124.688C232.855 124.848 233.415 125.013 233.852 125.184C234.289 125.344 234.668 125.611 234.988 125.984C235.308 126.357 235.468 126.859 235.468 127.488C235.468 128 235.329 128.453 235.052 128.848C234.775 129.243 234.375 129.552 233.852 129.776C233.329 130 232.711 130.112 231.996 130.112C230.791 130.112 229.825 129.845 229.1 129.312C228.375 128.779 227.932 128.016 227.772 127.024H230.412C230.455 127.408 230.615 127.701 230.892 127.904C231.18 128.107 231.548 128.208 231.996 128.208C232.305 128.208 232.54 128.139 232.7 128C232.86 127.851 232.94 127.659 232.94 127.424C232.94 127.115 232.791 126.896 232.492 126.768C232.204 126.629 231.729 126.485 231.068 126.336C230.407 126.197 229.863 126.048 229.436 125.888C229.009 125.728 228.641 125.472 228.332 125.12C228.023 124.757 227.868 124.267 227.868 123.648C227.868 122.848 228.172 122.203 228.78 121.712C229.388 121.211 230.247 120.96 231.356 120.96ZM240.375 120.96C241.058 120.96 241.644 121.115 242.135 121.424C242.626 121.733 242.988 122.155 243.223 122.688V121.072H245.943V130H243.223V128.384C242.988 128.917 242.626 129.339 242.135 129.648C241.644 129.957 241.058 130.112 240.375 130.112C239.639 130.112 238.978 129.931 238.391 129.568C237.815 129.195 237.356 128.661 237.015 127.968C236.684 127.275 236.519 126.464 236.519 125.536C236.519 124.597 236.684 123.787 237.015 123.104C237.356 122.411 237.815 121.883 238.391 121.52C238.978 121.147 239.639 120.96 240.375 120.96ZM241.255 123.36C240.668 123.36 240.194 123.552 239.831 123.936C239.479 124.32 239.303 124.853 239.303 125.536C239.303 126.219 239.479 126.752 239.831 127.136C240.194 127.52 240.668 127.712 241.255 127.712C241.831 127.712 242.3 127.515 242.663 127.12C243.036 126.725 243.223 126.197 243.223 125.536C243.223 124.864 243.036 124.336 242.663 123.952C242.3 123.557 241.831 123.36 241.255 123.36ZM252.883 127.648V130H251.651C250.605 130 249.789 129.744 249.203 129.232C248.627 128.709 248.339 127.851 248.339 126.656V123.376H247.139V121.072H248.339V118.88H251.075V121.072H252.867V123.376H251.075V126.704C251.075 127.056 251.144 127.301 251.283 127.44C251.432 127.579 251.677 127.648 252.019 127.648H252.883ZM254.165 118.56C254.165 118.144 254.314 117.803 254.613 117.536C254.911 117.259 255.306 117.12 255.797 117.12C256.287 117.12 256.682 117.259 256.981 117.536C257.279 117.803 257.429 118.144 257.429 118.56C257.429 118.965 257.279 119.307 256.981 119.584C256.682 119.851 256.287 119.984 255.797 119.984C255.306 119.984 254.911 119.851 254.613 119.584C254.314 119.307 254.165 118.965 254.165 118.56ZM257.157 121.072V130H254.421V121.072H257.157ZM263.222 120.96C264.107 120.96 264.896 121.147 265.59 121.52C266.294 121.883 266.843 122.411 267.238 123.104C267.643 123.797 267.846 124.608 267.846 125.536C267.846 126.464 267.643 127.275 267.238 127.968C266.843 128.661 266.294 129.195 265.59 129.568C264.896 129.931 264.107 130.112 263.222 130.112C262.336 130.112 261.542 129.931 260.838 129.568C260.134 129.195 259.579 128.661 259.174 127.968C258.779 127.275 258.582 126.464 258.582 125.536C258.582 124.608 258.779 123.797 259.174 123.104C259.579 122.411 260.134 121.883 260.838 121.52C261.542 121.147 262.336 120.96 263.222 120.96ZM263.222 123.328C262.699 123.328 262.256 123.52 261.894 123.904C261.542 124.277 261.366 124.821 261.366 125.536C261.366 126.251 261.542 126.795 261.894 127.168C262.256 127.541 262.699 127.728 263.222 127.728C263.744 127.728 264.182 127.541 264.534 127.168C264.886 126.795 265.062 126.251 265.062 125.536C265.062 124.821 264.886 124.277 264.534 123.904C264.182 123.52 263.744 123.328 263.222 123.328ZM274.928 120.976C275.952 120.976 276.763 121.317 277.36 122C277.968 122.683 278.272 123.621 278.272 124.816V130H275.536V125.136C275.536 124.539 275.376 124.075 275.056 123.744C274.747 123.403 274.331 123.232 273.808 123.232C273.254 123.232 272.811 123.408 272.48 123.76C272.16 124.112 272 124.613 272 125.264V130H269.264V121.072H272V122.704C272.256 122.171 272.635 121.749 273.136 121.44C273.648 121.131 274.246 120.976 274.928 120.976Z" fill="#00BD4D"/>
<g clip-path="url(#clip0)">
<path fill-rule="evenodd" clip-rule="evenodd" d="M102.187 239C103.729 237.507 109.803 232.104 116.929 232.104C119.592 232.104 122.368 232.849 125.192 234.316C121.919 236.335 119.859 238.523 119.766 238.623C119.568 238.835 119.568 239.165 119.766 239.378C119.859 239.477 121.919 241.665 125.192 243.685C122.368 245.151 119.592 245.896 116.929 245.896C109.803 245.896 103.728 240.492 102.187 239ZM96.7671 243.533C96.3257 243.533 95.8765 243.502 95.4224 243.44C98.4896 241.858 99.2262 239.272 99.2605 239.145C99.2862 239.051 99.2862 238.95 99.2605 238.855C99.2262 238.729 98.4893 236.141 95.4214 234.56C95.8756 234.498 96.325 234.467 96.7671 234.467C99.4593 234.467 101.609 235.62 103.061 236.738C101.791 237.789 101.054 238.572 101.008 238.623C100.81 238.835 100.81 239.165 101.008 239.377C101.054 239.427 101.791 240.211 103.061 241.262C101.609 242.38 99.4586 243.533 96.7671 243.533ZM131.595 239.076C131.592 239.079 131.589 239.082 131.586 239.085C131.561 239.109 131.537 239.132 131.511 239.157C131.502 239.165 131.493 239.173 131.485 239.181C131.463 239.202 131.441 239.223 131.419 239.244C131.408 239.254 131.398 239.264 131.387 239.273C131.365 239.294 131.343 239.315 131.32 239.336C131.308 239.348 131.294 239.361 131.281 239.373C131.259 239.393 131.238 239.413 131.216 239.433C131.201 239.447 131.186 239.461 131.171 239.474C131.149 239.495 131.126 239.515 131.103 239.536C131.088 239.55 131.072 239.564 131.056 239.578C131.033 239.6 131.009 239.621 130.985 239.643C130.968 239.658 130.951 239.674 130.934 239.689C130.91 239.71 130.885 239.732 130.861 239.754C130.843 239.77 130.825 239.786 130.807 239.802C130.781 239.825 130.755 239.847 130.729 239.87C130.71 239.887 130.691 239.904 130.672 239.92C130.646 239.943 130.619 239.966 130.593 239.989C130.572 240.007 130.551 240.026 130.529 240.044C130.503 240.067 130.476 240.089 130.449 240.112C130.427 240.131 130.405 240.15 130.383 240.169C130.355 240.192 130.328 240.215 130.3 240.239C130.277 240.259 130.253 240.279 130.229 240.299C130.201 240.322 130.173 240.345 130.145 240.369C130.12 240.389 130.095 240.41 130.07 240.431C130.042 240.454 130.013 240.478 129.985 240.501C129.958 240.523 129.932 240.544 129.905 240.566C129.876 240.59 129.847 240.613 129.818 240.637C129.79 240.659 129.763 240.681 129.735 240.704C129.705 240.728 129.675 240.752 129.645 240.776C129.616 240.798 129.588 240.821 129.559 240.844C129.529 240.868 129.498 240.892 129.467 240.916C129.437 240.939 129.408 240.962 129.378 240.986C129.346 241.01 129.315 241.034 129.283 241.059C129.252 241.082 129.222 241.106 129.191 241.13C129.159 241.154 129.126 241.179 129.093 241.204C129.062 241.228 129.03 241.252 128.998 241.276C128.966 241.3 128.933 241.324 128.9 241.349C128.867 241.374 128.834 241.398 128.8 241.423C128.767 241.448 128.734 241.472 128.701 241.496C128.666 241.521 128.632 241.547 128.597 241.572C128.564 241.596 128.531 241.62 128.498 241.644C128.461 241.67 128.425 241.696 128.388 241.722C128.355 241.746 128.321 241.77 128.287 241.793C128.25 241.82 128.213 241.846 128.176 241.872C128.142 241.896 128.107 241.919 128.073 241.943C128.035 241.97 127.996 241.997 127.957 242.023C127.924 242.046 127.889 242.07 127.855 242.093C127.815 242.12 127.775 242.147 127.734 242.175C127.701 242.197 127.667 242.22 127.633 242.242C127.591 242.27 127.549 242.298 127.507 242.326C127.474 242.347 127.442 242.368 127.409 242.39C127.364 242.419 127.319 242.448 127.274 242.477C127.245 242.496 127.215 242.515 127.185 242.534C127.136 242.565 127.087 242.597 127.037 242.628C127.016 242.641 126.995 242.655 126.974 242.668C126.767 242.797 126.554 242.926 126.338 243.053C126.328 243.059 126.319 243.065 126.309 243.07C123.668 241.524 121.724 239.758 120.944 239C121.724 238.242 123.668 236.476 126.309 234.93C126.334 234.945 126.36 234.96 126.385 234.975C126.576 235.088 126.764 235.202 126.948 235.317C126.978 235.335 127.007 235.353 127.036 235.372C127.081 235.4 127.125 235.428 127.17 235.457C127.204 235.479 127.239 235.501 127.273 235.523C127.316 235.55 127.357 235.577 127.399 235.604C127.434 235.627 127.47 235.65 127.505 235.673C127.547 235.701 127.587 235.728 127.628 235.755C127.663 235.778 127.698 235.801 127.732 235.824C127.773 235.852 127.812 235.879 127.852 235.906C127.887 235.929 127.921 235.952 127.955 235.976C127.994 236.002 128.032 236.029 128.07 236.055C128.105 236.079 128.139 236.103 128.173 236.127C128.211 236.153 128.248 236.18 128.286 236.206C128.319 236.229 128.352 236.253 128.385 236.276C128.423 236.303 128.461 236.33 128.498 236.357C128.53 236.38 128.561 236.403 128.592 236.425C128.629 236.452 128.666 236.479 128.702 236.505C128.734 236.528 128.765 236.551 128.796 236.574C128.831 236.6 128.866 236.627 128.902 236.653C128.932 236.676 128.963 236.698 128.993 236.721C129.028 236.747 129.062 236.773 129.097 236.799C129.126 236.822 129.155 236.844 129.184 236.866C129.219 236.892 129.252 236.918 129.286 236.944C129.314 236.966 129.343 236.988 129.37 237.01C129.404 237.036 129.438 237.062 129.472 237.089C129.498 237.109 129.524 237.13 129.55 237.15C129.584 237.177 129.617 237.203 129.65 237.229C129.675 237.25 129.701 237.27 129.726 237.29C129.758 237.316 129.79 237.342 129.821 237.367C129.847 237.387 129.871 237.407 129.896 237.428C129.927 237.453 129.958 237.478 129.989 237.503C130.012 237.522 130.036 237.542 130.059 237.561C130.09 237.586 130.121 237.612 130.151 237.637C130.173 237.655 130.194 237.673 130.216 237.691C130.246 237.717 130.277 237.742 130.306 237.767C130.327 237.785 130.347 237.802 130.368 237.819C130.397 237.844 130.427 237.869 130.456 237.894C130.475 237.91 130.494 237.927 130.513 237.943C130.542 237.968 130.571 237.993 130.599 238.017C130.617 238.033 130.635 238.048 130.653 238.064C130.681 238.088 130.708 238.113 130.736 238.136C130.753 238.151 130.769 238.166 130.786 238.181C130.813 238.205 130.84 238.229 130.866 238.252C130.882 238.266 130.898 238.28 130.913 238.294C130.939 238.317 130.965 238.34 130.99 238.362C131.005 238.376 131.02 238.389 131.035 238.403C131.059 238.425 131.084 238.447 131.108 238.469C131.121 238.481 131.133 238.492 131.146 238.504C131.171 238.527 131.196 238.55 131.221 238.572C131.231 238.581 131.24 238.59 131.25 238.599C131.275 238.623 131.3 238.646 131.324 238.668C131.335 238.678 131.345 238.687 131.355 238.697C131.378 238.718 131.4 238.739 131.422 238.76C131.432 238.769 131.441 238.778 131.451 238.787C131.472 238.807 131.492 238.826 131.512 238.845C131.525 238.857 131.536 238.868 131.548 238.88C131.565 238.895 131.581 238.911 131.597 238.926C131.623 238.951 131.649 238.976 131.674 239C131.649 239.025 131.622 239.05 131.595 239.076ZM132.851 238.623C132.833 238.602 132.732 238.496 132.558 238.322C132.414 238.179 132.22 237.991 131.979 237.768C131.97 237.76 131.962 237.753 131.954 237.745C131.869 237.667 131.779 237.585 131.684 237.499C131.665 237.483 131.647 237.467 131.628 237.45C130.547 236.484 128.799 235.076 126.58 233.813C126.58 233.813 126.58 233.813 126.58 233.813C126.58 233.813 126.58 233.813 126.58 233.813C123.297 231.946 120.05 231 116.929 231C112.365 231 108.277 233.075 105.652 234.815C105.028 235.228 104.458 235.64 103.947 236.033C102.352 234.753 99.8993 233.363 96.7671 233.363C95.6681 233.363 94.5329 233.535 93.3932 233.876C93.1598 233.945 92.9999 234.16 93 234.405C93.0001 234.649 93.1602 234.864 93.3936 234.934C96.8569 235.964 97.9286 238.377 98.1523 239C97.9271 239.627 96.8545 242.036 93.3934 243.067C93.16 243.136 93 243.352 93 243.596C93 243.841 93.1602 244.056 93.3937 244.125C94.535 244.465 95.67 244.637 96.7671 244.637C99.8985 244.637 102.352 243.247 103.947 241.967C104.458 242.36 105.029 242.772 105.652 243.185C108.277 244.925 112.365 247 116.929 247C120.05 247 123.297 246.054 126.58 244.187C129.989 242.247 132.287 239.962 132.763 239.47C132.812 239.419 132.842 239.387 132.852 239.377C133.049 239.165 133.049 238.835 132.851 238.623Z" fill="#5F64C8"/>
<path fill-rule="evenodd" clip-rule="evenodd" d="M125.644 237.169C124.902 237.169 124.301 237.773 124.301 238.517C124.301 239.262 124.902 239.865 125.644 239.865C126.385 239.865 126.986 239.262 126.986 238.517C126.986 237.773 126.385 237.169 125.644 237.169Z" fill="#5F64C8"/>
</g>
<g clip-path="url(#clip1)">
<path fill-rule="evenodd" clip-rule="evenodd" d="M162.187 273C163.729 271.507 169.803 266.104 176.929 266.104C179.592 266.104 182.368 266.849 185.192 268.316C181.919 270.335 179.859 272.523 179.766 272.623C179.568 272.835 179.568 273.165 179.766 273.378C179.859 273.477 181.919 275.665 185.192 277.685C182.368 279.151 179.592 279.896 176.929 279.896C169.803 279.896 163.728 274.492 162.187 273ZM156.767 277.533C156.326 277.533 155.877 277.502 155.422 277.44C158.49 275.858 159.226 273.272 159.26 273.145C159.286 273.051 159.286 272.95 159.26 272.855C159.226 272.729 158.489 270.141 155.421 268.56C155.876 268.498 156.325 268.467 156.767 268.467C159.459 268.467 161.609 269.62 163.061 270.738C161.791 271.789 161.054 272.572 161.008 272.623C160.81 272.835 160.81 273.165 161.008 273.377C161.054 273.427 161.791 274.211 163.061 275.262C161.609 276.38 159.459 277.533 156.767 277.533ZM191.595 273.076C191.592 273.079 191.589 273.082 191.586 273.085C191.561 273.109 191.537 273.132 191.511 273.157C191.502 273.165 191.493 273.173 191.485 273.181C191.463 273.202 191.441 273.223 191.419 273.244C191.408 273.254 191.398 273.264 191.387 273.273C191.365 273.294 191.343 273.315 191.32 273.336C191.308 273.348 191.294 273.361 191.281 273.373C191.259 273.393 191.238 273.413 191.216 273.433C191.201 273.447 191.186 273.461 191.171 273.474C191.149 273.495 191.126 273.515 191.103 273.536C191.088 273.55 191.072 273.564 191.056 273.578C191.033 273.6 191.009 273.621 190.985 273.643C190.968 273.658 190.951 273.674 190.934 273.689C190.91 273.71 190.885 273.732 190.861 273.754C190.843 273.77 190.825 273.786 190.807 273.802C190.781 273.825 190.755 273.847 190.729 273.87C190.71 273.887 190.691 273.904 190.672 273.92C190.646 273.943 190.619 273.966 190.593 273.989C190.572 274.007 190.551 274.026 190.529 274.044C190.503 274.067 190.476 274.089 190.449 274.112C190.427 274.131 190.405 274.15 190.383 274.169C190.355 274.192 190.328 274.215 190.3 274.239C190.277 274.259 190.253 274.279 190.229 274.299C190.201 274.322 190.173 274.345 190.145 274.369C190.12 274.389 190.095 274.41 190.07 274.431C190.042 274.454 190.013 274.478 189.985 274.501C189.958 274.523 189.932 274.544 189.905 274.566C189.876 274.59 189.847 274.613 189.818 274.637C189.79 274.659 189.763 274.681 189.735 274.704C189.705 274.728 189.675 274.752 189.645 274.776C189.616 274.798 189.588 274.821 189.559 274.844C189.529 274.868 189.498 274.892 189.467 274.916C189.437 274.939 189.408 274.962 189.378 274.986C189.346 275.01 189.315 275.034 189.283 275.059C189.252 275.082 189.222 275.106 189.191 275.13C189.159 275.154 189.126 275.179 189.093 275.204C189.062 275.228 189.03 275.252 188.998 275.276C188.966 275.3 188.933 275.324 188.9 275.349C188.867 275.374 188.834 275.398 188.8 275.423C188.767 275.448 188.734 275.472 188.701 275.496C188.666 275.521 188.632 275.547 188.597 275.572C188.564 275.596 188.531 275.62 188.498 275.644C188.461 275.67 188.425 275.696 188.388 275.722C188.355 275.746 188.321 275.77 188.287 275.793C188.25 275.82 188.213 275.846 188.176 275.872C188.142 275.896 188.107 275.919 188.073 275.943C188.035 275.97 187.996 275.997 187.957 276.023C187.924 276.046 187.889 276.07 187.855 276.093C187.815 276.12 187.775 276.147 187.734 276.175C187.701 276.197 187.667 276.22 187.633 276.242C187.591 276.27 187.549 276.298 187.507 276.326C187.474 276.347 187.442 276.368 187.409 276.39C187.364 276.419 187.319 276.448 187.274 276.477C187.245 276.496 187.215 276.515 187.185 276.534C187.136 276.565 187.087 276.597 187.037 276.628C187.016 276.641 186.995 276.655 186.974 276.668C186.767 276.797 186.554 276.926 186.338 277.053C186.328 277.059 186.319 277.065 186.309 277.07C183.668 275.524 181.724 273.758 180.944 273C181.724 272.242 183.668 270.476 186.309 268.93C186.334 268.945 186.36 268.96 186.385 268.975C186.576 269.088 186.764 269.202 186.948 269.317C186.978 269.335 187.007 269.353 187.036 269.372C187.081 269.4 187.125 269.428 187.17 269.457C187.204 269.479 187.239 269.501 187.273 269.523C187.316 269.55 187.357 269.577 187.399 269.604C187.434 269.627 187.47 269.65 187.505 269.673C187.547 269.701 187.587 269.728 187.628 269.755C187.663 269.778 187.698 269.801 187.732 269.824C187.773 269.852 187.812 269.879 187.852 269.906C187.887 269.929 187.921 269.952 187.955 269.976C187.994 270.002 188.032 270.029 188.07 270.055C188.105 270.079 188.139 270.103 188.173 270.127C188.211 270.153 188.248 270.18 188.286 270.206C188.319 270.229 188.352 270.253 188.385 270.276C188.423 270.303 188.461 270.33 188.498 270.357C188.53 270.38 188.561 270.403 188.592 270.425C188.629 270.452 188.666 270.479 188.702 270.505C188.734 270.528 188.765 270.551 188.796 270.574C188.831 270.6 188.866 270.627 188.902 270.653C188.932 270.676 188.963 270.698 188.993 270.721C189.028 270.747 189.062 270.773 189.097 270.799C189.126 270.822 189.155 270.844 189.184 270.866C189.219 270.892 189.252 270.918 189.286 270.944C189.314 270.966 189.343 270.988 189.37 271.01C189.404 271.036 189.438 271.062 189.472 271.089C189.498 271.109 189.524 271.13 189.55 271.15C189.584 271.177 189.617 271.203 189.65 271.229C189.675 271.25 189.701 271.27 189.726 271.29C189.758 271.316 189.79 271.342 189.821 271.367C189.847 271.387 189.871 271.407 189.896 271.428C189.927 271.453 189.958 271.478 189.989 271.503C190.012 271.522 190.036 271.542 190.059 271.561C190.09 271.586 190.121 271.612 190.151 271.637C190.173 271.655 190.194 271.673 190.216 271.691C190.246 271.717 190.277 271.742 190.306 271.767C190.327 271.785 190.347 271.802 190.368 271.819C190.397 271.844 190.427 271.869 190.456 271.894C190.475 271.91 190.494 271.927 190.513 271.943C190.542 271.968 190.571 271.993 190.599 272.017C190.617 272.033 190.635 272.048 190.653 272.064C190.681 272.088 190.708 272.113 190.736 272.136C190.753 272.151 190.769 272.166 190.786 272.181C190.813 272.205 190.84 272.229 190.866 272.252C190.882 272.266 190.898 272.28 190.913 272.294C190.939 272.317 190.965 272.34 190.99 272.362C191.005 272.376 191.02 272.389 191.035 272.403C191.059 272.425 191.084 272.447 191.108 272.469C191.121 272.481 191.133 272.492 191.146 272.504C191.171 272.527 191.196 272.55 191.221 272.572C191.231 272.581 191.24 272.59 191.25 272.599C191.275 272.623 191.3 272.646 191.324 272.668C191.335 272.678 191.345 272.687 191.355 272.697C191.378 272.718 191.4 272.739 191.422 272.76C191.432 272.769 191.441 272.778 191.451 272.787C191.472 272.807 191.492 272.826 191.512 272.845C191.525 272.857 191.536 272.868 191.548 272.88C191.565 272.895 191.581 272.911 191.597 272.926C191.623 272.951 191.649 272.976 191.674 273C191.649 273.025 191.622 273.05 191.595 273.076ZM192.851 272.623C192.833 272.602 192.732 272.496 192.558 272.322C192.414 272.179 192.22 271.991 191.979 271.768C191.97 271.76 191.962 271.753 191.954 271.745C191.869 271.667 191.779 271.585 191.684 271.499C191.665 271.483 191.647 271.467 191.628 271.45C190.547 270.484 188.799 269.076 186.58 267.813C186.58 267.813 186.58 267.813 186.58 267.813C186.58 267.813 186.58 267.813 186.58 267.813C183.297 265.946 180.05 265 176.929 265C172.365 265 168.277 267.075 165.652 268.815C165.028 269.228 164.458 269.64 163.947 270.033C162.352 268.753 159.899 267.363 156.767 267.363C155.668 267.363 154.533 267.535 153.393 267.876C153.16 267.945 153 268.16 153 268.405C153 268.649 153.16 268.864 153.394 268.934C156.857 269.964 157.929 272.377 158.152 273C157.927 273.627 156.854 276.036 153.393 277.067C153.16 277.136 153 277.352 153 277.596C153 277.841 153.16 278.056 153.394 278.125C154.535 278.465 155.67 278.637 156.767 278.637C159.898 278.637 162.352 277.247 163.947 275.967C164.458 276.36 165.029 276.772 165.652 277.185C168.277 278.925 172.365 281 176.929 281C180.05 281 183.297 280.054 186.58 278.187C189.989 276.247 192.287 273.962 192.763 273.47C192.812 273.419 192.842 273.387 192.852 273.377C193.049 273.165 193.049 272.835 192.851 272.623Z" fill="#5F64C8"/>
<path fill-rule="evenodd" clip-rule="evenodd" d="M185.644 271.169C184.902 271.169 184.301 271.773 184.301 272.517C184.301 273.262 184.902 273.865 185.644 273.865C186.385 273.865 186.986 273.262 186.986 272.517C186.986 271.773 186.385 271.169 185.644 271.169Z" fill="#5F64C8"/>
</g>
<g clip-path="url(#clip2)">
<path fill-rule="evenodd" clip-rule="evenodd" d="M82.1869 284C83.7289 282.507 89.803 277.104 96.9289 277.104C99.5921 277.104 102.368 277.849 105.192 279.316C101.919 281.335 99.8587 283.523 99.7659 283.623C99.5677 283.835 99.5677 284.165 99.7659 284.378C99.8587 284.477 101.919 286.665 105.192 288.685C102.368 290.151 99.5921 290.896 96.9289 290.896C89.8027 290.896 83.7282 285.492 82.1869 284ZM76.7671 288.533C76.3257 288.533 75.8765 288.502 75.4224 288.44C78.4896 286.858 79.2262 284.272 79.2605 284.145C79.2862 284.051 79.2862 283.95 79.2605 283.855C79.2262 283.729 78.4893 281.141 75.4214 279.56C75.8756 279.498 76.325 279.467 76.7671 279.467C79.4593 279.467 81.609 280.62 83.0608 281.738C81.7906 282.789 81.0543 283.572 81.0077 283.623C80.8096 283.835 80.8095 284.165 81.0077 284.377C81.0543 284.427 81.7907 285.211 83.0613 286.262C81.6087 287.38 79.4586 288.533 76.7671 288.533ZM111.595 284.076C111.592 284.079 111.589 284.082 111.586 284.085C111.561 284.109 111.537 284.132 111.511 284.157C111.502 284.165 111.493 284.173 111.485 284.181C111.463 284.202 111.441 284.223 111.419 284.244C111.408 284.254 111.398 284.264 111.387 284.273C111.365 284.294 111.343 284.315 111.32 284.336C111.308 284.348 111.294 284.361 111.281 284.373C111.259 284.393 111.238 284.413 111.216 284.433C111.201 284.447 111.186 284.461 111.171 284.474C111.149 284.495 111.126 284.515 111.103 284.536C111.088 284.55 111.072 284.564 111.056 284.578C111.033 284.6 111.009 284.621 110.985 284.643C110.968 284.658 110.951 284.674 110.934 284.689C110.91 284.71 110.885 284.732 110.861 284.754C110.843 284.77 110.825 284.786 110.807 284.802C110.781 284.825 110.755 284.847 110.729 284.87C110.71 284.887 110.691 284.904 110.672 284.92C110.646 284.943 110.619 284.966 110.593 284.989C110.572 285.007 110.551 285.026 110.529 285.044C110.503 285.067 110.476 285.089 110.449 285.112C110.427 285.131 110.405 285.15 110.383 285.169C110.355 285.192 110.328 285.215 110.3 285.239C110.277 285.259 110.253 285.279 110.229 285.299C110.201 285.322 110.173 285.345 110.145 285.369C110.12 285.389 110.095 285.41 110.07 285.431C110.042 285.454 110.013 285.478 109.985 285.501C109.958 285.523 109.932 285.544 109.905 285.566C109.876 285.59 109.847 285.613 109.818 285.637C109.79 285.659 109.763 285.681 109.735 285.704C109.705 285.728 109.675 285.752 109.645 285.776C109.616 285.798 109.588 285.821 109.559 285.844C109.529 285.868 109.498 285.892 109.467 285.916C109.437 285.939 109.408 285.962 109.378 285.986C109.346 286.01 109.315 286.034 109.283 286.059C109.252 286.082 109.222 286.106 109.191 286.13C109.159 286.154 109.126 286.179 109.093 286.204C109.062 286.228 109.03 286.252 108.998 286.276C108.966 286.3 108.933 286.324 108.9 286.349C108.867 286.374 108.834 286.398 108.8 286.423C108.767 286.448 108.734 286.472 108.701 286.496C108.666 286.521 108.632 286.547 108.597 286.572C108.564 286.596 108.531 286.62 108.498 286.644C108.461 286.67 108.425 286.696 108.388 286.722C108.355 286.746 108.321 286.77 108.287 286.793C108.25 286.82 108.213 286.846 108.176 286.872C108.142 286.896 108.107 286.919 108.073 286.943C108.035 286.97 107.996 286.997 107.957 287.023C107.924 287.046 107.889 287.07 107.855 287.093C107.815 287.12 107.775 287.147 107.734 287.175C107.701 287.197 107.667 287.22 107.633 287.242C107.591 287.27 107.549 287.298 107.507 287.326C107.474 287.347 107.442 287.368 107.409 287.39C107.364 287.419 107.319 287.448 107.274 287.477C107.245 287.496 107.215 287.515 107.185 287.534C107.136 287.565 107.087 287.597 107.037 287.628C107.016 287.641 106.995 287.655 106.974 287.668C106.767 287.797 106.554 287.926 106.338 288.053C106.328 288.059 106.319 288.065 106.309 288.07C103.668 286.524 101.724 284.758 100.944 284C101.724 283.242 103.668 281.476 106.309 279.93C106.334 279.945 106.36 279.96 106.385 279.975C106.576 280.088 106.764 280.202 106.948 280.317C106.978 280.335 107.007 280.353 107.036 280.372C107.081 280.4 107.125 280.428 107.17 280.457C107.204 280.479 107.239 280.501 107.273 280.523C107.316 280.55 107.357 280.577 107.399 280.604C107.434 280.627 107.47 280.65 107.505 280.673C107.547 280.701 107.587 280.728 107.628 280.755C107.663 280.778 107.698 280.801 107.732 280.824C107.773 280.852 107.812 280.879 107.852 280.906C107.887 280.929 107.921 280.952 107.955 280.976C107.994 281.002 108.032 281.029 108.07 281.055C108.105 281.079 108.139 281.103 108.173 281.127C108.211 281.153 108.248 281.18 108.286 281.206C108.319 281.229 108.352 281.253 108.385 281.276C108.423 281.303 108.461 281.33 108.498 281.357C108.53 281.38 108.561 281.403 108.592 281.425C108.629 281.452 108.666 281.479 108.702 281.505C108.734 281.528 108.765 281.551 108.796 281.574C108.831 281.6 108.866 281.627 108.902 281.653C108.932 281.676 108.963 281.698 108.993 281.721C109.028 281.747 109.062 281.773 109.097 281.799C109.126 281.822 109.155 281.844 109.184 281.866C109.219 281.892 109.252 281.918 109.286 281.944C109.314 281.966 109.343 281.988 109.37 282.01C109.404 282.036 109.438 282.062 109.472 282.089C109.498 282.109 109.524 282.13 109.55 282.15C109.584 282.177 109.617 282.203 109.65 282.229C109.675 282.25 109.701 282.27 109.726 282.29C109.758 282.316 109.79 282.342 109.821 282.367C109.847 282.387 109.871 282.407 109.896 282.428C109.927 282.453 109.958 282.478 109.989 282.503C110.012 282.522 110.036 282.542 110.059 282.561C110.09 282.586 110.121 282.612 110.151 282.637C110.173 282.655 110.194 282.673 110.216 282.691C110.246 282.717 110.277 282.742 110.306 282.767C110.327 282.785 110.347 282.802 110.368 282.819C110.397 282.844 110.427 282.869 110.456 282.894C110.475 282.91 110.494 282.927 110.513 282.943C110.542 282.968 110.571 282.993 110.599 283.017C110.617 283.033 110.635 283.048 110.653 283.064C110.681 283.088 110.708 283.113 110.736 283.136C110.753 283.151 110.769 283.166 110.786 283.181C110.813 283.205 110.84 283.229 110.866 283.252C110.882 283.266 110.898 283.28 110.913 283.294C110.939 283.317 110.965 283.34 110.99 283.362C111.005 283.376 111.02 283.389 111.035 283.403C111.059 283.425 111.084 283.447 111.108 283.469C111.121 283.481 111.133 283.492 111.146 283.504C111.171 283.527 111.196 283.55 111.221 283.572C111.231 283.581 111.24 283.59 111.25 283.599C111.275 283.623 111.3 283.646 111.324 283.668C111.335 283.678 111.345 283.687 111.355 283.697C111.378 283.718 111.4 283.739 111.422 283.76C111.432 283.769 111.441 283.778 111.451 283.787C111.472 283.807 111.492 283.826 111.512 283.845C111.525 283.857 111.536 283.868 111.548 283.88C111.565 283.895 111.581 283.911 111.597 283.926C111.623 283.951 111.649 283.976 111.674 284C111.649 284.025 111.622 284.05 111.595 284.076ZM112.851 283.623C112.833 283.602 112.732 283.496 112.558 283.322C112.414 283.179 112.22 282.991 111.979 282.768C111.97 282.76 111.962 282.753 111.954 282.745C111.869 282.667 111.779 282.585 111.684 282.499C111.665 282.483 111.647 282.467 111.628 282.45C110.547 281.484 108.799 280.076 106.58 278.813C106.58 278.813 106.58 278.813 106.58 278.813C106.58 278.813 106.58 278.813 106.58 278.813C103.297 276.946 100.05 276 96.9289 276C92.3647 276 88.2772 278.075 85.6517 279.815C85.0285 280.228 84.4581 280.64 83.9467 281.033C82.3523 279.753 79.8993 278.363 76.7671 278.363C75.6681 278.363 74.5329 278.535 73.3932 278.876C73.1598 278.945 72.9999 279.16 73 279.405C73.0001 279.649 73.1602 279.864 73.3936 279.934C76.8569 280.964 77.9286 283.377 78.1523 284C77.9271 284.627 76.8545 287.036 73.3934 288.067C73.16 288.136 73 288.352 73 288.596C73 288.841 73.1602 289.056 73.3937 289.125C74.535 289.465 75.67 289.637 76.7671 289.637C79.8985 289.637 82.3521 288.247 83.9471 286.967C84.4584 287.36 85.0286 287.772 85.6517 288.185C88.2772 289.925 92.3646 292 96.9289 292C100.05 292 103.297 291.054 106.58 289.187C109.989 287.247 112.287 284.962 112.763 284.47C112.812 284.419 112.842 284.387 112.852 284.377C113.049 284.165 113.049 283.835 112.851 283.623Z" fill="#5F64C8"/>
<path fill-rule="evenodd" clip-rule="evenodd" d="M105.644 282.169C104.902 282.169 104.301 282.773 104.301 283.517C104.301 284.262 104.902 284.865 105.644 284.865C106.385 284.865 106.986 284.262 106.986 283.517C106.986 282.773 106.385 282.169 105.644 282.169Z" fill="#5F64C8"/>
</g>
<g clip-path="url(#clip3)">
<path fill-rule="evenodd" clip-rule="evenodd" d="M182.187 246C183.729 244.507 189.803 239.104 196.929 239.104C199.592 239.104 202.368 239.849 205.192 241.316C201.919 243.335 199.859 245.523 199.766 245.623C199.568 245.835 199.568 246.165 199.766 246.378C199.859 246.477 201.919 248.665 205.192 250.685C202.368 252.151 199.592 252.896 196.929 252.896C189.803 252.896 183.728 247.492 182.187 246ZM176.767 250.533C176.326 250.533 175.877 250.502 175.422 250.44C178.49 248.858 179.226 246.272 179.26 246.145C179.286 246.051 179.286 245.95 179.26 245.855C179.226 245.729 178.489 243.141 175.421 241.56C175.876 241.498 176.325 241.467 176.767 241.467C179.459 241.467 181.609 242.62 183.061 243.738C181.791 244.789 181.054 245.572 181.008 245.623C180.81 245.835 180.81 246.165 181.008 246.377C181.054 246.427 181.791 247.211 183.061 248.262C181.609 249.38 179.459 250.533 176.767 250.533ZM211.595 246.076C211.592 246.079 211.589 246.082 211.586 246.085C211.561 246.109 211.537 246.132 211.511 246.157C211.502 246.165 211.493 246.173 211.485 246.181C211.463 246.202 211.441 246.223 211.419 246.244C211.408 246.254 211.398 246.264 211.387 246.273C211.365 246.294 211.343 246.315 211.32 246.336C211.308 246.348 211.294 246.361 211.281 246.373C211.259 246.393 211.238 246.413 211.216 246.433C211.201 246.447 211.186 246.461 211.171 246.474C211.149 246.495 211.126 246.515 211.103 246.536C211.088 246.55 211.072 246.564 211.056 246.578C211.033 246.6 211.009 246.621 210.985 246.643C210.968 246.658 210.951 246.674 210.934 246.689C210.91 246.71 210.885 246.732 210.861 246.754C210.843 246.77 210.825 246.786 210.807 246.802C210.781 246.825 210.755 246.847 210.729 246.87C210.71 246.887 210.691 246.904 210.672 246.92C210.646 246.943 210.619 246.966 210.593 246.989C210.572 247.007 210.551 247.026 210.529 247.044C210.503 247.067 210.476 247.089 210.449 247.112C210.427 247.131 210.405 247.15 210.383 247.169C210.355 247.192 210.328 247.215 210.3 247.239C210.277 247.259 210.253 247.279 210.229 247.299C210.201 247.322 210.173 247.345 210.145 247.369C210.12 247.389 210.095 247.41 210.07 247.431C210.042 247.454 210.013 247.478 209.985 247.501C209.958 247.523 209.932 247.544 209.905 247.566C209.876 247.59 209.847 247.613 209.818 247.637C209.79 247.659 209.763 247.681 209.735 247.704C209.705 247.728 209.675 247.752 209.645 247.776C209.616 247.798 209.588 247.821 209.559 247.844C209.529 247.868 209.498 247.892 209.467 247.916C209.437 247.939 209.408 247.962 209.378 247.986C209.346 248.01 209.315 248.034 209.283 248.059C209.252 248.082 209.222 248.106 209.191 248.13C209.159 248.154 209.126 248.179 209.093 248.204C209.062 248.228 209.03 248.252 208.998 248.276C208.966 248.3 208.933 248.324 208.9 248.349C208.867 248.374 208.834 248.398 208.8 248.423C208.767 248.448 208.734 248.472 208.701 248.496C208.666 248.521 208.632 248.547 208.597 248.572C208.564 248.596 208.531 248.62 208.498 248.644C208.461 248.67 208.425 248.696 208.388 248.722C208.355 248.746 208.321 248.77 208.287 248.793C208.25 248.82 208.213 248.846 208.176 248.872C208.142 248.896 208.107 248.919 208.073 248.943C208.035 248.97 207.996 248.997 207.957 249.023C207.924 249.046 207.889 249.07 207.855 249.093C207.815 249.12 207.775 249.147 207.734 249.175C207.701 249.197 207.667 249.22 207.633 249.242C207.591 249.27 207.549 249.298 207.507 249.326C207.474 249.347 207.442 249.368 207.409 249.39C207.364 249.419 207.319 249.448 207.274 249.477C207.245 249.496 207.215 249.515 207.185 249.534C207.136 249.565 207.087 249.597 207.037 249.628C207.016 249.641 206.995 249.655 206.974 249.668C206.767 249.797 206.554 249.926 206.338 250.053C206.328 250.059 206.319 250.065 206.309 250.07C203.668 248.524 201.724 246.758 200.944 246C201.724 245.242 203.668 243.476 206.309 241.93C206.334 241.945 206.36 241.96 206.385 241.975C206.576 242.088 206.764 242.202 206.948 242.317C206.978 242.335 207.007 242.353 207.036 242.372C207.081 242.4 207.125 242.428 207.17 242.457C207.204 242.479 207.239 242.501 207.273 242.523C207.316 242.55 207.357 242.577 207.399 242.604C207.434 242.627 207.47 242.65 207.505 242.673C207.547 242.701 207.587 242.728 207.628 242.755C207.663 242.778 207.698 242.801 207.732 242.824C207.773 242.852 207.812 242.879 207.852 242.906C207.887 242.929 207.921 242.952 207.955 242.976C207.994 243.002 208.032 243.029 208.07 243.055C208.105 243.079 208.139 243.103 208.173 243.127C208.211 243.153 208.248 243.18 208.286 243.206C208.319 243.229 208.352 243.253 208.385 243.276C208.423 243.303 208.461 243.33 208.498 243.357C208.53 243.38 208.561 243.403 208.592 243.425C208.629 243.452 208.666 243.479 208.702 243.505C208.734 243.528 208.765 243.551 208.796 243.574C208.831 243.6 208.866 243.627 208.902 243.653C208.932 243.676 208.963 243.698 208.993 243.721C209.028 243.747 209.062 243.773 209.097 243.799C209.126 243.822 209.155 243.844 209.184 243.866C209.219 243.892 209.252 243.918 209.286 243.944C209.314 243.966 209.343 243.988 209.37 244.01C209.404 244.036 209.438 244.062 209.472 244.089C209.498 244.109 209.524 244.13 209.55 244.15C209.584 244.177 209.617 244.203 209.65 244.229C209.675 244.25 209.701 244.27 209.726 244.29C209.758 244.316 209.79 244.342 209.821 244.367C209.847 244.387 209.871 244.407 209.896 244.428C209.927 244.453 209.958 244.478 209.989 244.503C210.012 244.522 210.036 244.542 210.059 244.561C210.09 244.586 210.121 244.612 210.151 244.637C210.173 244.655 210.194 244.673 210.216 244.691C210.246 244.717 210.277 244.742 210.306 244.767C210.327 244.785 210.347 244.802 210.368 244.819C210.397 244.844 210.427 244.869 210.456 244.894C210.475 244.91 210.494 244.927 210.513 244.943C210.542 244.968 210.571 244.993 210.599 245.017C210.617 245.033 210.635 245.048 210.653 245.064C210.681 245.088 210.708 245.113 210.736 245.136C210.753 245.151 210.769 245.166 210.786 245.181C210.813 245.205 210.84 245.229 210.866 245.252C210.882 245.266 210.898 245.28 210.913 245.294C210.939 245.317 210.965 245.34 210.99 245.362C211.005 245.376 211.02 245.389 211.035 245.403C211.059 245.425 211.084 245.447 211.108 245.469C211.121 245.481 211.133 245.492 211.146 245.504C211.171 245.527 211.196 245.55 211.221 245.572C211.231 245.581 211.24 245.59 211.25 245.599C211.275 245.623 211.3 245.646 211.324 245.668C211.335 245.678 211.345 245.687 211.355 245.697C211.378 245.718 211.4 245.739 211.422 245.76C211.432 245.769 211.441 245.778 211.451 245.787C211.472 245.807 211.492 245.826 211.512 245.845C211.525 245.857 211.536 245.868 211.548 245.88C211.565 245.895 211.581 245.911 211.597 245.926C211.623 245.951 211.649 245.976 211.674 246C211.649 246.025 211.622 246.05 211.595 246.076ZM212.851 245.623C212.833 245.602 212.732 245.496 212.558 245.322C212.414 245.179 212.22 244.991 211.979 244.768C211.97 244.76 211.962 244.753 211.954 244.745C211.869 244.667 211.779 244.585 211.684 244.499C211.665 244.483 211.647 244.467 211.628 244.45C210.547 243.484 208.799 242.076 206.58 240.813C206.58 240.813 206.58 240.813 206.58 240.813C206.58 240.813 206.58 240.813 206.58 240.813C203.297 238.946 200.05 238 196.929 238C192.365 238 188.277 240.075 185.652 241.815C185.028 242.228 184.458 242.64 183.947 243.033C182.352 241.753 179.899 240.363 176.767 240.363C175.668 240.363 174.533 240.535 173.393 240.876C173.16 240.945 173 241.16 173 241.405C173 241.649 173.16 241.864 173.394 241.934C176.857 242.964 177.929 245.377 178.152 246C177.927 246.627 176.854 249.036 173.393 250.067C173.16 250.136 173 250.352 173 250.596C173 250.841 173.16 251.056 173.394 251.125C174.535 251.465 175.67 251.637 176.767 251.637C179.898 251.637 182.352 250.247 183.947 248.967C184.458 249.36 185.029 249.772 185.652 250.185C188.277 251.925 192.365 254 196.929 254C200.05 254 203.297 253.054 206.58 251.187C209.989 249.247 212.287 246.962 212.763 246.47C212.812 246.419 212.842 246.387 212.852 246.377C213.049 246.165 213.049 245.835 212.851 245.623Z" fill="#5F64C8"/>
<path fill-rule="evenodd" clip-rule="evenodd" d="M205.644 244.169C204.902 244.169 204.301 244.773 204.301 245.517C204.301 246.262 204.902 246.865 205.644 246.865C206.385 246.865 206.986 246.262 206.986 245.517C206.986 244.773 206.385 244.169 205.644 244.169Z" fill="#5F64C8"/>
</g>
<g clip-path="url(#clip4)">
<path fill-rule="evenodd" clip-rule="evenodd" d="M87.4208 264.5C86.1486 263.287 81.1375 258.897 75.2586 258.897C73.0615 258.897 70.7714 259.502 68.4417 260.694C71.1421 262.335 72.8415 264.112 72.9182 264.193C73.0816 264.366 73.0816 264.634 72.9182 264.807C72.8415 264.888 71.142 266.665 68.4417 268.306C70.7714 269.498 73.0615 270.103 75.2586 270.103C81.1377 270.103 86.1492 265.713 87.4208 264.5ZM91.8921 268.183C92.2563 268.183 92.6269 268.158 93.0015 268.107C90.4711 266.822 89.8633 264.721 89.8351 264.618C89.8138 264.541 89.8138 264.46 89.8351 264.383C89.8633 264.28 90.4713 262.177 93.0024 260.892C92.6276 260.842 92.2568 260.817 91.8922 260.817C89.671 260.817 87.8975 261.754 86.6998 262.662C87.7477 263.516 88.3552 264.153 88.3936 264.193C88.5571 264.366 88.5571 264.634 88.3936 264.807C88.3552 264.847 87.7476 265.484 86.6994 266.338C87.8978 267.246 89.6717 268.183 91.8921 268.183ZM63.1592 264.562C63.1616 264.564 63.1643 264.567 63.1669 264.569C63.1868 264.588 63.2073 264.608 63.2288 264.628C63.2355 264.634 63.2429 264.641 63.2498 264.647C63.2677 264.664 63.2858 264.681 63.3047 264.699C63.313 264.706 63.3219 264.714 63.3304 264.722C63.3485 264.739 63.3667 264.756 63.3856 264.773C63.3962 264.783 63.4074 264.793 63.4183 264.803C63.436 264.819 63.4535 264.835 63.4719 264.852C63.484 264.863 63.4968 264.874 63.5092 264.885C63.5273 264.902 63.5457 264.918 63.5647 264.935C63.5772 264.947 63.5904 264.959 63.6034 264.97C63.6227 264.987 63.6422 265.005 63.6622 265.022C63.676 265.035 63.6903 265.047 63.7046 265.06C63.7244 265.077 63.7445 265.095 63.7649 265.113C63.7795 265.126 63.7946 265.139 63.8096 265.152C63.8307 265.17 63.852 265.189 63.8738 265.207C63.8892 265.221 63.9051 265.234 63.9208 265.248C63.9423 265.266 63.964 265.285 63.9859 265.304C64.0033 265.318 64.0208 265.333 64.0383 265.348C64.0601 265.367 64.082 265.385 64.1042 265.404C64.1223 265.419 64.1409 265.435 64.1593 265.45C64.1817 265.469 64.2043 265.488 64.2273 265.507C64.2466 265.523 64.2664 265.539 64.2861 265.555C64.3089 265.574 64.3319 265.593 64.3551 265.612C64.3756 265.629 64.3965 265.646 64.4173 265.663C64.4407 265.682 64.464 265.701 64.4877 265.72C64.5094 265.737 64.5313 265.755 64.5533 265.773C64.5771 265.792 64.6011 265.811 64.6254 265.83C64.648 265.848 64.6708 265.866 64.6938 265.884C64.7183 265.904 64.7431 265.923 64.768 265.943C64.7914 265.961 64.8151 265.979 64.8388 265.998C64.8639 266.018 64.8894 266.037 64.9149 266.057C64.9392 266.076 64.9636 266.094 64.9885 266.113C65.0143 266.133 65.0404 266.153 65.0665 266.173C65.0918 266.192 65.1171 266.211 65.1428 266.231C65.1691 266.25 65.1959 266.27 65.2229 266.291C65.249 266.31 65.2751 266.33 65.3017 266.349C65.3283 266.369 65.3553 266.389 65.3823 266.408C65.4097 266.429 65.4372 266.449 65.465 266.469C65.492 266.489 65.5193 266.508 65.5467 266.528C65.5754 266.549 65.6039 266.569 65.6327 266.59C65.6597 266.609 65.6871 266.629 65.7145 266.648C65.7443 266.669 65.7743 266.69 65.8045 266.712C65.832 266.731 65.86 266.75 65.8878 266.77C65.9185 266.791 65.9489 266.812 65.9799 266.834C66.0079 266.853 66.0364 266.872 66.0647 266.891C66.0965 266.913 66.128 266.935 66.1603 266.956C66.1879 266.975 66.2162 266.994 66.2443 267.013C66.2775 267.035 66.3105 267.057 66.344 267.079C66.3717 267.098 66.3997 267.116 66.4276 267.134C66.4624 267.157 66.497 267.18 66.5321 267.202C66.5586 267.22 66.5857 267.237 66.6125 267.254C66.6495 267.278 66.6866 267.302 66.7241 267.325C66.7482 267.341 66.7729 267.356 66.7973 267.371C66.8378 267.397 66.8784 267.422 66.9195 267.448C66.9368 267.459 66.9544 267.469 66.9717 267.48C67.1426 267.585 67.3176 267.69 67.4964 267.793C67.5044 267.798 67.5121 267.802 67.52 267.807C69.6991 266.551 71.3027 265.116 71.9463 264.5C71.3027 263.884 69.6991 262.449 67.52 261.193C67.499 261.205 67.4784 261.218 67.4575 261.23C67.2994 261.321 67.1443 261.414 66.9926 261.507C66.9684 261.522 66.9441 261.537 66.9202 261.552C66.883 261.575 66.8465 261.598 66.8098 261.621C66.7813 261.639 66.7527 261.657 66.7245 261.675C66.6897 261.697 66.6553 261.719 66.6208 261.741C66.5916 261.76 66.562 261.778 66.5331 261.797C66.4989 261.819 66.4654 261.841 66.4316 261.864C66.4029 261.882 66.3742 261.901 66.3458 261.92C66.3125 261.942 66.2798 261.964 66.2469 261.986C66.2185 262.005 66.19 262.024 66.1619 262.043C66.13 262.064 66.0987 262.086 66.0672 262.107C66.0387 262.127 66.0101 262.146 65.982 262.165C65.9507 262.187 65.92 262.208 65.8891 262.23C65.8617 262.249 65.8342 262.268 65.8071 262.287C65.7757 262.309 65.7448 262.331 65.714 262.353C65.6879 262.371 65.6619 262.39 65.6362 262.408C65.6057 262.43 65.5756 262.452 65.5455 262.473C65.5198 262.492 65.4941 262.51 65.4687 262.529C65.4393 262.55 65.4101 262.572 65.3811 262.593C65.356 262.611 65.3308 262.63 65.306 262.648C65.2771 262.67 65.2486 262.691 65.2202 262.712C65.196 262.73 65.1718 262.748 65.1478 262.766C65.1196 262.788 65.0917 262.809 65.0641 262.83C65.0407 262.847 65.0174 262.865 64.9944 262.883C64.9663 262.904 64.9386 262.926 64.911 262.947C64.8892 262.964 64.8675 262.981 64.846 262.997C64.8184 263.019 64.7911 263.04 64.764 263.061C64.7428 263.078 64.7216 263.094 64.7008 263.111C64.6743 263.132 64.6481 263.153 64.6223 263.173C64.6015 263.19 64.5811 263.206 64.5606 263.222C64.5349 263.243 64.5095 263.263 64.4842 263.284C64.4647 263.3 64.4455 263.315 64.4263 263.331C64.4008 263.351 64.3753 263.372 64.3504 263.393C64.3322 263.407 64.3146 263.422 64.2969 263.437C64.2717 263.457 64.2467 263.478 64.2222 263.498C64.2052 263.512 64.1885 263.526 64.1718 263.54C64.1473 263.561 64.123 263.581 64.099 263.601C64.083 263.615 64.0674 263.628 64.0517 263.641C64.0279 263.662 64.0043 263.682 63.9811 263.701C63.966 263.714 63.9512 263.727 63.9364 263.74C63.9134 263.759 63.8905 263.779 63.8682 263.798C63.8541 263.81 63.8403 263.823 63.8264 263.835C63.8041 263.854 63.782 263.873 63.7604 263.892C63.7471 263.903 63.7343 263.915 63.7214 263.926C63.7001 263.945 63.6788 263.964 63.6582 263.982C63.6457 263.993 63.6337 264.004 63.6214 264.015C63.601 264.033 63.5805 264.051 63.5607 264.069C63.55 264.078 63.5399 264.088 63.5296 264.097C63.5088 264.116 63.488 264.134 63.468 264.152C63.4597 264.16 63.4518 264.167 63.4438 264.175C63.423 264.193 63.4024 264.212 63.3825 264.23C63.3737 264.238 63.3655 264.246 63.3569 264.254C63.3383 264.271 63.3196 264.288 63.3019 264.305C63.2936 264.312 63.286 264.319 63.278 264.327C63.2608 264.343 63.2437 264.359 63.2274 264.374C63.217 264.384 63.2075 264.393 63.1975 264.402C63.184 264.415 63.1704 264.428 63.1577 264.44C63.1357 264.461 63.1145 264.481 63.0942 264.5C63.1149 264.52 63.1365 264.541 63.1592 264.562ZM62.1225 264.193C62.1381 264.177 62.2207 264.09 62.3649 263.949C62.4834 263.833 62.6438 263.68 62.8427 263.499C62.8495 263.493 62.8564 263.487 62.8633 263.48C62.9329 263.417 63.0073 263.35 63.086 263.281C63.1012 263.267 63.1163 263.254 63.1318 263.241C64.024 262.456 65.4658 261.312 67.2964 260.286C67.2965 260.286 67.2965 260.286 67.2965 260.286C67.2965 260.286 67.2965 260.286 67.2965 260.286C70.0049 258.769 72.6838 258 75.2586 258C79.0241 258 82.3963 259.686 84.5623 261.1C85.0765 261.436 85.547 261.77 85.969 262.089C87.2844 261.049 89.308 259.92 91.8921 259.92C92.7988 259.92 93.7354 260.06 94.6757 260.336C94.8682 260.393 95.0001 260.568 95 260.766C95 260.965 94.8679 261.14 94.6753 261.196C91.8181 262.033 90.9339 263.994 90.7494 264.5C90.9351 265.009 91.82 266.967 94.6754 267.804C94.868 267.861 95 268.036 95 268.234C95 268.433 94.8679 268.608 94.6752 268.664C93.7337 268.94 92.7972 269.08 91.8921 269.08C89.3087 269.08 87.2845 267.95 85.9686 266.911C85.5468 267.23 85.0764 267.564 84.5623 267.9C82.3963 269.314 79.0242 271 75.2586 271C72.6837 271 70.0048 270.231 67.2964 268.714C64.4838 267.138 62.5881 265.281 62.1955 264.882C62.1549 264.84 62.1304 264.815 62.1225 264.807C61.9592 264.634 61.9592 264.366 62.1225 264.193Z" fill="#5F64C8"/>
<path fill-rule="evenodd" clip-rule="evenodd" d="M68.069 263.013C68.6806 263.013 69.1765 263.503 69.1765 264.108C69.1765 264.713 68.6807 265.203 68.069 265.203C67.4575 265.203 66.9617 264.713 66.9617 264.108C66.9617 263.503 67.4575 263.013 68.069 263.013Z" fill="#5F64C8"/>
</g>
<g clip-path="url(#clip5)">
<path fill-rule="evenodd" clip-rule="evenodd" d="M258.421 237.5C257.149 236.287 252.137 231.897 246.259 231.897C244.061 231.897 241.771 232.502 239.442 233.694C242.142 235.335 243.842 237.112 243.918 237.193C244.082 237.366 244.082 237.634 243.918 237.807C243.842 237.888 242.142 239.665 239.442 241.306C241.771 242.498 244.061 243.103 246.259 243.103C252.138 243.103 257.149 238.713 258.421 237.5ZM262.892 241.183C263.256 241.183 263.627 241.158 264.002 241.107C261.471 239.822 260.863 237.721 260.835 237.618C260.814 237.541 260.814 237.46 260.835 237.383C260.863 237.28 261.471 235.177 264.002 233.892C263.628 233.842 263.257 233.817 262.892 233.817C260.671 233.817 258.898 234.754 257.7 235.662C258.748 236.516 259.355 237.153 259.394 237.193C259.557 237.366 259.557 237.634 259.394 237.807C259.355 237.847 258.748 238.484 257.699 239.338C258.898 240.246 260.672 241.183 262.892 241.183ZM234.159 237.562C234.162 237.564 234.164 237.567 234.167 237.569C234.187 237.588 234.207 237.608 234.229 237.628C234.236 237.634 234.243 237.641 234.25 237.647C234.268 237.664 234.286 237.681 234.305 237.699C234.313 237.706 234.322 237.714 234.33 237.722C234.349 237.739 234.367 237.756 234.386 237.773C234.396 237.783 234.407 237.793 234.418 237.803C234.436 237.819 234.454 237.835 234.472 237.852C234.484 237.863 234.497 237.874 234.509 237.885C234.527 237.902 234.546 237.918 234.565 237.935C234.577 237.947 234.59 237.959 234.603 237.97C234.623 237.987 234.642 238.005 234.662 238.022C234.676 238.035 234.69 238.047 234.705 238.06C234.724 238.077 234.744 238.095 234.765 238.113C234.78 238.126 234.795 238.139 234.81 238.152C234.831 238.17 234.852 238.189 234.874 238.207C234.889 238.221 234.905 238.234 234.921 238.248C234.942 238.266 234.964 238.285 234.986 238.304C235.003 238.318 235.021 238.333 235.038 238.348C235.06 238.367 235.082 238.385 235.104 238.404C235.122 238.419 235.141 238.435 235.159 238.45C235.182 238.469 235.204 238.488 235.227 238.507C235.247 238.523 235.266 238.539 235.286 238.555C235.309 238.574 235.332 238.593 235.355 238.612C235.376 238.629 235.397 238.646 235.417 238.663C235.441 238.682 235.464 238.701 235.488 238.72C235.509 238.737 235.531 238.755 235.553 238.773C235.577 238.792 235.601 238.811 235.625 238.83C235.648 238.848 235.671 238.866 235.694 238.884C235.718 238.904 235.743 238.923 235.768 238.943C235.791 238.961 235.815 238.979 235.839 238.998C235.864 239.018 235.889 239.037 235.915 239.057C235.939 239.076 235.964 239.094 235.989 239.113C236.014 239.133 236.04 239.153 236.066 239.173C236.092 239.192 236.117 239.211 236.143 239.231C236.169 239.25 236.196 239.27 236.223 239.291C236.249 239.31 236.275 239.33 236.302 239.349C236.328 239.369 236.355 239.389 236.382 239.408C236.41 239.429 236.437 239.449 236.465 239.469C236.492 239.489 236.519 239.508 236.547 239.528C236.575 239.549 236.604 239.569 236.633 239.59C236.66 239.609 236.687 239.629 236.714 239.648C236.744 239.669 236.774 239.69 236.805 239.712C236.832 239.731 236.86 239.75 236.888 239.77C236.918 239.791 236.949 239.812 236.98 239.834C237.008 239.853 237.036 239.872 237.065 239.891C237.096 239.913 237.128 239.935 237.16 239.956C237.188 239.975 237.216 239.994 237.244 240.013C237.277 240.035 237.31 240.057 237.344 240.079C237.372 240.098 237.4 240.116 237.428 240.134C237.462 240.157 237.497 240.18 237.532 240.202C237.559 240.22 237.586 240.237 237.612 240.254C237.65 240.278 237.687 240.302 237.724 240.325C237.748 240.341 237.773 240.356 237.797 240.371C237.838 240.397 237.878 240.422 237.919 240.448C237.937 240.459 237.954 240.469 237.972 240.48C238.143 240.585 238.318 240.69 238.496 240.793C238.504 240.798 238.512 240.802 238.52 240.807C240.699 239.551 242.303 238.116 242.946 237.5C242.303 236.884 240.699 235.449 238.52 234.193C238.499 234.205 238.478 234.218 238.457 234.23C238.299 234.321 238.144 234.414 237.993 234.507C237.968 234.522 237.944 234.537 237.92 234.552C237.883 234.575 237.846 234.598 237.81 234.621C237.781 234.639 237.753 234.657 237.724 234.675C237.69 234.697 237.655 234.719 237.621 234.741C237.592 234.76 237.562 234.778 237.533 234.797C237.499 234.819 237.465 234.841 237.432 234.864C237.403 234.882 237.374 234.901 237.346 234.92C237.313 234.942 237.28 234.964 237.247 234.986C237.218 235.005 237.19 235.024 237.162 235.043C237.13 235.064 237.099 235.086 237.067 235.107C237.039 235.127 237.01 235.146 236.982 235.165C236.951 235.187 236.92 235.208 236.889 235.23C236.862 235.249 236.834 235.268 236.807 235.287C236.776 235.309 236.745 235.331 236.714 235.353C236.688 235.371 236.662 235.39 236.636 235.408C236.606 235.43 236.576 235.452 236.546 235.473C236.52 235.492 236.494 235.51 236.469 235.529C236.439 235.55 236.41 235.572 236.381 235.593C236.356 235.611 236.331 235.63 236.306 235.648C236.277 235.67 236.249 235.691 236.22 235.712C236.196 235.73 236.172 235.748 236.148 235.766C236.12 235.788 236.092 235.809 236.064 235.83C236.041 235.847 236.017 235.865 235.994 235.883C235.966 235.904 235.939 235.926 235.911 235.947C235.889 235.964 235.867 235.981 235.846 235.997C235.818 236.019 235.791 236.04 235.764 236.061C235.743 236.078 235.722 236.094 235.701 236.111C235.674 236.132 235.648 236.153 235.622 236.173C235.602 236.19 235.581 236.206 235.561 236.222C235.535 236.243 235.509 236.263 235.484 236.284C235.465 236.3 235.446 236.315 235.426 236.331C235.401 236.351 235.375 236.372 235.35 236.393C235.332 236.407 235.315 236.422 235.297 236.437C235.272 236.457 235.247 236.478 235.222 236.498C235.205 236.512 235.189 236.526 235.172 236.54C235.147 236.561 235.123 236.581 235.099 236.601C235.083 236.615 235.067 236.628 235.052 236.641C235.028 236.662 235.004 236.682 234.981 236.701C234.966 236.714 234.951 236.727 234.936 236.74C234.913 236.759 234.891 236.779 234.868 236.798C234.854 236.81 234.84 236.823 234.826 236.835C234.804 236.854 234.782 236.873 234.76 236.892C234.747 236.903 234.734 236.915 234.721 236.926C234.7 236.945 234.679 236.964 234.658 236.982C234.646 236.993 234.634 237.004 234.621 237.015C234.601 237.033 234.581 237.051 234.561 237.069C234.55 237.078 234.54 237.088 234.53 237.097C234.509 237.116 234.488 237.134 234.468 237.152C234.46 237.16 234.452 237.167 234.444 237.175C234.423 237.193 234.402 237.212 234.383 237.23C234.374 237.238 234.365 237.246 234.357 237.254C234.338 237.271 234.32 237.288 234.302 237.305C234.294 237.312 234.286 237.319 234.278 237.327C234.261 237.343 234.244 237.359 234.227 237.374C234.217 237.384 234.207 237.393 234.197 237.402C234.184 237.415 234.17 237.428 234.158 237.44C234.136 237.461 234.114 237.481 234.094 237.5C234.115 237.52 234.137 237.541 234.159 237.562ZM233.123 237.193C233.138 237.177 233.221 237.09 233.365 236.949C233.483 236.833 233.644 236.68 233.843 236.499C233.85 236.493 233.856 236.487 233.863 236.48C233.933 236.417 234.007 236.35 234.086 236.281C234.101 236.267 234.116 236.254 234.132 236.241C235.024 235.456 236.466 234.312 238.296 233.286C238.296 233.286 238.297 233.286 238.297 233.286C238.297 233.286 238.297 233.286 238.297 233.286C241.005 231.769 243.684 231 246.259 231C250.024 231 253.396 232.686 255.562 234.1C256.076 234.436 256.547 234.77 256.969 235.089C258.284 234.049 260.308 232.92 262.892 232.92C263.799 232.92 264.735 233.06 265.676 233.336C265.868 233.393 266 233.568 266 233.766C266 233.965 265.868 234.14 265.675 234.196C262.818 235.033 261.934 236.994 261.749 237.5C261.935 238.009 262.82 239.967 265.675 240.804C265.868 240.861 266 241.036 266 241.234C266 241.433 265.868 241.608 265.675 241.664C264.734 241.94 263.797 242.08 262.892 242.08C260.309 242.08 258.284 240.95 256.969 239.911C256.547 240.23 256.076 240.564 255.562 240.9C253.396 242.314 250.024 244 246.259 244C243.684 244 241.005 243.231 238.296 241.714C235.484 240.138 233.588 238.281 233.196 237.882C233.155 237.84 233.13 237.815 233.122 237.807C232.959 237.634 232.959 237.366 233.123 237.193Z" fill="#5F64C8"/>
<path fill-rule="evenodd" clip-rule="evenodd" d="M239.069 236.013C239.681 236.013 240.177 236.503 240.177 237.108C240.177 237.713 239.681 238.203 239.069 238.203C238.458 238.203 237.962 237.713 237.962 237.108C237.962 236.503 238.458 236.013 239.069 236.013Z" fill="#5F64C8"/>
</g>
<g clip-path="url(#clip6)">
<path fill-rule="evenodd" clip-rule="evenodd" d="M264.187 266C265.729 264.507 271.803 259.104 278.929 259.104C281.592 259.104 284.368 259.849 287.192 261.316C283.919 263.335 281.859 265.523 281.766 265.623C281.568 265.835 281.568 266.165 281.766 266.378C281.859 266.477 283.919 268.665 287.192 270.685C284.368 272.151 281.592 272.896 278.929 272.896C271.803 272.896 265.728 267.492 264.187 266ZM258.767 270.533C258.326 270.533 257.877 270.502 257.422 270.44C260.49 268.858 261.226 266.272 261.26 266.145C261.286 266.051 261.286 265.95 261.26 265.855C261.226 265.729 260.489 263.141 257.421 261.56C257.876 261.498 258.325 261.467 258.767 261.467C261.459 261.467 263.609 262.62 265.061 263.738C263.791 264.789 263.054 265.572 263.008 265.623C262.81 265.835 262.81 266.165 263.008 266.377C263.054 266.427 263.791 267.211 265.061 268.262C263.609 269.38 261.459 270.533 258.767 270.533ZM293.595 266.076C293.592 266.079 293.589 266.082 293.586 266.085C293.561 266.109 293.537 266.132 293.511 266.157C293.502 266.165 293.493 266.173 293.485 266.181C293.463 266.202 293.441 266.223 293.419 266.244C293.408 266.254 293.398 266.264 293.387 266.273C293.365 266.294 293.343 266.315 293.32 266.336C293.308 266.348 293.294 266.361 293.281 266.373C293.259 266.393 293.238 266.413 293.216 266.433C293.201 266.447 293.186 266.461 293.171 266.474C293.149 266.495 293.126 266.515 293.103 266.536C293.088 266.55 293.072 266.564 293.056 266.578C293.033 266.6 293.009 266.621 292.985 266.643C292.968 266.658 292.951 266.674 292.934 266.689C292.91 266.71 292.885 266.732 292.861 266.754C292.843 266.77 292.825 266.786 292.807 266.802C292.781 266.825 292.755 266.847 292.729 266.87C292.71 266.887 292.691 266.904 292.672 266.92C292.646 266.943 292.619 266.966 292.593 266.989C292.572 267.007 292.551 267.026 292.529 267.044C292.503 267.067 292.476 267.089 292.449 267.112C292.427 267.131 292.405 267.15 292.383 267.169C292.355 267.192 292.328 267.215 292.3 267.239C292.277 267.259 292.253 267.279 292.229 267.299C292.201 267.322 292.173 267.345 292.145 267.369C292.12 267.389 292.095 267.41 292.07 267.431C292.042 267.454 292.013 267.478 291.985 267.501C291.958 267.523 291.932 267.544 291.905 267.566C291.876 267.59 291.847 267.613 291.818 267.637C291.79 267.659 291.763 267.681 291.735 267.704C291.705 267.728 291.675 267.752 291.645 267.776C291.616 267.798 291.588 267.821 291.559 267.844C291.529 267.868 291.498 267.892 291.467 267.916C291.437 267.939 291.408 267.962 291.378 267.986C291.346 268.01 291.315 268.034 291.283 268.059C291.252 268.082 291.222 268.106 291.191 268.13C291.159 268.154 291.126 268.179 291.093 268.204C291.062 268.228 291.03 268.252 290.998 268.276C290.966 268.3 290.933 268.324 290.9 268.349C290.867 268.374 290.834 268.398 290.8 268.423C290.767 268.448 290.734 268.472 290.701 268.496C290.666 268.521 290.632 268.547 290.597 268.572C290.564 268.596 290.531 268.62 290.498 268.644C290.461 268.67 290.425 268.696 290.388 268.722C290.355 268.746 290.321 268.77 290.287 268.793C290.25 268.82 290.213 268.846 290.176 268.872C290.142 268.896 290.107 268.919 290.073 268.943C290.035 268.97 289.996 268.997 289.957 269.023C289.924 269.046 289.889 269.07 289.855 269.093C289.815 269.12 289.775 269.147 289.734 269.175C289.701 269.197 289.667 269.22 289.633 269.242C289.591 269.27 289.549 269.298 289.507 269.326C289.474 269.347 289.442 269.368 289.409 269.39C289.364 269.419 289.319 269.448 289.274 269.477C289.245 269.496 289.215 269.515 289.185 269.534C289.136 269.565 289.087 269.597 289.037 269.628C289.016 269.641 288.995 269.655 288.974 269.668C288.767 269.797 288.554 269.926 288.338 270.053C288.328 270.059 288.319 270.065 288.309 270.07C285.668 268.524 283.724 266.758 282.944 266C283.724 265.242 285.668 263.476 288.309 261.93C288.334 261.945 288.36 261.96 288.385 261.975C288.576 262.088 288.764 262.202 288.948 262.317C288.978 262.335 289.007 262.353 289.036 262.372C289.081 262.4 289.125 262.428 289.17 262.457C289.204 262.479 289.239 262.501 289.273 262.523C289.316 262.55 289.357 262.577 289.399 262.604C289.434 262.627 289.47 262.65 289.505 262.673C289.547 262.701 289.587 262.728 289.628 262.755C289.663 262.778 289.698 262.801 289.732 262.824C289.773 262.852 289.812 262.879 289.852 262.906C289.887 262.929 289.921 262.952 289.955 262.976C289.994 263.002 290.032 263.029 290.07 263.055C290.105 263.079 290.139 263.103 290.173 263.127C290.211 263.153 290.248 263.18 290.286 263.206C290.319 263.229 290.352 263.253 290.385 263.276C290.423 263.303 290.461 263.33 290.498 263.357C290.53 263.38 290.561 263.403 290.592 263.425C290.629 263.452 290.666 263.479 290.702 263.505C290.734 263.528 290.765 263.551 290.796 263.574C290.831 263.6 290.866 263.627 290.902 263.653C290.932 263.676 290.963 263.698 290.993 263.721C291.028 263.747 291.062 263.773 291.097 263.799C291.126 263.822 291.155 263.844 291.184 263.866C291.219 263.892 291.252 263.918 291.286 263.944C291.314 263.966 291.343 263.988 291.37 264.01C291.404 264.036 291.438 264.062 291.472 264.089C291.498 264.109 291.524 264.13 291.55 264.15C291.584 264.177 291.617 264.203 291.65 264.229C291.675 264.25 291.701 264.27 291.726 264.29C291.758 264.316 291.79 264.342 291.821 264.367C291.847 264.387 291.871 264.407 291.896 264.428C291.927 264.453 291.958 264.478 291.989 264.503C292.012 264.522 292.036 264.542 292.059 264.561C292.09 264.586 292.121 264.612 292.151 264.637C292.173 264.655 292.194 264.673 292.216 264.691C292.246 264.717 292.277 264.742 292.306 264.767C292.327 264.785 292.347 264.802 292.368 264.819C292.397 264.844 292.427 264.869 292.456 264.894C292.475 264.91 292.494 264.927 292.513 264.943C292.542 264.968 292.571 264.993 292.599 265.017C292.617 265.033 292.635 265.048 292.653 265.064C292.681 265.088 292.708 265.113 292.736 265.136C292.753 265.151 292.769 265.166 292.786 265.181C292.813 265.205 292.84 265.229 292.866 265.252C292.882 265.266 292.898 265.28 292.913 265.294C292.939 265.317 292.965 265.34 292.99 265.362C293.005 265.376 293.02 265.389 293.035 265.403C293.059 265.425 293.084 265.447 293.108 265.469C293.121 265.481 293.133 265.492 293.146 265.504C293.171 265.527 293.196 265.55 293.221 265.572C293.231 265.581 293.24 265.59 293.25 265.599C293.275 265.623 293.3 265.646 293.324 265.668C293.335 265.678 293.345 265.687 293.355 265.697C293.378 265.718 293.4 265.739 293.422 265.76C293.432 265.769 293.441 265.778 293.451 265.787C293.472 265.807 293.492 265.826 293.512 265.845C293.525 265.857 293.536 265.868 293.548 265.88C293.565 265.895 293.581 265.911 293.597 265.926C293.623 265.951 293.649 265.976 293.674 266C293.649 266.025 293.622 266.05 293.595 266.076ZM294.851 265.623C294.833 265.602 294.732 265.496 294.558 265.322C294.414 265.179 294.22 264.991 293.979 264.768C293.97 264.76 293.962 264.753 293.954 264.745C293.869 264.667 293.779 264.585 293.684 264.499C293.665 264.483 293.647 264.467 293.628 264.45C292.547 263.484 290.799 262.076 288.58 260.813C288.58 260.813 288.58 260.813 288.58 260.813C288.58 260.813 288.58 260.813 288.58 260.813C285.297 258.946 282.05 258 278.929 258C274.365 258 270.277 260.075 267.652 261.815C267.028 262.228 266.458 262.64 265.947 263.033C264.352 261.753 261.899 260.363 258.767 260.363C257.668 260.363 256.533 260.535 255.393 260.876C255.16 260.945 255 261.16 255 261.405C255 261.649 255.16 261.864 255.394 261.934C258.857 262.964 259.929 265.377 260.152 266C259.927 266.627 258.854 269.036 255.393 270.067C255.16 270.136 255 270.352 255 270.596C255 270.841 255.16 271.056 255.394 271.125C256.535 271.465 257.67 271.637 258.767 271.637C261.898 271.637 264.352 270.247 265.947 268.967C266.458 269.36 267.029 269.772 267.652 270.185C270.277 271.925 274.365 274 278.929 274C282.05 274 285.297 273.054 288.58 271.187C291.989 269.247 294.287 266.962 294.763 266.47C294.812 266.419 294.842 266.387 294.852 266.377C295.049 266.165 295.049 265.835 294.851 265.623Z" fill="#5F64C8"/>
<path fill-rule="evenodd" clip-rule="evenodd" d="M287.644 264.169C286.902 264.169 286.301 264.773 286.301 265.517C286.301 266.262 286.902 266.865 287.644 266.865C288.385 266.865 288.986 266.262 288.986 265.517C288.986 264.773 288.385 264.169 287.644 264.169Z" fill="#5F64C8"/>
</g>
<defs>
<filter id="filter0_d" x="134.5" y="259" width="93" height="50.5" filterUnits="userSpaceOnUse" color-interpolation-filters="sRGB">
<feFlood flood-opacity="0" result="BackgroundImageFix"/>
<feColorMatrix in="SourceAlpha" type="matrix" values="0 0 0 0 0 0 0 0 0 0 0 0 0 0 0 0 0 0 127 0"/>
<feOffset dy="4"/>
<feGaussianBlur stdDeviation="2"/>
<feColorMatrix type="matrix" values="0 0 0 0 0 0 0 0 0 0.741176 0 0 0 0 0.301961 0 0 0 0.28 0"/>
<feBlend mode="normal" in2="BackgroundImageFix" result="effect1_dropShadow"/>
<feBlend mode="normal" in="SourceGraphic" in2="effect1_dropShadow" result="shape"/>
</filter>
<filter id="filter1_d" x="40.5" y="259" width="93" height="50.5" filterUnits="userSpaceOnUse" color-interpolation-filters="sRGB">
<feFlood flood-opacity="0" result="BackgroundImageFix"/>
<feColorMatrix in="SourceAlpha" type="matrix" values="0 0 0 0 0 0 0 0 0 0 0 0 0 0 0 0 0 0 127 0"/>
<feOffset dy="4"/>
<feGaussianBlur stdDeviation="2"/>
<feColorMatrix type="matrix" values="0 0 0 0 0 0 0 0 0 0.741176 0 0 0 0 0.301961 0 0 0 0.28 0"/>
<feBlend mode="normal" in2="BackgroundImageFix" result="effect1_dropShadow"/>
<feBlend mode="normal" in="SourceGraphic" in2="effect1_dropShadow" result="shape"/>
</filter>
<filter id="filter2_d" x="228.5" y="259" width="93" height="50.5" filterUnits="userSpaceOnUse" color-interpolation-filters="sRGB">
<feFlood flood-opacity="0" result="BackgroundImageFix"/>
<feColorMatrix in="SourceAlpha" type="matrix" values="0 0 0 0 0 0 0 0 0 0 0 0 0 0 0 0 0 0 127 0"/>
<feOffset dy="4"/>
<feGaussianBlur stdDeviation="2"/>
<feColorMatrix type="matrix" values="0 0 0 0 0 0 0 0 0 0.741176 0 0 0 0 0.301961 0 0 0 0.28 0"/>
<feBlend mode="normal" in2="BackgroundImageFix" result="effect1_dropShadow"/>
<feBlend mode="normal" in="SourceGraphic" in2="effect1_dropShadow" result="shape"/>
</filter>
<clipPath id="clip0">
<rect width="40" height="16" fill="white" transform="translate(93 231)"/>
</clipPath>
<clipPath id="clip1">
<rect width="40" height="16" fill="white" transform="translate(153 265)"/>
</clipPath>
<clipPath id="clip2">
<rect width="40" height="16" fill="white" transform="translate(73 276)"/>
</clipPath>
<clipPath id="clip3">
<rect width="40" height="16" fill="white" transform="translate(173 238)"/>
</clipPath>
<clipPath id="clip4">
<rect width="33" height="13" fill="white" transform="matrix(-1 0 0 1 95 258)"/>
</clipPath>
<clipPath id="clip5">
<rect width="33" height="13" fill="white" transform="matrix(-1 0 0 1 266 231)"/>
</clipPath>
<clipPath id="clip6">
<rect width="40" height="16" fill="white" transform="translate(255 258)"/>
</clipPath>
</defs>
</svg>
