<svg width="347" height="343" viewBox="0 0 347 343" fill="none" xmlns="http://www.w3.org/2000/svg">
<circle cx="182.209" cy="178.209" r="163.709" stroke="#4E5193"/>
<g filter="url(#filter0_d)">
<circle cx="189.878" cy="298.659" r="3.56011" stroke="#4E5193"/>
</g>
<g filter="url(#filter1_d)">
<circle cx="158.299" cy="272.493" r="3.56011" stroke="#4E5193"/>
</g>
<g filter="url(#filter2_d)">
<circle cx="262.06" cy="254.448" r="3.56011" stroke="#4E5193"/>
</g>
<g filter="url(#filter3_d)">
<circle cx="230.06" cy="268.06" r="3.56011" stroke="#4E5193"/>
</g>
<g filter="url(#filter4_d)">
<circle cx="104.164" cy="277.005" r="3.56011" stroke="#4E5193"/>
</g>
<g filter="url(#filter5_d)">
<circle cx="131.232" cy="236.403" r="8.07133" stroke="#4E5193"/>
</g>
<g filter="url(#filter6_d)">
<circle cx="176.344" cy="254.448" r="3.56011" stroke="#4E5193"/>
</g>
<g filter="url(#filter7_d)">
<circle cx="62.0601" cy="227.381" r="3.56011" stroke="#4E5193"/>
</g>
<g filter="url(#filter8_d)">
<circle cx="262.06" cy="191.291" r="3.56011" stroke="#4E5193"/>
</g>
<g filter="url(#filter9_d)">
<circle cx="181.758" cy="199.411" r="4.46235" stroke="#4E5193"/>
</g>
<g filter="url(#filter10_d)">
<circle cx="327.857" cy="208.434" r="8.07133" stroke="#4E5193"/>
</g>
<g filter="url(#filter11_d)">
<circle cx="104.164" cy="191.291" r="3.56011" stroke="#4E5193"/>
</g>
<g filter="url(#filter12_d)">
<circle cx="212.434" cy="164.224" r="3.56011" stroke="#4E5193"/>
</g>
<g filter="url(#filter13_d)">
<circle cx="149.277" cy="173.246" r="3.56011" stroke="#4E5193"/>
</g>
<g filter="url(#filter14_d)">
<circle cx="230.479" cy="8.57133" r="8.07133" stroke="#4E5193"/>
</g>
<g filter="url(#filter15_d)">
<circle cx="8.06011" cy="177.757" r="3.56011" stroke="#4E5193"/>
</g>
<path d="M230.93 17.1426V54.1347" stroke="url(#paint0_linear)" stroke-miterlimit="16" stroke-linecap="round" stroke-linejoin="round" stroke-dasharray="1 5"/>
<path d="M12.5713 177.306H40.9921V155.201" stroke="url(#paint1_linear)" stroke-miterlimit="16" stroke-linecap="round" stroke-linejoin="round" stroke-dasharray="1 5"/>
<path d="M131.232 227.381V191.742" stroke="url(#paint2_linear)" stroke-miterlimit="16" stroke-linecap="round" stroke-linejoin="round" stroke-dasharray="1 5"/>
<path d="M327.857 217.005V273.396H285" stroke="url(#paint3_linear)" stroke-miterlimit="16" stroke-linecap="round" stroke-linejoin="round" stroke-dasharray="1 5"/>
<path d="M182.209 204.374V223.321" stroke="url(#paint4_linear)" stroke-miterlimit="16" stroke-linecap="round" stroke-linejoin="round" stroke-dasharray="1 5"/>
<path d="M104.616 281.065V293.245H138.901" stroke="url(#paint5_linear)" stroke-miterlimit="16" stroke-linecap="round" stroke-linejoin="round" stroke-dasharray="1 5"/>
<path d="M73.3992 125.485V130.029H71.9432V118.749H75.5272C76.8179 118.749 77.7832 119.053 78.4232 119.661C79.0632 120.258 79.3832 121.08 79.3832 122.125C79.3832 123.181 79.0525 124.008 78.3912 124.605C77.7299 125.192 76.7752 125.485 75.5272 125.485H73.3992ZM75.3992 124.269C76.2845 124.269 76.9192 124.082 77.3032 123.709C77.6979 123.336 77.8952 122.808 77.8952 122.125C77.8952 121.421 77.6979 120.888 77.3032 120.525C76.9192 120.152 76.2845 119.965 75.3992 119.965H73.3992V124.269H75.3992ZM82.5398 123.021C82.8278 122.413 83.2492 121.944 83.8038 121.613C84.3585 121.272 85.0198 121.101 85.7878 121.101V122.685H85.3398C84.5185 122.685 83.8465 122.898 83.3238 123.325C82.8012 123.741 82.5398 124.434 82.5398 125.405V130.029H81.0838V121.245H82.5398V123.021ZM95.3045 125.149C95.3045 125.458 95.2831 125.725 95.2405 125.949H88.2165C88.2485 126.952 88.5311 127.704 89.0645 128.205C89.6085 128.706 90.2698 128.957 91.0485 128.957C91.7525 128.957 92.3391 128.781 92.8085 128.429C93.2885 128.066 93.5818 127.586 93.6885 126.989H95.2405C95.1338 127.597 94.8938 128.141 94.5205 128.621C94.1578 129.101 93.6831 129.474 93.0965 129.741C92.5098 130.008 91.8485 130.141 91.1125 130.141C90.2698 130.141 89.5231 129.96 88.8725 129.597C88.2218 129.234 87.7098 128.717 87.3365 128.045C86.9738 127.362 86.7925 126.562 86.7925 125.645C86.7925 124.728 86.9738 123.928 87.3365 123.245C87.7098 122.562 88.2218 122.04 88.8725 121.677C89.5231 121.314 90.2698 121.133 91.1125 121.133C91.9658 121.133 92.7071 121.314 93.3365 121.677C93.9765 122.04 94.4618 122.525 94.7925 123.133C95.1338 123.741 95.3045 124.413 95.3045 125.149ZM93.8325 125.245C93.8645 124.594 93.7578 124.05 93.5125 123.613C93.2671 123.176 92.9311 122.85 92.5045 122.637C92.0778 122.424 91.6138 122.317 91.1125 122.317C90.3125 122.317 89.6405 122.568 89.0965 123.069C88.5525 123.56 88.2591 124.285 88.2165 125.245H93.8325ZM102.201 123.549V124.781H95.8008V123.549H102.201ZM110.188 118.637C111.5 118.637 112.599 118.962 113.484 119.613C114.38 120.264 114.983 121.149 115.292 122.269H113.756C113.49 121.586 113.042 121.037 112.412 120.621C111.794 120.205 111.058 119.997 110.204 119.997C109.436 119.997 108.748 120.178 108.14 120.541C107.532 120.893 107.052 121.4 106.7 122.061C106.359 122.722 106.188 123.501 106.188 124.397C106.188 125.314 106.364 126.109 106.716 126.781C107.068 127.442 107.554 127.954 108.172 128.317C108.802 128.669 109.522 128.845 110.332 128.845C111.026 128.845 111.66 128.696 112.236 128.397C112.812 128.098 113.282 127.666 113.644 127.101C114.018 126.525 114.242 125.853 114.316 125.085H109.884V123.997H115.548V125.341C115.452 126.237 115.175 127.048 114.716 127.773C114.258 128.498 113.639 129.074 112.86 129.501C112.082 129.928 111.196 130.141 110.204 130.141C109.116 130.141 108.156 129.901 107.324 129.421C106.492 128.93 105.842 128.253 105.372 127.389C104.914 126.514 104.684 125.517 104.684 124.397C104.684 123.277 104.914 122.285 105.372 121.421C105.842 120.546 106.492 119.864 107.324 119.373C108.156 118.882 109.111 118.637 110.188 118.637ZM127.025 124.381C127.025 125.522 126.796 126.52 126.337 127.373C125.879 128.216 125.201 128.872 124.305 129.341C123.42 129.8 122.353 130.029 121.105 130.029H117.521V118.749H121.105C122.353 118.749 123.42 118.978 124.305 119.437C125.201 119.885 125.879 120.536 126.337 121.389C126.796 122.232 127.025 123.229 127.025 124.381ZM120.993 128.717C122.465 128.717 123.591 128.338 124.369 127.581C125.148 126.824 125.537 125.757 125.537 124.381C125.537 123.005 125.148 121.938 124.369 121.181C123.601 120.413 122.476 120.029 120.993 120.029H118.977V128.717H120.993ZM130.446 125.485V130.029H128.99V118.749H132.574C133.865 118.749 134.83 119.053 135.47 119.661C136.11 120.258 136.43 121.08 136.43 122.125C136.43 123.181 136.099 124.008 135.438 124.605C134.777 125.192 133.822 125.485 132.574 125.485H130.446ZM132.446 124.269C133.331 124.269 133.966 124.082 134.35 123.709C134.745 123.336 134.942 122.808 134.942 122.125C134.942 121.421 134.745 120.888 134.35 120.525C133.966 120.152 133.331 119.965 132.446 119.965H130.446V124.269H132.446ZM144.115 130.029L141.171 125.421H139.587V130.029H138.131V118.749H141.843C143.123 118.749 144.083 119.058 144.723 119.677C145.363 120.285 145.683 121.096 145.683 122.109C145.683 123.026 145.427 123.768 144.915 124.333C144.403 124.888 143.661 125.234 142.691 125.373L145.763 130.029H144.115ZM139.587 124.365H141.715C143.368 124.365 144.195 123.64 144.195 122.189C144.195 120.738 143.368 120.013 141.715 120.013H139.587V124.365ZM157.796 118.749V119.933H152.868V123.837H157.044V124.973H152.868V130.029H151.412V118.749H157.796ZM160.977 123.021C161.265 122.413 161.687 121.944 162.241 121.613C162.796 121.272 163.457 121.101 164.225 121.101V122.685H163.777C162.956 122.685 162.284 122.898 161.761 123.325C161.239 123.741 160.977 124.434 160.977 125.405V130.029H159.521V121.245H160.977V123.021ZM173.742 125.149C173.742 125.458 173.721 125.725 173.678 125.949H166.654C166.686 126.952 166.969 127.704 167.502 128.205C168.046 128.706 168.707 128.957 169.486 128.957C170.19 128.957 170.777 128.781 171.246 128.429C171.726 128.066 172.019 127.586 172.126 126.989H173.678C173.571 127.597 173.331 128.141 172.958 128.621C172.595 129.101 172.121 129.474 171.534 129.741C170.947 130.008 170.286 130.141 169.55 130.141C168.707 130.141 167.961 129.96 167.31 129.597C166.659 129.234 166.147 128.717 165.774 128.045C165.411 127.362 165.23 126.562 165.23 125.645C165.23 124.728 165.411 123.928 165.774 123.245C166.147 122.562 166.659 122.04 167.31 121.677C167.961 121.314 168.707 121.133 169.55 121.133C170.403 121.133 171.145 121.314 171.774 121.677C172.414 122.04 172.899 122.525 173.23 123.133C173.571 123.741 173.742 124.413 173.742 125.149ZM172.27 125.245C172.302 124.594 172.195 124.05 171.95 123.613C171.705 123.176 171.369 122.85 170.942 122.637C170.515 122.424 170.051 122.317 169.55 122.317C168.75 122.317 168.078 122.568 167.534 123.069C166.99 123.56 166.697 124.285 166.654 125.245H172.27ZM183.726 125.149C183.726 125.458 183.705 125.725 183.662 125.949H176.638C176.67 126.952 176.953 127.704 177.486 128.205C178.03 128.706 178.692 128.957 179.47 128.957C180.174 128.957 180.761 128.781 181.23 128.429C181.71 128.066 182.004 127.586 182.11 126.989H183.662C183.556 127.597 183.316 128.141 182.942 128.621C182.58 129.101 182.105 129.474 181.518 129.741C180.932 130.008 180.27 130.141 179.534 130.141C178.692 130.141 177.945 129.96 177.294 129.597C176.644 129.234 176.132 128.717 175.758 128.045C175.396 127.362 175.214 126.562 175.214 125.645C175.214 124.728 175.396 123.928 175.758 123.245C176.132 122.562 176.644 122.04 177.294 121.677C177.945 121.314 178.692 121.133 179.534 121.133C180.388 121.133 181.129 121.314 181.758 121.677C182.398 122.04 182.884 122.525 183.214 123.133C183.556 123.741 183.726 124.413 183.726 125.149ZM182.254 125.245C182.286 124.594 182.18 124.05 181.934 123.613C181.689 123.176 181.353 122.85 180.926 122.637C180.5 122.424 180.036 122.317 179.534 122.317C178.734 122.317 178.062 122.568 177.518 123.069C176.974 123.56 176.681 124.285 176.638 125.245H182.254ZM195.968 118.749V119.933H191.04V123.837H195.216V124.973H191.04V130.029H189.584V118.749H195.968ZM199.149 118.189V130.029H197.693V118.189H199.149ZM205.474 121.133C206.317 121.133 207.069 121.314 207.73 121.677C208.402 122.04 208.925 122.562 209.298 123.245C209.682 123.928 209.874 124.728 209.874 125.645C209.874 126.562 209.682 127.362 209.298 128.045C208.925 128.717 208.402 129.234 207.73 129.597C207.069 129.96 206.317 130.141 205.474 130.141C204.631 130.141 203.874 129.96 203.202 129.597C202.541 129.234 202.018 128.717 201.634 128.045C201.25 127.362 201.058 126.562 201.058 125.645C201.058 124.728 201.25 123.928 201.634 123.245C202.018 122.562 202.541 122.04 203.202 121.677C203.874 121.314 204.631 121.133 205.474 121.133ZM205.474 122.413C204.951 122.413 204.466 122.53 204.018 122.765C203.581 123 203.223 123.362 202.946 123.853C202.679 124.333 202.546 124.93 202.546 125.645C202.546 126.349 202.679 126.946 202.946 127.437C203.223 127.917 203.581 128.274 204.018 128.509C204.466 128.744 204.951 128.861 205.474 128.861C205.997 128.861 206.477 128.744 206.914 128.509C207.362 128.274 207.719 127.917 207.986 127.437C208.263 126.946 208.402 126.349 208.402 125.645C208.402 124.93 208.263 124.333 207.986 123.853C207.719 123.362 207.362 123 206.914 122.765C206.477 122.53 205.997 122.413 205.474 122.413ZM223.835 121.245L221.307 130.029H219.739L217.323 122.877L214.891 130.029H213.307L210.811 121.245H212.283L214.155 128.637L216.587 121.245H218.107L220.555 128.621L222.443 121.245H223.835ZM224.937 118.669C224.937 118.402 225.028 118.189 225.209 118.029C225.391 117.858 225.631 117.773 225.929 117.773C226.228 117.773 226.468 117.858 226.649 118.029C226.831 118.189 226.921 118.402 226.921 118.669C226.921 118.936 226.831 119.154 226.649 119.325C226.468 119.485 226.228 119.565 225.929 119.565C225.631 119.565 225.391 119.485 225.209 119.325C225.028 119.154 224.937 118.936 224.937 118.669ZM226.649 121.245V130.029H225.193V121.245H226.649ZM233.614 121.101C234.638 121.101 235.465 121.432 236.094 122.093C236.723 122.744 237.038 123.688 237.038 124.925V130.029H235.582V125.053C235.582 124.178 235.358 123.506 234.91 123.037C234.462 122.568 233.854 122.333 233.086 122.333C232.286 122.333 231.646 122.594 231.166 123.117C230.686 123.629 230.446 124.381 230.446 125.373V130.029H228.99V121.245H230.446V123.325C230.67 122.61 231.065 122.061 231.63 121.677C232.206 121.293 232.867 121.101 233.614 121.101ZM242.871 121.133C243.725 121.133 244.445 121.346 245.031 121.773C245.629 122.2 246.045 122.77 246.279 123.485V121.245H247.735V130.173C247.735 130.984 247.565 131.704 247.223 132.333C246.882 132.962 246.402 133.453 245.783 133.805C245.165 134.157 244.445 134.333 243.623 134.333C242.439 134.333 241.474 134.045 240.727 133.469C239.981 132.904 239.506 132.136 239.303 131.165H240.743C240.914 131.752 241.234 132.21 241.703 132.541C242.183 132.882 242.797 133.053 243.543 133.053C244.333 133.053 244.983 132.797 245.495 132.285C246.018 131.784 246.279 131.08 246.279 130.173V127.789C246.045 128.504 245.629 129.074 245.031 129.501C244.445 129.928 243.725 130.141 242.871 130.141C242.093 130.141 241.399 129.96 240.791 129.597C240.183 129.234 239.703 128.717 239.351 128.045C239.01 127.362 238.839 126.562 238.839 125.645C238.839 124.728 239.01 123.928 239.351 123.245C239.703 122.562 240.183 122.04 240.791 121.677C241.399 121.314 242.093 121.133 242.871 121.133ZM243.287 122.429C242.391 122.429 241.671 122.717 241.127 123.293C240.594 123.858 240.327 124.642 240.327 125.645C240.327 126.648 240.594 127.437 241.127 128.013C241.671 128.578 242.391 128.861 243.287 128.861C243.863 128.861 244.375 128.728 244.823 128.461C245.282 128.194 245.639 127.821 245.895 127.341C246.151 126.85 246.279 126.285 246.279 125.645C246.279 125.005 246.151 124.44 245.895 123.949C245.639 123.458 245.282 123.085 244.823 122.829C244.375 122.562 243.863 122.429 243.287 122.429ZM263.51 124.381C263.51 125.522 263.28 126.52 262.822 127.373C262.363 128.216 261.686 128.872 260.79 129.341C259.904 129.8 258.838 130.029 257.59 130.029H254.006V118.749H257.59C258.838 118.749 259.904 118.978 260.79 119.437C261.686 119.885 262.363 120.536 262.822 121.389C263.28 122.232 263.51 123.229 263.51 124.381ZM257.478 128.717C258.95 128.717 260.075 128.338 260.854 127.581C261.632 126.824 262.022 125.757 262.022 124.381C262.022 123.005 261.632 121.938 260.854 121.181C260.086 120.413 258.96 120.029 257.478 120.029H255.462V128.717H257.478ZM269.074 121.133C269.928 121.133 270.648 121.346 271.234 121.773C271.832 122.2 272.248 122.77 272.482 123.485V121.245H273.938V130.029H272.482V127.789C272.248 128.504 271.832 129.074 271.234 129.501C270.648 129.928 269.928 130.141 269.074 130.141C268.296 130.141 267.602 129.96 266.994 129.597C266.386 129.234 265.906 128.717 265.554 128.045C265.213 127.362 265.042 126.562 265.042 125.645C265.042 124.728 265.213 123.928 265.554 123.245C265.906 122.562 266.386 122.04 266.994 121.677C267.602 121.314 268.296 121.133 269.074 121.133ZM269.49 122.429C268.594 122.429 267.874 122.717 267.33 123.293C266.797 123.858 266.53 124.642 266.53 125.645C266.53 126.648 266.797 127.437 267.33 128.013C267.874 128.578 268.594 128.861 269.49 128.861C270.066 128.861 270.578 128.728 271.026 128.461C271.485 128.194 271.842 127.821 272.098 127.341C272.354 126.85 272.482 126.285 272.482 125.645C272.482 125.005 272.354 124.44 272.098 123.949C271.842 123.458 271.485 123.085 271.026 122.829C270.578 122.562 270.066 122.429 269.49 122.429ZM280.448 128.749V130.029H279.36C278.464 130.029 277.792 129.816 277.344 129.389C276.906 128.962 276.688 128.248 276.688 127.245V122.509H275.376V121.245H276.688V119.053H278.16V121.245H280.432V122.509H278.16V127.277C278.16 127.842 278.261 128.232 278.464 128.445C278.677 128.648 279.04 128.749 279.552 128.749H280.448ZM285.824 121.133C286.678 121.133 287.398 121.346 287.984 121.773C288.582 122.2 288.998 122.77 289.232 123.485V121.245H290.688V130.029H289.232V127.789C288.998 128.504 288.582 129.074 287.984 129.501C287.398 129.928 286.678 130.141 285.824 130.141C285.046 130.141 284.352 129.96 283.744 129.597C283.136 129.234 282.656 128.717 282.304 128.045C281.963 127.362 281.792 126.562 281.792 125.645C281.792 124.728 281.963 123.928 282.304 123.245C282.656 122.562 283.136 122.04 283.744 121.677C284.352 121.314 285.046 121.133 285.824 121.133ZM286.24 122.429C285.344 122.429 284.624 122.717 284.08 123.293C283.547 123.858 283.28 124.642 283.28 125.645C283.28 126.648 283.547 127.437 284.08 128.013C284.624 128.578 285.344 128.861 286.24 128.861C286.816 128.861 287.328 128.728 287.776 128.461C288.235 128.194 288.592 127.821 288.848 127.341C289.104 126.85 289.232 126.285 289.232 125.645C289.232 125.005 289.104 124.44 288.848 123.949C288.592 123.458 288.235 123.085 287.776 122.829C287.328 122.562 286.816 122.429 286.24 122.429Z" fill="#4E5193"/>
<path d="M143.006 142.831V144.327H139.816V146.032H142.28V147.462H139.816V150.608H137.935V142.831H143.006ZM150.11 150.608L148.427 147.671H147.998V150.608H146.117V142.831H149.329C149.945 142.831 150.466 142.937 150.891 143.15C151.316 143.362 151.635 143.656 151.848 144.03C152.061 144.396 152.167 144.818 152.167 145.295C152.167 145.859 152.009 146.34 151.694 146.736C151.386 147.132 150.935 147.403 150.341 147.55L152.189 150.608H150.11ZM147.998 146.384H149.164C149.538 146.384 149.813 146.303 149.989 146.142C150.165 145.973 150.253 145.727 150.253 145.405C150.253 145.097 150.161 144.855 149.978 144.679C149.802 144.503 149.531 144.415 149.164 144.415H147.998V146.384ZM157.136 144.327V145.955H159.765V147.374H157.136V149.101H160.095V150.608H155.255V142.831H160.095V144.327H157.136ZM165.189 144.327V145.955H167.818V147.374H165.189V149.101H168.148V150.608H163.308V142.831H168.148V144.327H165.189ZM184.454 142.886V150.608H182.573V145.779L180.901 150.608H179.273L177.59 145.768V150.608H175.709V142.886H178.008L180.109 148.265L182.166 142.886H184.454ZM192.716 149.189H189.801L189.317 150.608H187.337L190.186 142.886H192.353L195.202 150.608H193.2L192.716 149.189ZM192.232 147.759L191.264 144.899L190.285 147.759H192.232ZM202.071 150.608L200.388 147.671H199.959V150.608H198.078V142.831H201.29C201.906 142.831 202.426 142.937 202.852 143.15C203.277 143.362 203.596 143.656 203.809 144.03C204.021 144.396 204.128 144.818 204.128 145.295C204.128 145.859 203.97 146.34 203.655 146.736C203.347 147.132 202.896 147.403 202.302 147.55L204.15 150.608H202.071ZM199.959 146.384H201.125C201.499 146.384 201.774 146.303 201.95 146.142C202.126 145.973 202.214 145.727 202.214 145.405C202.214 145.097 202.122 144.855 201.939 144.679C201.763 144.503 201.491 144.415 201.125 144.415H199.959V146.384ZM210.879 146.637L214.014 150.608H211.737L209.097 147.121V150.608H207.216V142.831H209.097V146.252L211.759 142.831H214.014L210.879 146.637ZM218.837 144.327V145.955H221.466V147.374H218.837V149.101H221.796V150.608H216.956V142.831H221.796V144.327H218.837ZM230.597 142.831V144.327H228.485V150.608H226.593V144.327H224.503V142.831H230.597Z" fill="#696969"/>
<defs>
<filter id="filter0_d" x="181.818" y="294.598" width="16.1202" height="16.1202" filterUnits="userSpaceOnUse" color-interpolation-filters="sRGB">
<feFlood flood-opacity="0" result="BackgroundImageFix"/>
<feColorMatrix in="SourceAlpha" type="matrix" values="0 0 0 0 0 0 0 0 0 0 0 0 0 0 0 0 0 0 127 0"/>
<feOffset dy="4"/>
<feGaussianBlur stdDeviation="2"/>
<feColorMatrix type="matrix" values="0 0 0 0 0.816667 0 0 0 0 0.825833 0 0 0 0 1 0 0 0 1 0"/>
<feBlend mode="normal" in2="BackgroundImageFix" result="effect1_dropShadow"/>
<feBlend mode="normal" in="SourceGraphic" in2="effect1_dropShadow" result="shape"/>
</filter>
<filter id="filter1_d" x="150.239" y="268.433" width="16.1202" height="16.1202" filterUnits="userSpaceOnUse" color-interpolation-filters="sRGB">
<feFlood flood-opacity="0" result="BackgroundImageFix"/>
<feColorMatrix in="SourceAlpha" type="matrix" values="0 0 0 0 0 0 0 0 0 0 0 0 0 0 0 0 0 0 127 0"/>
<feOffset dy="4"/>
<feGaussianBlur stdDeviation="2"/>
<feColorMatrix type="matrix" values="0 0 0 0 0.816667 0 0 0 0 0.825833 0 0 0 0 1 0 0 0 1 0"/>
<feBlend mode="normal" in2="BackgroundImageFix" result="effect1_dropShadow"/>
<feBlend mode="normal" in="SourceGraphic" in2="effect1_dropShadow" result="shape"/>
</filter>
<filter id="filter2_d" x="254" y="250.388" width="16.1202" height="16.1202" filterUnits="userSpaceOnUse" color-interpolation-filters="sRGB">
<feFlood flood-opacity="0" result="BackgroundImageFix"/>
<feColorMatrix in="SourceAlpha" type="matrix" values="0 0 0 0 0 0 0 0 0 0 0 0 0 0 0 0 0 0 127 0"/>
<feOffset dy="4"/>
<feGaussianBlur stdDeviation="2"/>
<feColorMatrix type="matrix" values="0 0 0 0 0.816667 0 0 0 0 0.825833 0 0 0 0 1 0 0 0 1 0"/>
<feBlend mode="normal" in2="BackgroundImageFix" result="effect1_dropShadow"/>
<feBlend mode="normal" in="SourceGraphic" in2="effect1_dropShadow" result="shape"/>
</filter>
<filter id="filter3_d" x="222" y="264" width="16.1202" height="16.1202" filterUnits="userSpaceOnUse" color-interpolation-filters="sRGB">
<feFlood flood-opacity="0" result="BackgroundImageFix"/>
<feColorMatrix in="SourceAlpha" type="matrix" values="0 0 0 0 0 0 0 0 0 0 0 0 0 0 0 0 0 0 127 0"/>
<feOffset dy="4"/>
<feGaussianBlur stdDeviation="2"/>
<feColorMatrix type="matrix" values="0 0 0 0 0.816667 0 0 0 0 0.825833 0 0 0 0 1 0 0 0 1 0"/>
<feBlend mode="normal" in2="BackgroundImageFix" result="effect1_dropShadow"/>
<feBlend mode="normal" in="SourceGraphic" in2="effect1_dropShadow" result="shape"/>
</filter>
<filter id="filter4_d" x="96.1044" y="272.944" width="16.1202" height="16.1202" filterUnits="userSpaceOnUse" color-interpolation-filters="sRGB">
<feFlood flood-opacity="0" result="BackgroundImageFix"/>
<feColorMatrix in="SourceAlpha" type="matrix" values="0 0 0 0 0 0 0 0 0 0 0 0 0 0 0 0 0 0 127 0"/>
<feOffset dy="4"/>
<feGaussianBlur stdDeviation="2"/>
<feColorMatrix type="matrix" values="0 0 0 0 0.816667 0 0 0 0 0.825833 0 0 0 0 1 0 0 0 1 0"/>
<feBlend mode="normal" in2="BackgroundImageFix" result="effect1_dropShadow"/>
<feBlend mode="normal" in="SourceGraphic" in2="effect1_dropShadow" result="shape"/>
</filter>
<filter id="filter5_d" x="118.66" y="227.832" width="25.1427" height="25.1427" filterUnits="userSpaceOnUse" color-interpolation-filters="sRGB">
<feFlood flood-opacity="0" result="BackgroundImageFix"/>
<feColorMatrix in="SourceAlpha" type="matrix" values="0 0 0 0 0 0 0 0 0 0 0 0 0 0 0 0 0 0 127 0"/>
<feOffset dy="4"/>
<feGaussianBlur stdDeviation="2"/>
<feColorMatrix type="matrix" values="0 0 0 0 0.816667 0 0 0 0 0.825833 0 0 0 0 1 0 0 0 1 0"/>
<feBlend mode="normal" in2="BackgroundImageFix" result="effect1_dropShadow"/>
<feBlend mode="normal" in="SourceGraphic" in2="effect1_dropShadow" result="shape"/>
</filter>
<filter id="filter6_d" x="168.284" y="250.388" width="16.1202" height="16.1202" filterUnits="userSpaceOnUse" color-interpolation-filters="sRGB">
<feFlood flood-opacity="0" result="BackgroundImageFix"/>
<feColorMatrix in="SourceAlpha" type="matrix" values="0 0 0 0 0 0 0 0 0 0 0 0 0 0 0 0 0 0 127 0"/>
<feOffset dy="4"/>
<feGaussianBlur stdDeviation="2"/>
<feColorMatrix type="matrix" values="0 0 0 0 0.816667 0 0 0 0 0.825833 0 0 0 0 1 0 0 0 1 0"/>
<feBlend mode="normal" in2="BackgroundImageFix" result="effect1_dropShadow"/>
<feBlend mode="normal" in="SourceGraphic" in2="effect1_dropShadow" result="shape"/>
</filter>
<filter id="filter7_d" x="54" y="223.321" width="16.1202" height="16.1202" filterUnits="userSpaceOnUse" color-interpolation-filters="sRGB">
<feFlood flood-opacity="0" result="BackgroundImageFix"/>
<feColorMatrix in="SourceAlpha" type="matrix" values="0 0 0 0 0 0 0 0 0 0 0 0 0 0 0 0 0 0 127 0"/>
<feOffset dy="4"/>
<feGaussianBlur stdDeviation="2"/>
<feColorMatrix type="matrix" values="0 0 0 0 0.816667 0 0 0 0 0.825833 0 0 0 0 1 0 0 0 1 0"/>
<feBlend mode="normal" in2="BackgroundImageFix" result="effect1_dropShadow"/>
<feBlend mode="normal" in="SourceGraphic" in2="effect1_dropShadow" result="shape"/>
</filter>
<filter id="filter8_d" x="254" y="187.231" width="16.1202" height="16.1202" filterUnits="userSpaceOnUse" color-interpolation-filters="sRGB">
<feFlood flood-opacity="0" result="BackgroundImageFix"/>
<feColorMatrix in="SourceAlpha" type="matrix" values="0 0 0 0 0 0 0 0 0 0 0 0 0 0 0 0 0 0 127 0"/>
<feOffset dy="4"/>
<feGaussianBlur stdDeviation="2"/>
<feColorMatrix type="matrix" values="0 0 0 0 0.816667 0 0 0 0 0.825833 0 0 0 0 1 0 0 0 1 0"/>
<feBlend mode="normal" in2="BackgroundImageFix" result="effect1_dropShadow"/>
<feBlend mode="normal" in="SourceGraphic" in2="effect1_dropShadow" result="shape"/>
</filter>
<filter id="filter9_d" x="172.795" y="194.449" width="17.9247" height="17.9247" filterUnits="userSpaceOnUse" color-interpolation-filters="sRGB">
<feFlood flood-opacity="0" result="BackgroundImageFix"/>
<feColorMatrix in="SourceAlpha" type="matrix" values="0 0 0 0 0 0 0 0 0 0 0 0 0 0 0 0 0 0 127 0"/>
<feOffset dy="4"/>
<feGaussianBlur stdDeviation="2"/>
<feColorMatrix type="matrix" values="0 0 0 0 0.816667 0 0 0 0 0.825833 0 0 0 0 1 0 0 0 1 0"/>
<feBlend mode="normal" in2="BackgroundImageFix" result="effect1_dropShadow"/>
<feBlend mode="normal" in="SourceGraphic" in2="effect1_dropShadow" result="shape"/>
</filter>
<filter id="filter10_d" x="315.285" y="199.863" width="25.1427" height="25.1427" filterUnits="userSpaceOnUse" color-interpolation-filters="sRGB">
<feFlood flood-opacity="0" result="BackgroundImageFix"/>
<feColorMatrix in="SourceAlpha" type="matrix" values="0 0 0 0 0 0 0 0 0 0 0 0 0 0 0 0 0 0 127 0"/>
<feOffset dy="4"/>
<feGaussianBlur stdDeviation="2"/>
<feColorMatrix type="matrix" values="0 0 0 0 0.816667 0 0 0 0 0.825833 0 0 0 0 1 0 0 0 1 0"/>
<feBlend mode="normal" in2="BackgroundImageFix" result="effect1_dropShadow"/>
<feBlend mode="normal" in="SourceGraphic" in2="effect1_dropShadow" result="shape"/>
</filter>
<filter id="filter11_d" x="96.1044" y="187.231" width="16.1202" height="16.1202" filterUnits="userSpaceOnUse" color-interpolation-filters="sRGB">
<feFlood flood-opacity="0" result="BackgroundImageFix"/>
<feColorMatrix in="SourceAlpha" type="matrix" values="0 0 0 0 0 0 0 0 0 0 0 0 0 0 0 0 0 0 127 0"/>
<feOffset dy="4"/>
<feGaussianBlur stdDeviation="2"/>
<feColorMatrix type="matrix" values="0 0 0 0 0.816667 0 0 0 0 0.825833 0 0 0 0 1 0 0 0 1 0"/>
<feBlend mode="normal" in2="BackgroundImageFix" result="effect1_dropShadow"/>
<feBlend mode="normal" in="SourceGraphic" in2="effect1_dropShadow" result="shape"/>
</filter>
<filter id="filter12_d" x="204.374" y="160.164" width="16.1202" height="16.1202" filterUnits="userSpaceOnUse" color-interpolation-filters="sRGB">
<feFlood flood-opacity="0" result="BackgroundImageFix"/>
<feColorMatrix in="SourceAlpha" type="matrix" values="0 0 0 0 0 0 0 0 0 0 0 0 0 0 0 0 0 0 127 0"/>
<feOffset dy="4"/>
<feGaussianBlur stdDeviation="2"/>
<feColorMatrix type="matrix" values="0 0 0 0 0.816667 0 0 0 0 0.825833 0 0 0 0 1 0 0 0 1 0"/>
<feBlend mode="normal" in2="BackgroundImageFix" result="effect1_dropShadow"/>
<feBlend mode="normal" in="SourceGraphic" in2="effect1_dropShadow" result="shape"/>
</filter>
<filter id="filter13_d" x="141.217" y="169.186" width="16.1202" height="16.1202" filterUnits="userSpaceOnUse" color-interpolation-filters="sRGB">
<feFlood flood-opacity="0" result="BackgroundImageFix"/>
<feColorMatrix in="SourceAlpha" type="matrix" values="0 0 0 0 0 0 0 0 0 0 0 0 0 0 0 0 0 0 127 0"/>
<feOffset dy="4"/>
<feGaussianBlur stdDeviation="2"/>
<feColorMatrix type="matrix" values="0 0 0 0 0.816667 0 0 0 0 0.825833 0 0 0 0 1 0 0 0 1 0"/>
<feBlend mode="normal" in2="BackgroundImageFix" result="effect1_dropShadow"/>
<feBlend mode="normal" in="SourceGraphic" in2="effect1_dropShadow" result="shape"/>
</filter>
<filter id="filter14_d" x="217.908" y="0" width="25.1427" height="25.1427" filterUnits="userSpaceOnUse" color-interpolation-filters="sRGB">
<feFlood flood-opacity="0" result="BackgroundImageFix"/>
<feColorMatrix in="SourceAlpha" type="matrix" values="0 0 0 0 0 0 0 0 0 0 0 0 0 0 0 0 0 0 127 0"/>
<feOffset dy="4"/>
<feGaussianBlur stdDeviation="2"/>
<feColorMatrix type="matrix" values="0 0 0 0 0.816667 0 0 0 0 0.825833 0 0 0 0 1 0 0 0 1 0"/>
<feBlend mode="normal" in2="BackgroundImageFix" result="effect1_dropShadow"/>
<feBlend mode="normal" in="SourceGraphic" in2="effect1_dropShadow" result="shape"/>
</filter>
<filter id="filter15_d" x="0" y="173.697" width="16.1202" height="16.1202" filterUnits="userSpaceOnUse" color-interpolation-filters="sRGB">
<feFlood flood-opacity="0" result="BackgroundImageFix"/>
<feColorMatrix in="SourceAlpha" type="matrix" values="0 0 0 0 0 0 0 0 0 0 0 0 0 0 0 0 0 0 127 0"/>
<feOffset dy="4"/>
<feGaussianBlur stdDeviation="2"/>
<feColorMatrix type="matrix" values="0 0 0 0 0.816667 0 0 0 0 0.825833 0 0 0 0 1 0 0 0 1 0"/>
<feBlend mode="normal" in2="BackgroundImageFix" result="effect1_dropShadow"/>
<feBlend mode="normal" in="SourceGraphic" in2="effect1_dropShadow" result="shape"/>
</filter>
<linearGradient id="paint0_linear" x1="231.43" y1="17.1426" x2="231.43" y2="54.1347" gradientUnits="userSpaceOnUse">
<stop/>
<stop offset="1" stop-opacity="0"/>
</linearGradient>
<linearGradient id="paint1_linear" x1="12.1202" y1="177.306" x2="40.9921" y2="177.306" gradientUnits="userSpaceOnUse">
<stop/>
<stop offset="1" stop-opacity="0"/>
</linearGradient>
<linearGradient id="paint2_linear" x1="131.732" y1="227.832" x2="131.732" y2="191.742" gradientUnits="userSpaceOnUse">
<stop/>
<stop offset="1" stop-opacity="0"/>
</linearGradient>
<linearGradient id="paint3_linear" x1="306.428" y1="217.005" x2="306.428" y2="273.396" gradientUnits="userSpaceOnUse">
<stop/>
<stop offset="1" stop-opacity="0"/>
</linearGradient>
<linearGradient id="paint4_linear" x1="182.709" y1="204.374" x2="182.709" y2="223.321" gradientUnits="userSpaceOnUse">
<stop/>
<stop offset="1" stop-opacity="0"/>
</linearGradient>
<linearGradient id="paint5_linear" x1="104.616" y1="293.696" x2="138.901" y2="293.696" gradientUnits="userSpaceOnUse">
<stop/>
<stop offset="1" stop-opacity="0"/>
</linearGradient>
</defs>
</svg>
