<svg width="75" height="31" viewBox="0 0 75 31" fill="none" xmlns="http://www.w3.org/2000/svg">
<path d="M7.47624 10.3164H1.53775V25.3221H7.47624V10.3164Z" fill="white"/>
<path d="M23.1164 18.5795H22.6538C20.1909 18.5795 18.4781 18.7443 17.5154 19.0611C16.5528 19.378 16.0652 19.9356 16.0652 20.7087C16.0652 21.2663 16.3152 21.6846 16.8028 21.9507C17.3029 22.2296 18.0405 22.369 19.0282 22.369C20.3534 22.369 21.3661 22.0775 22.0662 21.4818C22.7663 20.8861 23.1289 20.037 23.1289 18.9217C23.1164 18.909 23.1164 18.5795 23.1164 18.5795ZM23.2664 23.066C22.6163 23.9152 21.6786 24.5489 20.4409 24.9924C19.2032 25.436 17.728 25.6641 16.0277 25.6641C14.0649 25.6641 12.5396 25.2713 11.4644 24.4728C10.3892 23.6744 9.85165 22.5464 9.85165 21.1016C9.85165 20.1891 10.0642 19.378 10.4768 18.6556C10.8893 17.9332 11.4894 17.3375 12.2771 16.8812C12.9022 16.501 13.7773 16.2349 14.9025 16.0701C16.0277 15.9054 17.803 15.8293 20.2284 15.8293H23.1289C23.1289 15.7659 23.1289 15.7026 23.1414 15.6012C23.1539 15.5125 23.1539 15.4491 23.1539 15.4111C23.1539 14.6 22.9038 13.9916 22.4037 13.5607C21.9037 13.1425 21.1785 12.927 20.2284 12.927C19.1407 12.927 18.3406 13.0664 17.8155 13.3453C17.2904 13.6241 16.9778 14.0677 16.8778 14.7013H10.8893C11.0769 13.0791 11.9395 11.8751 13.4773 11.0893C15.015 10.3162 17.3029 9.92334 20.3409 9.92334C23.2664 9.92334 25.4167 10.3923 26.8045 11.3175C28.1922 12.2426 28.8798 13.6874 28.8798 15.6519V23.3195C28.8798 23.7504 28.9048 24.1179 28.9423 24.4348C28.9923 24.7516 29.0674 25.0431 29.1799 25.3219H23.654C23.5289 25.0431 23.4289 24.739 23.3664 24.4221C23.3039 24.0926 23.2789 23.7377 23.2789 23.3575C23.2664 23.3448 23.2664 23.066 23.2664 23.066Z" fill="white"/>
<path d="M8.83897 4.28373C8.83897 6.64105 6.86364 8.56746 4.42574 8.56746C1.98783 8.56746 0 6.65372 0 4.28373C0 1.92641 1.97533 0 4.42574 0C6.86364 0 8.83897 1.91374 8.83897 4.28373Z" fill="white"/>
<path d="M64.7108 22.6228C65.986 22.6228 67.0112 22.2172 67.7738 21.4061C68.5364 20.595 68.924 19.5177 68.924 18.1616C68.924 16.6281 68.5489 15.4368 67.7863 14.6003C67.0362 13.7512 65.9735 13.3329 64.6108 13.3329C63.2855 13.3329 62.2479 13.7385 61.4978 14.5496C60.7476 15.3607 60.3726 16.4887 60.3726 17.9462C60.3726 19.4797 60.7476 20.6457 61.4852 21.4314C62.2229 22.2172 63.298 22.6228 64.7108 22.6228ZM54.4841 30.9241V13.6117C54.4841 13.0921 54.4591 12.5598 54.4216 11.9895C54.3841 11.4319 54.3216 10.8362 54.234 10.2152H60.235C60.2976 10.6081 60.3351 10.9883 60.3726 11.3812C60.3976 11.774 60.4226 12.1543 60.4226 12.5471V13.0161C61.2477 11.9768 62.2354 11.1911 63.3731 10.6461C64.5233 10.1011 65.786 9.83496 67.1737 9.83496C69.6366 9.83496 71.5494 10.5447 72.9247 11.9515C74.2999 13.3583 75 15.3227 75 17.8448C75 20.2401 74.2874 22.1285 72.8621 23.5226C71.4369 24.9167 69.4991 25.6138 67.0487 25.6138C65.7235 25.6138 64.5108 25.3983 63.4106 24.9801C62.3104 24.5619 61.3102 23.9282 60.4101 23.0917V30.9241H54.4841Z" fill="white"/>
<path d="M41.957 22.6604C43.2322 22.6604 44.2574 22.2549 45.02 21.4437C45.7826 20.6326 46.1702 19.5554 46.1702 18.1993C46.1702 16.6657 45.7951 15.4744 45.0325 14.6379C44.2824 13.7888 43.2197 13.3706 41.857 13.3706C40.5317 13.3706 39.4941 13.7761 38.7439 14.5872C37.9938 15.3984 37.6187 16.5263 37.6187 17.9838C37.6187 19.5173 37.9938 20.6833 38.7314 21.4818C39.4691 22.2675 40.5442 22.6604 41.957 22.6604ZM31.7303 30.9744V13.6621C31.7303 13.1424 31.7053 12.6101 31.6678 12.0525C31.6302 11.4948 31.5677 10.8992 31.4802 10.2782H37.4812C37.5437 10.671 37.5812 11.0513 37.6187 11.4441C37.6438 11.837 37.6688 12.2172 37.6688 12.6101V13.0791C38.4939 12.0398 39.4816 11.254 40.6192 10.7091C41.7694 10.1641 43.0322 9.89795 44.4199 9.89795C46.8828 9.89795 48.7956 10.6077 50.1708 12.0145C51.5461 13.4213 52.2462 15.3857 52.2462 17.9078C52.2462 20.3031 51.5336 22.1915 50.1083 23.5983C48.6831 24.9924 46.7453 25.6894 44.2949 25.6894C42.9696 25.6894 41.7569 25.474 40.6568 25.0558C39.5566 24.6375 38.5564 24.0038 37.6563 23.1674V30.9997H31.7303V30.9744Z" fill="white"/>
</svg>
