<svg width="329" height="329" viewBox="0 0 329 329" fill="none" xmlns="http://www.w3.org/2000/svg">
<circle cx="164.791" cy="164.209" r="163.709" stroke="#E9453B"/>
<g filter="url(#filter0_d)">
<circle cx="164.791" cy="233.682" r="37.3943" stroke="#E9453B"/>
</g>
<g filter="url(#filter1_d)">
<circle cx="79.9802" cy="233.682" r="37.3943" stroke="#E9453B"/>
</g>
<g filter="url(#filter2_d)">
<circle cx="249.602" cy="233.682" r="37.3943" stroke="#E9453B"/>
</g>
<path d="M110.455 143.189H112.963V144.63H108.574V136.853H110.455V143.189ZM117.853 136.853V144.63H115.972V136.853H117.853ZM130.041 136.908V144.63H128.16V139.801L126.488 144.63H124.86L123.177 139.79V144.63H121.296V136.908H123.595L125.696 142.287L127.753 136.908H130.041ZM135.366 136.853V144.63H133.485V136.853H135.366ZM144.398 136.853V138.349H142.286V144.63H140.394V138.349H138.304V136.853H144.398ZM149.217 138.349V139.977H151.846V141.396H149.217V143.123H152.176V144.63H147.336V136.853H152.176V138.349H149.217ZM162.385 140.725C162.385 141.488 162.22 142.166 161.89 142.76C161.567 143.347 161.098 143.805 160.482 144.135C159.873 144.465 159.155 144.63 158.326 144.63H155.389V136.853H158.326C159.162 136.853 159.884 137.014 160.493 137.337C161.102 137.66 161.567 138.114 161.89 138.701C162.22 139.288 162.385 139.962 162.385 140.725ZM158.161 142.947C158.894 142.947 159.463 142.753 159.866 142.364C160.277 141.975 160.482 141.429 160.482 140.725C160.482 140.021 160.277 139.475 159.866 139.086C159.463 138.697 158.894 138.503 158.161 138.503H157.27V142.947H158.161ZM171.775 136.853V141.341C171.775 141.854 171.888 142.247 172.116 142.518C172.35 142.789 172.688 142.925 173.128 142.925C173.568 142.925 173.901 142.789 174.129 142.518C174.363 142.247 174.481 141.854 174.481 141.341V136.853H176.362V141.341C176.362 142.074 176.219 142.694 175.933 143.2C175.647 143.699 175.254 144.076 174.756 144.333C174.264 144.582 173.707 144.707 173.084 144.707C172.46 144.707 171.91 144.582 171.434 144.333C170.957 144.084 170.583 143.706 170.312 143.2C170.04 142.694 169.905 142.074 169.905 141.341V136.853H171.775ZM185.351 136.853V138.349H183.239V144.63H181.347V138.349H179.257V136.853H185.351ZM190.17 136.853V144.63H188.289V136.853H190.17ZM195.495 143.189H198.003V144.63H193.614V136.853H195.495V143.189ZM202.893 136.853V144.63H201.012V136.853H202.893ZM211.925 136.853V138.349H209.813V144.63H207.921V138.349H205.831V136.853H211.925ZM221.583 136.853L218.888 142.045V144.63H216.996V142.045L214.301 136.853H216.457L217.953 140.021L219.449 136.853H221.583ZM99.0401 159.441C99.0401 159.852 98.9338 160.229 98.7211 160.574C98.5158 160.919 98.2078 161.194 97.7971 161.399C97.3938 161.604 96.9025 161.707 96.3231 161.707C95.4505 161.707 94.7318 161.494 94.1671 161.069C93.6025 160.644 93.2945 160.05 93.2431 159.287H95.2451C95.2745 159.58 95.3771 159.811 95.5531 159.98C95.7365 160.149 95.9675 160.233 96.2461 160.233C96.4881 160.233 96.6788 160.167 96.8181 160.035C96.9575 159.903 97.0271 159.727 97.0271 159.507C97.0271 159.309 96.9611 159.144 96.8291 159.012C96.7045 158.88 96.5468 158.774 96.3561 158.693C96.1655 158.605 95.9015 158.502 95.5641 158.385C95.0728 158.216 94.6695 158.055 94.3541 157.901C94.0461 157.74 93.7785 157.505 93.5511 157.197C93.3311 156.882 93.2211 156.475 93.2211 155.976C93.2211 155.514 93.3385 155.114 93.5731 154.777C93.8078 154.44 94.1305 154.183 94.5411 154.007C94.9591 153.824 95.4358 153.732 95.9711 153.732C96.8365 153.732 97.5221 153.937 98.0281 154.348C98.5415 154.759 98.8311 155.323 98.8971 156.042H96.8621C96.8255 155.785 96.7301 155.584 96.5761 155.437C96.4295 155.283 96.2278 155.206 95.9711 155.206C95.7511 155.206 95.5715 155.265 95.4321 155.382C95.3001 155.499 95.2341 155.672 95.2341 155.899C95.2341 156.082 95.2928 156.24 95.4101 156.372C95.5348 156.497 95.6888 156.599 95.8721 156.68C96.0555 156.761 96.3195 156.863 96.6641 156.988C97.1628 157.157 97.5698 157.325 97.8851 157.494C98.2005 157.655 98.4718 157.894 98.6991 158.209C98.9265 158.524 99.0401 158.935 99.0401 159.441ZM104.106 153.853V161.63H102.225V153.853H104.106ZM109.431 160.189H111.939V161.63H107.55V153.853H109.431V160.189ZM118.644 153.732C119.377 153.732 120.041 153.904 120.635 154.249C121.236 154.586 121.709 155.059 122.054 155.668C122.398 156.269 122.571 156.951 122.571 157.714C122.571 158.477 122.395 159.162 122.043 159.771C121.698 160.38 121.225 160.856 120.624 161.201C120.03 161.538 119.37 161.707 118.644 161.707C117.918 161.707 117.254 161.538 116.653 161.201C116.059 160.856 115.586 160.38 115.234 159.771C114.889 159.162 114.717 158.477 114.717 157.714C114.717 156.951 114.889 156.269 115.234 155.668C115.586 155.059 116.059 154.586 116.653 154.249C117.254 153.904 117.918 153.732 118.644 153.732ZM118.644 155.481C118.028 155.481 117.536 155.683 117.17 156.086C116.81 156.482 116.631 157.025 116.631 157.714C116.631 158.396 116.81 158.939 117.17 159.342C117.536 159.745 118.028 159.947 118.644 159.947C119.252 159.947 119.74 159.745 120.107 159.342C120.473 158.939 120.657 158.396 120.657 157.714C120.657 157.032 120.473 156.489 120.107 156.086C119.747 155.683 119.26 155.481 118.644 155.481ZM127.653 155.349V156.977H130.282V158.396H127.653V160.123H130.612V161.63H125.772V153.853H130.612V155.349H127.653ZM140.822 157.725C140.822 158.488 140.657 159.166 140.327 159.76C140.004 160.347 139.535 160.805 138.919 161.135C138.31 161.465 137.591 161.63 136.763 161.63H133.826V153.853H136.763C137.599 153.853 138.321 154.014 138.93 154.337C139.538 154.66 140.004 155.114 140.327 155.701C140.657 156.288 140.822 156.962 140.822 157.725ZM136.598 159.947C137.331 159.947 137.899 159.753 138.303 159.364C138.713 158.975 138.919 158.429 138.919 157.725C138.919 157.021 138.713 156.475 138.303 156.086C137.899 155.697 137.331 155.503 136.598 155.503H135.707V159.947H136.598ZM150.266 158.902V161.63H148.385V153.853H151.432C152.356 153.853 153.06 154.084 153.544 154.546C154.028 155.001 154.27 155.617 154.27 156.394C154.27 156.878 154.16 157.311 153.94 157.692C153.727 158.066 153.408 158.363 152.983 158.583C152.558 158.796 152.041 158.902 151.432 158.902H150.266ZM151.223 157.395C151.978 157.395 152.356 157.061 152.356 156.394C152.356 155.712 151.978 155.371 151.223 155.371H150.266V157.395H151.223ZM161.334 161.63L159.651 158.693H159.222V161.63H157.341V153.853H160.553C161.169 153.853 161.689 153.959 162.115 154.172C162.54 154.385 162.859 154.678 163.072 155.052C163.284 155.419 163.391 155.84 163.391 156.317C163.391 156.882 163.233 157.362 162.918 157.758C162.61 158.154 162.159 158.425 161.565 158.572L163.413 161.63H161.334ZM159.222 157.406H160.388C160.762 157.406 161.037 157.325 161.213 157.164C161.389 156.995 161.477 156.75 161.477 156.427C161.477 156.119 161.385 155.877 161.202 155.701C161.026 155.525 160.754 155.437 160.388 155.437H159.222V157.406ZM170.175 153.732C170.908 153.732 171.572 153.904 172.166 154.249C172.767 154.586 173.24 155.059 173.585 155.668C173.929 156.269 174.102 156.951 174.102 157.714C174.102 158.477 173.926 159.162 173.574 159.771C173.229 160.38 172.756 160.856 172.155 161.201C171.561 161.538 170.901 161.707 170.175 161.707C169.449 161.707 168.785 161.538 168.184 161.201C167.59 160.856 167.117 160.38 166.765 159.771C166.42 159.162 166.248 158.477 166.248 157.714C166.248 156.951 166.42 156.269 166.765 155.668C167.117 155.059 167.59 154.586 168.184 154.249C168.785 153.904 169.449 153.732 170.175 153.732ZM170.175 155.481C169.559 155.481 169.067 155.683 168.701 156.086C168.341 156.482 168.162 157.025 168.162 157.714C168.162 158.396 168.341 158.939 168.701 159.342C169.067 159.745 169.559 159.947 170.175 159.947C170.783 159.947 171.271 159.745 171.638 159.342C172.004 158.939 172.188 158.396 172.188 157.714C172.188 157.032 172.004 156.489 171.638 156.086C171.278 155.683 170.791 155.481 170.175 155.481ZM180.856 153.776C181.846 153.776 182.664 154.036 183.309 154.557C183.962 155.078 184.384 155.782 184.574 156.669H182.583C182.437 156.31 182.209 156.027 181.901 155.822C181.601 155.617 181.241 155.514 180.823 155.514C180.273 155.514 179.83 155.716 179.492 156.119C179.155 156.522 178.986 157.061 178.986 157.736C178.986 158.411 179.155 158.95 179.492 159.353C179.83 159.749 180.273 159.947 180.823 159.947C181.241 159.947 181.601 159.844 181.901 159.639C182.209 159.434 182.437 159.155 182.583 158.803H184.574C184.384 159.683 183.962 160.387 183.309 160.915C182.664 161.436 181.846 161.696 180.856 161.696C180.101 161.696 179.437 161.531 178.865 161.201C178.293 160.864 177.85 160.394 177.534 159.793C177.226 159.192 177.072 158.506 177.072 157.736C177.072 156.966 177.226 156.28 177.534 155.679C177.85 155.078 178.293 154.612 178.865 154.282C179.437 153.945 180.101 153.776 180.856 153.776ZM189.655 155.349V156.977H192.284V158.396H189.655V160.123H192.614V161.63H187.774V153.853H192.614V155.349H189.655ZM201.415 159.441C201.415 159.852 201.309 160.229 201.096 160.574C200.891 160.919 200.583 161.194 200.172 161.399C199.769 161.604 199.277 161.707 198.698 161.707C197.825 161.707 197.107 161.494 196.542 161.069C195.977 160.644 195.669 160.05 195.618 159.287H197.62C197.649 159.58 197.752 159.811 197.928 159.98C198.111 160.149 198.342 160.233 198.621 160.233C198.863 160.233 199.054 160.167 199.193 160.035C199.332 159.903 199.402 159.727 199.402 159.507C199.402 159.309 199.336 159.144 199.204 159.012C199.079 158.88 198.922 158.774 198.731 158.693C198.54 158.605 198.276 158.502 197.939 158.385C197.448 158.216 197.044 158.055 196.729 157.901C196.421 157.74 196.153 157.505 195.926 157.197C195.706 156.882 195.596 156.475 195.596 155.976C195.596 155.514 195.713 155.114 195.948 154.777C196.183 154.44 196.505 154.183 196.916 154.007C197.334 153.824 197.811 153.732 198.346 153.732C199.211 153.732 199.897 153.937 200.403 154.348C200.916 154.759 201.206 155.323 201.272 156.042H199.237C199.2 155.785 199.105 155.584 198.951 155.437C198.804 155.283 198.603 155.206 198.346 155.206C198.126 155.206 197.946 155.265 197.807 155.382C197.675 155.499 197.609 155.672 197.609 155.899C197.609 156.082 197.668 156.24 197.785 156.372C197.91 156.497 198.064 156.599 198.247 156.68C198.43 156.761 198.694 156.863 199.039 156.988C199.538 157.157 199.945 157.325 200.26 157.494C200.575 157.655 200.847 157.894 201.074 158.209C201.301 158.524 201.415 158.935 201.415 159.441ZM210.188 159.441C210.188 159.852 210.082 160.229 209.869 160.574C209.664 160.919 209.356 161.194 208.945 161.399C208.542 161.604 208.05 161.707 207.471 161.707C206.598 161.707 205.88 161.494 205.315 161.069C204.75 160.644 204.442 160.05 204.391 159.287H206.393C206.422 159.58 206.525 159.811 206.701 159.98C206.884 160.149 207.115 160.233 207.394 160.233C207.636 160.233 207.827 160.167 207.966 160.035C208.105 159.903 208.175 159.727 208.175 159.507C208.175 159.309 208.109 159.144 207.977 159.012C207.852 158.88 207.695 158.774 207.504 158.693C207.313 158.605 207.049 158.502 206.712 158.385C206.221 158.216 205.817 158.055 205.502 157.901C205.194 157.74 204.926 157.505 204.699 157.197C204.479 156.882 204.369 156.475 204.369 155.976C204.369 155.514 204.486 155.114 204.721 154.777C204.956 154.44 205.278 154.183 205.689 154.007C206.107 153.824 206.584 153.732 207.119 153.732C207.984 153.732 208.67 153.937 209.176 154.348C209.689 154.759 209.979 155.323 210.045 156.042H208.01C207.973 155.785 207.878 155.584 207.724 155.437C207.577 155.283 207.376 155.206 207.119 155.206C206.899 155.206 206.719 155.265 206.58 155.382C206.448 155.499 206.382 155.672 206.382 155.899C206.382 156.082 206.441 156.24 206.558 156.372C206.683 156.497 206.837 156.599 207.02 156.68C207.203 156.761 207.467 156.863 207.812 156.988C208.311 157.157 208.718 157.325 209.033 157.494C209.348 157.655 209.62 157.894 209.847 158.209C210.074 158.524 210.188 158.935 210.188 159.441ZM215.254 153.853V161.63H213.373V153.853H215.254ZM225.605 161.63H223.724L220.578 156.856V161.63H218.697V153.853H220.578L223.724 158.671V153.853H225.605V161.63ZM232.69 153.776C233.666 153.776 234.469 154.014 235.099 154.491C235.73 154.968 236.122 155.613 236.276 156.427H234.285C234.153 156.148 233.952 155.928 233.68 155.767C233.409 155.598 233.083 155.514 232.701 155.514C232.107 155.514 231.631 155.716 231.271 156.119C230.912 156.515 230.732 157.054 230.732 157.736C230.732 158.477 230.919 159.045 231.293 159.441C231.675 159.837 232.214 160.035 232.91 160.035C233.358 160.035 233.75 159.914 234.087 159.672C234.425 159.423 234.663 159.071 234.802 158.616H232.426V157.263H236.375V159.122C236.229 159.577 235.994 159.998 235.671 160.387C235.349 160.776 234.934 161.091 234.428 161.333C233.93 161.575 233.358 161.696 232.712 161.696C231.928 161.696 231.242 161.531 230.655 161.201C230.069 160.864 229.614 160.394 229.291 159.793C228.976 159.192 228.818 158.506 228.818 157.736C228.818 156.966 228.976 156.28 229.291 155.679C229.614 155.078 230.065 154.612 230.644 154.282C231.231 153.945 231.913 153.776 232.69 153.776Z" fill="#696969"/>
<path d="M36.3684 89.7639V94.3079H34.9124V83.0279H38.4964C39.7871 83.0279 40.7524 83.3319 41.3924 83.9399C42.0324 84.5372 42.3524 85.3585 42.3524 86.4039C42.3524 87.4599 42.0217 88.2865 41.3604 88.8839C40.6991 89.4705 39.7444 89.7639 38.4964 89.7639H36.3684ZM38.3684 88.5479C39.2537 88.5479 39.8884 88.3612 40.2724 87.9879C40.6671 87.6145 40.8644 87.0865 40.8644 86.4039C40.8644 85.6999 40.6671 85.1665 40.2724 84.8039C39.8884 84.4305 39.2537 84.2439 38.3684 84.2439H36.3684V88.5479H38.3684ZM48.037 85.4119C48.8797 85.4119 49.6317 85.5932 50.293 85.9559C50.965 86.3185 51.4877 86.8412 51.861 87.5239C52.245 88.2065 52.437 89.0065 52.437 89.9239C52.437 90.8412 52.245 91.6412 51.861 92.3239C51.4877 92.9959 50.965 93.5132 50.293 93.8759C49.6317 94.2385 48.8797 94.4199 48.037 94.4199C47.1943 94.4199 46.437 94.2385 45.765 93.8759C45.1037 93.5132 44.581 92.9959 44.197 92.3239C43.813 91.6412 43.621 90.8412 43.621 89.9239C43.621 89.0065 43.813 88.2065 44.197 87.5239C44.581 86.8412 45.1037 86.3185 45.765 85.9559C46.437 85.5932 47.1943 85.4119 48.037 85.4119ZM48.037 86.6919C47.5143 86.6919 47.029 86.8092 46.581 87.0439C46.1437 87.2785 45.7863 87.6412 45.509 88.1319C45.2423 88.6119 45.109 89.2092 45.109 89.9239C45.109 90.6279 45.2423 91.2252 45.509 91.7159C45.7863 92.1959 46.1437 92.5532 46.581 92.7879C47.029 93.0225 47.5143 93.1399 48.037 93.1399C48.5597 93.1399 49.0397 93.0225 49.477 92.7879C49.925 92.5532 50.2823 92.1959 50.549 91.7159C50.8263 91.2252 50.965 90.6279 50.965 89.9239C50.965 89.2092 50.8263 88.6119 50.549 88.1319C50.2823 87.6412 49.925 87.2785 49.477 87.0439C49.0397 86.8092 48.5597 86.6919 48.037 86.6919ZM57.0863 85.4119C58.0783 85.4119 58.8729 85.6732 59.4703 86.1959C60.0783 86.7079 60.4463 87.4012 60.5743 88.2759H59.1823C59.1183 87.7532 58.8996 87.3265 58.5263 86.9959C58.1636 86.6545 57.6729 86.4839 57.0543 86.4839C56.5316 86.4839 56.1209 86.6119 55.8223 86.8679C55.5343 87.1132 55.3903 87.4492 55.3903 87.8759C55.3903 88.1959 55.4863 88.4572 55.6783 88.6599C55.8809 88.8519 56.1263 89.0012 56.4143 89.1079C56.7129 89.2039 57.1183 89.3105 57.6303 89.4279C58.2809 89.5772 58.8036 89.7319 59.1983 89.8919C59.6036 90.0412 59.9449 90.2865 60.2223 90.6279C60.5103 90.9692 60.6543 91.4279 60.6543 92.0039C60.6543 92.7185 60.3823 93.2999 59.8383 93.7479C59.3049 94.1959 58.5903 94.4199 57.6943 94.4199C56.6489 94.4199 55.7956 94.1692 55.1343 93.6679C54.4729 93.1665 54.0836 92.4679 53.9663 91.5719H55.3743C55.4276 92.1052 55.6569 92.5372 56.0623 92.8679C56.4783 93.1985 57.0223 93.3639 57.6943 93.3639C58.1956 93.3639 58.5849 93.2359 58.8623 92.9799C59.1503 92.7239 59.2943 92.3879 59.2943 91.9719C59.2943 91.6305 59.1929 91.3585 58.9903 91.1559C58.7876 90.9532 58.5369 90.7985 58.2383 90.6919C57.9396 90.5852 57.5289 90.4732 57.0063 90.3559C56.3556 90.2065 55.8329 90.0572 55.4383 89.9079C55.0543 89.7585 54.7236 89.5239 54.4463 89.2039C54.1796 88.8732 54.0463 88.4305 54.0463 87.8759C54.0463 87.1399 54.3183 86.5479 54.8623 86.0999C55.4063 85.6412 56.1476 85.4119 57.0863 85.4119ZM66.7919 93.0279V94.3079H65.7039C64.8079 94.3079 64.1359 94.0945 63.6879 93.6679C63.2506 93.2412 63.0319 92.5265 63.0319 91.5239V86.7879H61.7199V85.5239H63.0319V83.3319H64.5039V85.5239H66.7759V86.7879H64.5039V91.5559C64.5039 92.1212 64.6052 92.5105 64.8079 92.7239C65.0212 92.9265 65.3839 93.0279 65.8959 93.0279H66.7919ZM73.5606 87.8279V89.0599H67.1606V87.8279H73.5606ZM81.548 82.9159C82.86 82.9159 83.9587 83.2412 84.844 83.8919C85.74 84.5425 86.3427 85.4279 86.652 86.5479H85.116C84.8493 85.8652 84.4013 85.3159 83.772 84.8999C83.1533 84.4839 82.4173 84.2759 81.564 84.2759C80.796 84.2759 80.108 84.4572 79.5 84.8199C78.892 85.1719 78.412 85.6785 78.06 86.3399C77.7187 87.0012 77.548 87.7799 77.548 88.6759C77.548 89.5932 77.724 90.3879 78.076 91.0599C78.428 91.7212 78.9133 92.2332 79.532 92.5959C80.1613 92.9479 80.8813 93.1239 81.692 93.1239C82.3853 93.1239 83.02 92.9745 83.596 92.6759C84.172 92.3772 84.6413 91.9452 85.004 91.3799C85.3773 90.8039 85.6013 90.1319 85.676 89.3639H81.244V88.2759H86.908V89.6199C86.812 90.5159 86.5347 91.3265 86.076 92.0519C85.6173 92.7772 84.9987 93.3532 84.22 93.7799C83.4413 94.2065 82.556 94.4199 81.564 94.4199C80.476 94.4199 79.516 94.1799 78.684 93.6999C77.852 93.2092 77.2013 92.5319 76.732 91.6679C76.2733 90.7932 76.044 89.7959 76.044 88.6759C76.044 87.5559 76.2733 86.5639 76.732 85.6999C77.2013 84.8252 77.852 84.1425 78.684 83.6519C79.516 83.1612 80.4707 82.9159 81.548 82.9159ZM98.3851 88.6599C98.3851 89.8012 98.1558 90.7985 97.6971 91.6519C97.2385 92.4945 96.5611 93.1505 95.6651 93.6199C94.7798 94.0785 93.7131 94.3079 92.4651 94.3079H88.8811V83.0279H92.4651C93.7131 83.0279 94.7798 83.2572 95.6651 83.7159C96.5611 84.1639 97.2385 84.8145 97.6971 85.6679C98.1558 86.5105 98.3851 87.5079 98.3851 88.6599ZM92.3531 92.9959C93.8251 92.9959 94.9505 92.6172 95.7291 91.8599C96.5078 91.1025 96.8971 90.0359 96.8971 88.6599C96.8971 87.2839 96.5078 86.2172 95.7291 85.4599C94.9611 84.6919 93.8358 84.3079 92.3531 84.3079H90.3371V92.9959H92.3531ZM101.806 89.7639V94.3079H100.35V83.0279H103.934C105.225 83.0279 106.19 83.3319 106.83 83.9399C107.47 84.5372 107.79 85.3585 107.79 86.4039C107.79 87.4599 107.459 88.2865 106.798 88.8839C106.137 89.4705 105.182 89.7639 103.934 89.7639H101.806ZM103.806 88.5479C104.691 88.5479 105.326 88.3612 105.71 87.9879C106.105 87.6145 106.302 87.0865 106.302 86.4039C106.302 85.6999 106.105 85.1665 105.71 84.8039C105.326 84.4305 104.691 84.2439 103.806 84.2439H101.806V88.5479H103.806ZM115.475 94.3079L112.531 89.6999H110.947V94.3079H109.491V83.0279H113.203C114.483 83.0279 115.443 83.3372 116.083 83.9559C116.723 84.5639 117.043 85.3745 117.043 86.3879C117.043 87.3052 116.787 88.0465 116.275 88.6119C115.763 89.1665 115.021 89.5132 114.051 89.6519L117.123 94.3079H115.475ZM110.947 88.6439H113.075C114.728 88.6439 115.555 87.9185 115.555 86.4679C115.555 85.0172 114.728 84.2919 113.075 84.2919H110.947V88.6439ZM129.156 83.0279V84.2119H124.228V88.1159H128.404V89.2519H124.228V94.3079H122.772V83.0279H129.156ZM132.337 87.2999C132.625 86.6919 133.046 86.2225 133.601 85.8919C134.156 85.5505 134.817 85.3799 135.585 85.3799V86.9639H135.137C134.316 86.9639 133.644 87.1772 133.121 87.6039C132.598 88.0199 132.337 88.7132 132.337 89.6839V94.3079H130.881V85.5239H132.337V87.2999ZM145.102 89.4279C145.102 89.7372 145.08 90.0039 145.038 90.2279H138.014C138.046 91.2305 138.328 91.9825 138.862 92.4839C139.406 92.9852 140.067 93.2359 140.846 93.2359C141.55 93.2359 142.136 93.0599 142.606 92.7079C143.086 92.3452 143.379 91.8652 143.486 91.2679H145.038C144.931 91.8759 144.691 92.4199 144.318 92.8999C143.955 93.3799 143.48 93.7532 142.894 94.0199C142.307 94.2865 141.646 94.4199 140.91 94.4199C140.067 94.4199 139.32 94.2385 138.67 93.8759C138.019 93.5132 137.507 92.9959 137.134 92.3239C136.771 91.6412 136.59 90.8412 136.59 89.9239C136.59 89.0065 136.771 88.2065 137.134 87.5239C137.507 86.8412 138.019 86.3185 138.67 85.9559C139.32 85.5932 140.067 85.4119 140.91 85.4119C141.763 85.4119 142.504 85.5932 143.134 85.9559C143.774 86.3185 144.259 86.8039 144.59 87.4119C144.931 88.0199 145.102 88.6919 145.102 89.4279ZM143.63 89.5239C143.662 88.8732 143.555 88.3292 143.31 87.8919C143.064 87.4545 142.728 87.1292 142.302 86.9159C141.875 86.7025 141.411 86.5959 140.91 86.5959C140.11 86.5959 139.438 86.8465 138.894 87.3479C138.35 87.8385 138.056 88.5639 138.014 89.5239H143.63ZM155.086 89.4279C155.086 89.7372 155.065 90.0039 155.022 90.2279H147.998C148.03 91.2305 148.313 91.9825 148.846 92.4839C149.39 92.9852 150.051 93.2359 150.83 93.2359C151.534 93.2359 152.121 93.0599 152.59 92.7079C153.07 92.3452 153.363 91.8652 153.47 91.2679H155.022C154.915 91.8759 154.675 92.4199 154.302 92.8999C153.939 93.3799 153.465 93.7532 152.878 94.0199C152.291 94.2865 151.63 94.4199 150.894 94.4199C150.051 94.4199 149.305 94.2385 148.654 93.8759C148.003 93.5132 147.491 92.9959 147.118 92.3239C146.755 91.6412 146.574 90.8412 146.574 89.9239C146.574 89.0065 146.755 88.2065 147.118 87.5239C147.491 86.8412 148.003 86.3185 148.654 85.9559C149.305 85.5932 150.051 85.4119 150.894 85.4119C151.747 85.4119 152.489 85.5932 153.118 85.9559C153.758 86.3185 154.243 86.8039 154.574 87.4119C154.915 88.0199 155.086 88.6919 155.086 89.4279ZM153.614 89.5239C153.646 88.8732 153.539 88.3292 153.294 87.8919C153.049 87.4545 152.713 87.1292 152.286 86.9159C151.859 86.7025 151.395 86.5959 150.894 86.5959C150.094 86.5959 149.422 86.8465 148.878 87.3479C148.334 87.8385 148.041 88.5639 147.998 89.5239H153.614ZM162.4 89.7639V94.3079H160.944V83.0279H164.528C165.818 83.0279 166.784 83.3319 167.424 83.9399C168.064 84.5372 168.384 85.3585 168.384 86.4039C168.384 87.4599 168.053 88.2865 167.392 88.8839C166.73 89.4705 165.776 89.7639 164.528 89.7639H162.4ZM164.4 88.5479C165.285 88.5479 165.92 88.3612 166.304 87.9879C166.698 87.6145 166.896 87.0865 166.896 86.4039C166.896 85.6999 166.698 85.1665 166.304 84.8039C165.92 84.4305 165.285 84.2439 164.4 84.2439H162.4V88.5479H164.4ZM171.54 87.2999C171.828 86.6919 172.25 86.2225 172.804 85.8919C173.359 85.5505 174.02 85.3799 174.788 85.3799V86.9639H174.34C173.519 86.9639 172.847 87.1772 172.324 87.6039C171.802 88.0199 171.54 88.7132 171.54 89.6839V94.3079H170.084V85.5239H171.54V87.2999ZM180.209 85.4119C181.052 85.4119 181.804 85.5932 182.465 85.9559C183.137 86.3185 183.66 86.8412 184.033 87.5239C184.417 88.2065 184.609 89.0065 184.609 89.9239C184.609 90.8412 184.417 91.6412 184.033 92.3239C183.66 92.9959 183.137 93.5132 182.465 93.8759C181.804 94.2385 181.052 94.4199 180.209 94.4199C179.366 94.4199 178.609 94.2385 177.937 93.8759C177.276 93.5132 176.753 92.9959 176.369 92.3239C175.985 91.6412 175.793 90.8412 175.793 89.9239C175.793 89.0065 175.985 88.2065 176.369 87.5239C176.753 86.8412 177.276 86.3185 177.937 85.9559C178.609 85.5932 179.366 85.4119 180.209 85.4119ZM180.209 86.6919C179.686 86.6919 179.201 86.8092 178.753 87.0439C178.316 87.2785 177.958 87.6412 177.681 88.1319C177.414 88.6119 177.281 89.2092 177.281 89.9239C177.281 90.6279 177.414 91.2252 177.681 91.7159C177.958 92.1959 178.316 92.5532 178.753 92.7879C179.201 93.0225 179.686 93.1399 180.209 93.1399C180.732 93.1399 181.212 93.0225 181.649 92.7879C182.097 92.5532 182.454 92.1959 182.721 91.7159C182.998 91.2252 183.137 90.6279 183.137 89.9239C183.137 89.2092 182.998 88.6119 182.721 88.1319C182.454 87.6412 182.097 87.2785 181.649 87.0439C181.212 86.8092 180.732 86.6919 180.209 86.6919ZM190.394 85.4119C191.514 85.4119 192.442 85.7105 193.178 86.3079C193.914 86.9052 194.367 87.7052 194.538 88.7079H193.002C192.895 88.0785 192.602 87.5879 192.122 87.2359C191.653 86.8732 191.066 86.6919 190.362 86.6919C189.85 86.6919 189.381 86.8092 188.954 87.0439C188.538 87.2785 188.202 87.6412 187.946 88.1319C187.69 88.6119 187.562 89.2092 187.562 89.9239C187.562 90.6385 187.69 91.2412 187.946 91.7319C188.202 92.2119 188.538 92.5692 188.954 92.8039C189.381 93.0385 189.85 93.1559 190.362 93.1559C191.066 93.1559 191.653 92.9745 192.122 92.6119C192.602 92.2492 192.895 91.7532 193.002 91.1239H194.538C194.367 92.1372 193.914 92.9425 193.178 93.5399C192.442 94.1265 191.514 94.4199 190.394 94.4199C189.551 94.4199 188.805 94.2385 188.154 93.8759C187.503 93.5132 186.991 92.9959 186.618 92.3239C186.255 91.6412 186.074 90.8412 186.074 89.9239C186.074 89.0065 186.255 88.2065 186.618 87.5239C186.991 86.8412 187.503 86.3185 188.154 85.9559C188.805 85.5932 189.551 85.4119 190.394 85.4119ZM204.524 89.4279C204.524 89.7372 204.502 90.0039 204.46 90.2279H197.436C197.468 91.2305 197.75 91.9825 198.284 92.4839C198.828 92.9852 199.489 93.2359 200.268 93.2359C200.972 93.2359 201.558 93.0599 202.028 92.7079C202.508 92.3452 202.801 91.8652 202.908 91.2679H204.46C204.353 91.8759 204.113 92.4199 203.74 92.8999C203.377 93.3799 202.902 93.7532 202.316 94.0199C201.729 94.2865 201.068 94.4199 200.332 94.4199C199.489 94.4199 198.742 94.2385 198.092 93.8759C197.441 93.5132 196.929 92.9959 196.556 92.3239C196.193 91.6412 196.012 90.8412 196.012 89.9239C196.012 89.0065 196.193 88.2065 196.556 87.5239C196.929 86.8412 197.441 86.3185 198.092 85.9559C198.742 85.5932 199.489 85.4119 200.332 85.4119C201.185 85.4119 201.926 85.5932 202.556 85.9559C203.196 86.3185 203.681 86.8039 204.012 87.4119C204.353 88.0199 204.524 88.6919 204.524 89.4279ZM203.052 89.5239C203.084 88.8732 202.977 88.3292 202.732 87.8919C202.486 87.4545 202.15 87.1292 201.724 86.9159C201.297 86.7025 200.833 86.5959 200.332 86.5959C199.532 86.5959 198.86 86.8465 198.316 87.3479C197.772 87.8385 197.478 88.5639 197.436 89.5239H203.052ZM209.18 85.4119C210.172 85.4119 210.967 85.6732 211.564 86.1959C212.172 86.7079 212.54 87.4012 212.668 88.2759H211.276C211.212 87.7532 210.993 87.3265 210.62 86.9959C210.257 86.6545 209.767 86.4839 209.148 86.4839C208.625 86.4839 208.215 86.6119 207.916 86.8679C207.628 87.1132 207.484 87.4492 207.484 87.8759C207.484 88.1959 207.58 88.4572 207.772 88.6599C207.975 88.8519 208.22 89.0012 208.508 89.1079C208.807 89.2039 209.212 89.3105 209.724 89.4279C210.375 89.5772 210.897 89.7319 211.292 89.8919C211.697 90.0412 212.039 90.2865 212.316 90.6279C212.604 90.9692 212.748 91.4279 212.748 92.0039C212.748 92.7185 212.476 93.2999 211.932 93.7479C211.399 94.1959 210.684 94.4199 209.788 94.4199C208.743 94.4199 207.889 94.1692 207.228 93.6679C206.567 93.1665 206.177 92.4679 206.06 91.5719H207.468C207.521 92.1052 207.751 92.5372 208.156 92.8679C208.572 93.1985 209.116 93.3639 209.788 93.3639C210.289 93.3639 210.679 93.2359 210.956 92.9799C211.244 92.7239 211.388 92.3879 211.388 91.9719C211.388 91.6305 211.287 91.3585 211.084 91.1559C210.881 90.9532 210.631 90.7985 210.332 90.6919C210.033 90.5852 209.623 90.4732 209.1 90.3559C208.449 90.2065 207.927 90.0572 207.532 89.9079C207.148 89.7585 206.817 89.5239 206.54 89.2039C206.273 88.8732 206.14 88.4305 206.14 87.8759C206.14 87.1399 206.412 86.5479 206.956 86.0999C207.5 85.6412 208.241 85.4119 209.18 85.4119ZM217.446 85.4119C218.438 85.4119 219.232 85.6732 219.83 86.1959C220.438 86.7079 220.806 87.4012 220.934 88.2759H219.542C219.478 87.7532 219.259 87.3265 218.886 86.9959C218.523 86.6545 218.032 86.4839 217.414 86.4839C216.891 86.4839 216.48 86.6119 216.182 86.8679C215.894 87.1132 215.75 87.4492 215.75 87.8759C215.75 88.1959 215.846 88.4572 216.038 88.6599C216.24 88.8519 216.486 89.0012 216.774 89.1079C217.072 89.2039 217.478 89.3105 217.99 89.4279C218.64 89.5772 219.163 89.7319 219.558 89.8919C219.963 90.0412 220.304 90.2865 220.582 90.6279C220.87 90.9692 221.014 91.4279 221.014 92.0039C221.014 92.7185 220.742 93.2999 220.198 93.7479C219.664 94.1959 218.95 94.4199 218.054 94.4199C217.008 94.4199 216.155 94.1692 215.494 93.6679C214.832 93.1665 214.443 92.4679 214.326 91.5719H215.734C215.787 92.1052 216.016 92.5372 216.422 92.8679C216.838 93.1985 217.382 93.3639 218.054 93.3639C218.555 93.3639 218.944 93.2359 219.222 92.9799C219.51 92.7239 219.654 92.3879 219.654 91.9719C219.654 91.6305 219.552 91.3585 219.35 91.1559C219.147 90.9532 218.896 90.7985 218.598 90.6919C218.299 90.5852 217.888 90.4732 217.366 90.3559C216.715 90.2065 216.192 90.0572 215.798 89.9079C215.414 89.7585 215.083 89.5239 214.806 89.2039C214.539 88.8732 214.406 88.4305 214.406 87.8759C214.406 87.1399 214.678 86.5479 215.222 86.0999C215.766 85.6412 216.507 85.4119 217.446 85.4119ZM222.703 82.9479C222.703 82.6812 222.794 82.4679 222.975 82.3079C223.157 82.1372 223.397 82.0519 223.695 82.0519C223.994 82.0519 224.234 82.1372 224.415 82.3079C224.597 82.4679 224.687 82.6812 224.687 82.9479C224.687 83.2145 224.597 83.4332 224.415 83.6039C224.234 83.7639 223.994 83.8439 223.695 83.8439C223.397 83.8439 223.157 83.7639 222.975 83.6039C222.794 83.4332 222.703 83.2145 222.703 82.9479ZM224.415 85.5239V94.3079H222.959V85.5239H224.415ZM231.38 85.3799C232.404 85.3799 233.231 85.7105 233.86 86.3719C234.489 87.0225 234.804 87.9665 234.804 89.2039V94.3079H233.348V89.3319C233.348 88.4572 233.124 87.7852 232.676 87.3159C232.228 86.8465 231.62 86.6119 230.852 86.6119C230.052 86.6119 229.412 86.8732 228.932 87.3959C228.452 87.9079 228.212 88.6599 228.212 89.6519V94.3079H226.756V85.5239H228.212V87.6039C228.436 86.8892 228.831 86.3399 229.396 85.9559C229.972 85.5719 230.633 85.3799 231.38 85.3799ZM240.637 85.4119C241.491 85.4119 242.211 85.6252 242.797 86.0519C243.395 86.4785 243.811 87.0492 244.045 87.7639V85.5239H245.501V94.4519C245.501 95.2625 245.331 95.9825 244.989 96.6119C244.648 97.2412 244.168 97.7319 243.549 98.0839C242.931 98.4359 242.211 98.6119 241.389 98.6119C240.205 98.6119 239.24 98.3239 238.493 97.7479C237.747 97.1825 237.272 96.4145 237.069 95.4439H238.509C238.68 96.0305 239 96.4892 239.469 96.8199C239.949 97.1612 240.563 97.3319 241.309 97.3319C242.099 97.3319 242.749 97.0759 243.261 96.5639C243.784 96.0625 244.045 95.3585 244.045 94.4519V92.0679C243.811 92.7825 243.395 93.3532 242.797 93.7799C242.211 94.2065 241.491 94.4199 240.637 94.4199C239.859 94.4199 239.165 94.2385 238.557 93.8759C237.949 93.5132 237.469 92.9959 237.117 92.3239C236.776 91.6412 236.605 90.8412 236.605 89.9239C236.605 89.0065 236.776 88.2065 237.117 87.5239C237.469 86.8412 237.949 86.3185 238.557 85.9559C239.165 85.5932 239.859 85.4119 240.637 85.4119ZM241.053 86.7079C240.157 86.7079 239.437 86.9959 238.893 87.5719C238.36 88.1372 238.093 88.9212 238.093 89.9239C238.093 90.9265 238.36 91.7159 238.893 92.2919C239.437 92.8572 240.157 93.1399 241.053 93.1399C241.629 93.1399 242.141 93.0065 242.589 92.7399C243.048 92.4732 243.405 92.0999 243.661 91.6199C243.917 91.1292 244.045 90.5639 244.045 89.9239C244.045 89.2839 243.917 88.7185 243.661 88.2279C243.405 87.7372 243.048 87.3639 242.589 87.1079C242.141 86.8412 241.629 86.7079 241.053 86.7079ZM253.228 93.1719H257.228V94.3079H251.772V83.0279H253.228V93.1719ZM258.453 82.9479C258.453 82.6812 258.544 82.4679 258.725 82.3079C258.907 82.1372 259.147 82.0519 259.445 82.0519C259.744 82.0519 259.984 82.1372 260.165 82.3079C260.347 82.4679 260.437 82.6812 260.437 82.9479C260.437 83.2145 260.347 83.4332 260.165 83.6039C259.984 83.7639 259.744 83.8439 259.445 83.8439C259.147 83.8439 258.907 83.7639 258.725 83.6039C258.544 83.4332 258.453 83.2145 258.453 82.9479ZM260.165 85.5239V94.3079H258.709V85.5239H260.165ZM273.306 85.3799C274.33 85.3799 275.151 85.7105 275.77 86.3719C276.399 87.0225 276.714 87.9665 276.714 89.2039V94.3079H275.258V89.3319C275.258 88.4679 275.045 87.8065 274.618 87.3479C274.202 86.8892 273.626 86.6599 272.89 86.6599C272.122 86.6599 271.503 86.9159 271.034 87.4279C270.575 87.9292 270.346 88.6705 270.346 89.6519V94.3079H268.89V89.3319C268.89 88.4679 268.677 87.8065 268.25 87.3479C267.823 86.8892 267.247 86.6599 266.522 86.6599C265.743 86.6599 265.119 86.9159 264.65 87.4279C264.191 87.9292 263.962 88.6705 263.962 89.6519V94.3079H262.506V85.5239H263.962V87.5239C264.175 86.8305 264.554 86.3025 265.098 85.9399C265.653 85.5665 266.287 85.3799 267.002 85.3799C267.749 85.3799 268.394 85.5719 268.938 85.9559C269.493 86.3292 269.887 86.8839 270.122 87.6199C270.367 86.9052 270.778 86.3559 271.354 85.9719C271.93 85.5772 272.581 85.3799 273.306 85.3799ZM278.719 82.9479C278.719 82.6812 278.81 82.4679 278.991 82.3079C279.172 82.1372 279.412 82.0519 279.711 82.0519C280.01 82.0519 280.25 82.1372 280.431 82.3079C280.612 82.4679 280.703 82.6812 280.703 82.9479C280.703 83.2145 280.612 83.4332 280.431 83.6039C280.25 83.7639 280.01 83.8439 279.711 83.8439C279.412 83.8439 279.172 83.7639 278.991 83.6039C278.81 83.4332 278.719 83.2145 278.719 82.9479ZM280.431 85.5239V94.3079H278.975V85.5239H280.431ZM286.964 93.0279V94.3079H285.876C284.98 94.3079 284.308 94.0945 283.86 93.6679C283.422 93.2412 283.204 92.5265 283.204 91.5239V86.7879H281.892V85.5239H283.204V83.3319H284.676V85.5239H286.948V86.7879H284.676V91.5559C284.676 92.1212 284.777 92.5105 284.98 92.7239C285.193 92.9265 285.556 93.0279 286.068 93.0279H286.964ZM291.493 85.4119C292.485 85.4119 293.279 85.6732 293.877 86.1959C294.485 86.7079 294.853 87.4012 294.981 88.2759H293.589C293.525 87.7532 293.306 87.3265 292.933 86.9959C292.57 86.6545 292.079 86.4839 291.461 86.4839C290.938 86.4839 290.527 86.6119 290.229 86.8679C289.941 87.1132 289.797 87.4492 289.797 87.8759C289.797 88.1959 289.893 88.4572 290.085 88.6599C290.287 88.8519 290.533 89.0012 290.821 89.1079C291.119 89.2039 291.525 89.3105 292.037 89.4279C292.687 89.5772 293.21 89.7319 293.605 89.8919C294.01 90.0412 294.351 90.2865 294.629 90.6279C294.917 90.9692 295.061 91.4279 295.061 92.0039C295.061 92.7185 294.789 93.2999 294.245 93.7479C293.711 94.1959 292.997 94.4199 292.101 94.4199C291.055 94.4199 290.202 94.1692 289.541 93.6679C288.879 93.1665 288.49 92.4679 288.373 91.5719H289.781C289.834 92.1052 290.063 92.5372 290.469 92.8679C290.885 93.1985 291.429 93.3639 292.101 93.3639C292.602 93.3639 292.991 93.2359 293.269 92.9799C293.557 92.7239 293.701 92.3879 293.701 91.9719C293.701 91.6305 293.599 91.3585 293.397 91.1559C293.194 90.9532 292.943 90.7985 292.645 90.6919C292.346 90.5852 291.935 90.4732 291.413 90.3559C290.762 90.2065 290.239 90.0572 289.845 89.9079C289.461 89.7585 289.13 89.5239 288.853 89.2039C288.586 88.8732 288.453 88.4305 288.453 87.8759C288.453 87.1399 288.725 86.5479 289.269 86.0999C289.813 85.6412 290.554 85.4119 291.493 85.4119ZM67.8694 109.38L65.5814 118.308H62.5254L60.9094 112.324L59.2774 118.308H56.2214L53.9334 109.38H56.6694L57.8534 115.812L59.5174 109.38H62.4294L64.1414 115.828L65.3254 109.38H67.8694ZM68.6043 106.868C68.6043 106.452 68.7536 106.111 69.0523 105.844C69.3509 105.567 69.7456 105.428 70.2363 105.428C70.7269 105.428 71.1216 105.567 71.4203 105.844C71.7189 106.111 71.8683 106.452 71.8683 106.868C71.8683 107.273 71.7189 107.615 71.4203 107.892C71.1216 108.159 70.7269 108.292 70.2363 108.292C69.7456 108.292 69.3509 108.159 69.0523 107.892C68.7536 107.615 68.6043 107.273 68.6043 106.868ZM71.5963 109.38V118.308H68.8603V109.38H71.5963ZM78.5413 115.956V118.308H77.3093C76.2639 118.308 75.4479 118.052 74.8613 117.54C74.2853 117.017 73.9973 116.159 73.9973 114.964V111.684H72.7973V109.38H73.9973V107.188H76.7333V109.38H78.5253V111.684H76.7333V115.012C76.7333 115.364 76.8026 115.609 76.9413 115.748C77.0906 115.887 77.3359 115.956 77.6773 115.956H78.5413ZM85.743 109.284C86.767 109.284 87.5777 109.625 88.175 110.308C88.783 110.991 89.087 111.929 89.087 113.124V118.308H86.351V113.444C86.351 112.847 86.191 112.383 85.871 112.052C85.5617 111.711 85.1457 111.54 84.623 111.54C84.0683 111.54 83.6257 111.716 83.295 112.068C82.975 112.42 82.815 112.921 82.815 113.572V118.308H80.079V106.468H82.815V111.012C83.071 110.479 83.4497 110.057 83.951 109.748C84.463 109.439 85.0603 109.284 85.743 109.284ZM95.0675 109.268C95.9528 109.268 96.7422 109.455 97.4355 109.828C98.1395 110.191 98.6888 110.719 99.0835 111.412C99.4888 112.105 99.6915 112.916 99.6915 113.844C99.6915 114.772 99.4888 115.583 99.0835 116.276C98.6888 116.969 98.1395 117.503 97.4355 117.876C96.7422 118.239 95.9528 118.42 95.0675 118.42C94.1822 118.42 93.3875 118.239 92.6835 117.876C91.9795 117.503 91.4248 116.969 91.0195 116.276C90.6248 115.583 90.4275 114.772 90.4275 113.844C90.4275 112.916 90.6248 112.105 91.0195 111.412C91.4248 110.719 91.9795 110.191 92.6835 109.828C93.3875 109.455 94.1822 109.268 95.0675 109.268ZM95.0675 111.636C94.5448 111.636 94.1022 111.828 93.7395 112.212C93.3875 112.585 93.2115 113.129 93.2115 113.844C93.2115 114.559 93.3875 115.103 93.7395 115.476C94.1022 115.849 94.5448 116.036 95.0675 116.036C95.5902 116.036 96.0275 115.849 96.3795 115.476C96.7315 115.103 96.9075 114.559 96.9075 113.844C96.9075 113.129 96.7315 112.585 96.3795 112.212C96.0275 111.828 95.5902 111.636 95.0675 111.636ZM109.99 109.38V118.308H107.238V116.692C106.982 117.215 106.598 117.631 106.086 117.94C105.585 118.249 104.998 118.404 104.326 118.404C103.302 118.404 102.486 118.063 101.878 117.38C101.281 116.697 100.982 115.759 100.982 114.564V109.38H103.702V114.228C103.702 114.836 103.857 115.311 104.166 115.652C104.486 115.983 104.913 116.148 105.446 116.148C106.001 116.148 106.438 115.972 106.758 115.62C107.078 115.268 107.238 114.767 107.238 114.116V109.38H109.99ZM116.932 115.956V118.308H115.7C114.655 118.308 113.839 118.052 113.252 117.54C112.676 117.017 112.388 116.159 112.388 114.964V111.684H111.188V109.38H112.388V107.188H115.124V109.38H116.916V111.684H115.124V115.012C115.124 115.364 115.193 115.609 115.332 115.748C115.481 115.887 115.727 115.956 116.068 115.956H116.932ZM124.409 114.34V118.308H121.673V106.996H126.105C127.449 106.996 128.473 107.332 129.177 108.004C129.881 108.665 130.233 109.561 130.233 110.692C130.233 111.396 130.073 112.025 129.753 112.58C129.443 113.124 128.979 113.556 128.361 113.876C127.742 114.185 126.99 114.34 126.105 114.34H124.409ZM125.801 112.148C126.899 112.148 127.449 111.663 127.449 110.692C127.449 109.7 126.899 109.204 125.801 109.204H124.409V112.148H125.801ZM134.827 109.268C135.958 109.268 136.859 109.551 137.531 110.116C138.214 110.681 138.64 111.428 138.811 112.356H136.251C136.176 111.993 136.006 111.711 135.739 111.508C135.483 111.295 135.158 111.188 134.763 111.188C134.454 111.188 134.219 111.257 134.059 111.396C133.899 111.524 133.819 111.711 133.819 111.956C133.819 112.233 133.963 112.441 134.251 112.58C134.55 112.719 135.014 112.857 135.643 112.996C136.326 113.156 136.886 113.321 137.323 113.492C137.76 113.652 138.139 113.919 138.459 114.292C138.779 114.665 138.939 115.167 138.939 115.796C138.939 116.308 138.8 116.761 138.523 117.156C138.246 117.551 137.846 117.86 137.323 118.084C136.8 118.308 136.182 118.42 135.467 118.42C134.262 118.42 133.296 118.153 132.571 117.62C131.846 117.087 131.403 116.324 131.243 115.332H133.883C133.926 115.716 134.086 116.009 134.363 116.212C134.651 116.415 135.019 116.516 135.467 116.516C135.776 116.516 136.011 116.447 136.171 116.308C136.331 116.159 136.411 115.967 136.411 115.732C136.411 115.423 136.262 115.204 135.963 115.076C135.675 114.937 135.2 114.793 134.539 114.644C133.878 114.505 133.334 114.356 132.907 114.196C132.48 114.036 132.112 113.78 131.803 113.428C131.494 113.065 131.339 112.575 131.339 111.956C131.339 111.156 131.643 110.511 132.251 110.02C132.859 109.519 133.718 109.268 134.827 109.268ZM148.934 113.604C148.934 113.828 148.907 114.073 148.854 114.34H142.662C142.694 115.012 142.865 115.497 143.174 115.796C143.483 116.084 143.878 116.228 144.358 116.228C144.763 116.228 145.099 116.127 145.366 115.924C145.633 115.721 145.809 115.46 145.894 115.14H148.79C148.673 115.769 148.417 116.335 148.022 116.836C147.627 117.327 147.126 117.716 146.518 118.004C145.91 118.281 145.233 118.42 144.486 118.42C143.611 118.42 142.833 118.239 142.15 117.876C141.478 117.503 140.95 116.969 140.566 116.276C140.182 115.583 139.99 114.772 139.99 113.844C139.99 112.905 140.177 112.095 140.55 111.412C140.934 110.719 141.467 110.191 142.15 109.828C142.833 109.455 143.611 109.268 144.486 109.268C145.371 109.268 146.15 109.449 146.822 109.812C147.494 110.175 148.011 110.687 148.374 111.348C148.747 111.999 148.934 112.751 148.934 113.604ZM146.166 113.188C146.177 112.601 146.017 112.164 145.686 111.876C145.366 111.577 144.966 111.428 144.486 111.428C143.985 111.428 143.569 111.577 143.238 111.876C142.907 112.175 142.721 112.612 142.678 113.188H146.166ZM159.24 109.38V118.308H156.488V116.692C156.232 117.215 155.848 117.631 155.336 117.94C154.835 118.249 154.248 118.404 153.576 118.404C152.552 118.404 151.736 118.063 151.128 117.38C150.531 116.697 150.232 115.759 150.232 114.564V109.38H152.952V114.228C152.952 114.836 153.107 115.311 153.416 115.652C153.736 115.983 154.163 116.148 154.696 116.148C155.251 116.148 155.688 115.972 156.008 115.62C156.328 115.268 156.488 114.767 156.488 114.116V109.38H159.24ZM164.518 109.268C165.201 109.268 165.787 109.423 166.278 109.732C166.769 110.041 167.126 110.463 167.35 110.996V106.468H170.086V118.308H167.35V116.692C167.126 117.225 166.769 117.647 166.278 117.956C165.787 118.265 165.201 118.42 164.518 118.42C163.782 118.42 163.121 118.239 162.534 117.876C161.958 117.503 161.499 116.969 161.158 116.276C160.827 115.583 160.662 114.772 160.662 113.844C160.662 112.905 160.827 112.095 161.158 111.412C161.499 110.719 161.958 110.191 162.534 109.828C163.121 109.455 163.782 109.268 164.518 109.268ZM165.398 111.668C164.811 111.668 164.337 111.86 163.974 112.244C163.622 112.628 163.446 113.161 163.446 113.844C163.446 114.527 163.622 115.06 163.974 115.444C164.337 115.828 164.811 116.02 165.398 116.02C165.974 116.02 166.443 115.823 166.806 115.428C167.179 115.033 167.366 114.505 167.366 113.844C167.366 113.172 167.179 112.644 166.806 112.26C166.443 111.865 165.974 111.668 165.398 111.668ZM176.146 109.268C177.031 109.268 177.82 109.455 178.514 109.828C179.218 110.191 179.767 110.719 180.162 111.412C180.567 112.105 180.77 112.916 180.77 113.844C180.77 114.772 180.567 115.583 180.162 116.276C179.767 116.969 179.218 117.503 178.514 117.876C177.82 118.239 177.031 118.42 176.146 118.42C175.26 118.42 174.466 118.239 173.762 117.876C173.058 117.503 172.503 116.969 172.098 116.276C171.703 115.583 171.506 114.772 171.506 113.844C171.506 112.916 171.703 112.105 172.098 111.412C172.503 110.719 173.058 110.191 173.762 109.828C174.466 109.455 175.26 109.268 176.146 109.268ZM176.146 111.636C175.623 111.636 175.18 111.828 174.818 112.212C174.466 112.585 174.29 113.129 174.29 113.844C174.29 114.559 174.466 115.103 174.818 115.476C175.18 115.849 175.623 116.036 176.146 116.036C176.668 116.036 177.106 115.849 177.458 115.476C177.81 115.103 177.986 114.559 177.986 113.844C177.986 113.129 177.81 112.585 177.458 112.212C177.106 111.828 176.668 111.636 176.146 111.636ZM187.852 109.284C188.876 109.284 189.687 109.625 190.284 110.308C190.892 110.991 191.196 111.929 191.196 113.124V118.308H188.46V113.444C188.46 112.847 188.3 112.383 187.98 112.052C187.671 111.711 187.255 111.54 186.732 111.54C186.178 111.54 185.735 111.716 185.404 112.068C185.084 112.42 184.924 112.921 184.924 113.572V118.308H182.188V109.38H184.924V111.012C185.18 110.479 185.559 110.057 186.06 109.748C186.572 109.439 187.17 109.284 187.852 109.284ZM195.065 109.38L197.209 114.852L199.209 109.38H202.233L196.665 122.564H193.657L195.753 117.972L192.009 109.38H195.065ZM214.71 109.284C215.808 109.284 216.672 109.625 217.302 110.308C217.931 110.98 218.246 111.919 218.246 113.124V118.308H215.526V113.444C215.526 112.879 215.371 112.441 215.062 112.132C214.763 111.812 214.352 111.652 213.83 111.652C213.286 111.652 212.854 111.823 212.534 112.164C212.224 112.495 212.07 112.964 212.07 113.572V118.308H209.334V113.444C209.334 112.879 209.184 112.441 208.886 112.132C208.587 111.812 208.176 111.652 207.654 111.652C207.11 111.652 206.678 111.817 206.358 112.148C206.038 112.479 205.878 112.953 205.878 113.572V118.308H203.142V109.38H205.878V110.9C206.112 110.399 206.47 110.004 206.95 109.716C207.44 109.428 208.011 109.284 208.662 109.284C209.344 109.284 209.947 109.444 210.47 109.764C210.992 110.073 211.387 110.521 211.654 111.108C211.963 110.553 212.384 110.111 212.918 109.78C213.462 109.449 214.059 109.284 214.71 109.284ZM219.807 106.868C219.807 106.452 219.957 106.111 220.255 105.844C220.554 105.567 220.949 105.428 221.439 105.428C221.93 105.428 222.325 105.567 222.623 105.844C222.922 106.111 223.071 106.452 223.071 106.868C223.071 107.273 222.922 107.615 222.623 107.892C222.325 108.159 221.93 108.292 221.439 108.292C220.949 108.292 220.554 108.159 220.255 107.892C219.957 107.615 219.807 107.273 219.807 106.868ZM222.799 109.38V118.308H220.063V109.38H222.799ZM227.936 109.268C229.067 109.268 229.968 109.551 230.64 110.116C231.323 110.681 231.75 111.428 231.92 112.356H229.36C229.286 111.993 229.115 111.711 228.848 111.508C228.592 111.295 228.267 111.188 227.872 111.188C227.563 111.188 227.328 111.257 227.168 111.396C227.008 111.524 226.928 111.711 226.928 111.956C226.928 112.233 227.072 112.441 227.36 112.58C227.659 112.719 228.123 112.857 228.752 112.996C229.435 113.156 229.995 113.321 230.432 113.492C230.87 113.652 231.248 113.919 231.568 114.292C231.888 114.665 232.048 115.167 232.048 115.796C232.048 116.308 231.91 116.761 231.632 117.156C231.355 117.551 230.955 117.86 230.432 118.084C229.91 118.308 229.291 118.42 228.576 118.42C227.371 118.42 226.406 118.153 225.68 117.62C224.955 117.087 224.512 116.324 224.352 115.332H226.992C227.035 115.716 227.195 116.009 227.472 116.212C227.76 116.415 228.128 116.516 228.576 116.516C228.886 116.516 229.12 116.447 229.28 116.308C229.44 116.159 229.52 115.967 229.52 115.732C229.52 115.423 229.371 115.204 229.072 115.076C228.784 114.937 228.31 114.793 227.648 114.644C226.987 114.505 226.443 114.356 226.016 114.196C225.59 114.036 225.222 113.78 224.912 113.428C224.603 113.065 224.448 112.575 224.448 111.956C224.448 111.156 224.752 110.511 225.36 110.02C225.968 109.519 226.827 109.268 227.936 109.268ZM236.955 109.268C237.638 109.268 238.225 109.423 238.715 109.732C239.206 110.041 239.569 110.463 239.803 110.996V109.38H242.523V118.308H239.803V116.692C239.569 117.225 239.206 117.647 238.715 117.956C238.225 118.265 237.638 118.42 236.955 118.42C236.219 118.42 235.558 118.239 234.971 117.876C234.395 117.503 233.937 116.969 233.595 116.276C233.265 115.583 233.099 114.772 233.099 113.844C233.099 112.905 233.265 112.095 233.595 111.412C233.937 110.719 234.395 110.191 234.971 109.828C235.558 109.455 236.219 109.268 236.955 109.268ZM237.835 111.668C237.249 111.668 236.774 111.86 236.411 112.244C236.059 112.628 235.883 113.161 235.883 113.844C235.883 114.527 236.059 115.06 236.411 115.444C236.774 115.828 237.249 116.02 237.835 116.02C238.411 116.02 238.881 115.823 239.243 115.428C239.617 115.033 239.803 114.505 239.803 113.844C239.803 113.172 239.617 112.644 239.243 112.26C238.881 111.865 238.411 111.668 237.835 111.668ZM249.463 115.956V118.308H248.231C247.186 118.308 246.37 118.052 245.783 117.54C245.207 117.017 244.919 116.159 244.919 114.964V111.684H243.719V109.38H244.919V107.188H247.655V109.38H249.447V111.684H247.655V115.012C247.655 115.364 247.724 115.609 247.863 115.748C248.012 115.887 248.258 115.956 248.599 115.956H249.463ZM250.745 106.868C250.745 106.452 250.894 106.111 251.193 105.844C251.492 105.567 251.886 105.428 252.377 105.428C252.868 105.428 253.262 105.567 253.561 105.844C253.86 106.111 254.009 106.452 254.009 106.868C254.009 107.273 253.86 107.615 253.561 107.892C253.262 108.159 252.868 108.292 252.377 108.292C251.886 108.292 251.492 108.159 251.193 107.892C250.894 107.615 250.745 107.273 250.745 106.868ZM253.737 109.38V118.308H251.001V109.38H253.737ZM259.802 109.268C260.687 109.268 261.477 109.455 262.17 109.828C262.874 110.191 263.423 110.719 263.818 111.412C264.223 112.105 264.426 112.916 264.426 113.844C264.426 114.772 264.223 115.583 263.818 116.276C263.423 116.969 262.874 117.503 262.17 117.876C261.477 118.239 260.687 118.42 259.802 118.42C258.917 118.42 258.122 118.239 257.418 117.876C256.714 117.503 256.159 116.969 255.754 116.276C255.359 115.583 255.162 114.772 255.162 113.844C255.162 112.916 255.359 112.105 255.754 111.412C256.159 110.719 256.714 110.191 257.418 109.828C258.122 109.455 258.917 109.268 259.802 109.268ZM259.802 111.636C259.279 111.636 258.837 111.828 258.474 112.212C258.122 112.585 257.946 113.129 257.946 113.844C257.946 114.559 258.122 115.103 258.474 115.476C258.837 115.849 259.279 116.036 259.802 116.036C260.325 116.036 260.762 115.849 261.114 115.476C261.466 115.103 261.642 114.559 261.642 113.844C261.642 113.129 261.466 112.585 261.114 112.212C260.762 111.828 260.325 111.636 259.802 111.636ZM271.509 109.284C272.533 109.284 273.343 109.625 273.941 110.308C274.549 110.991 274.853 111.929 274.853 113.124V118.308H272.117V113.444C272.117 112.847 271.957 112.383 271.637 112.052C271.327 111.711 270.911 111.54 270.389 111.54C269.834 111.54 269.391 111.716 269.061 112.068C268.741 112.42 268.581 112.921 268.581 113.572V118.308H265.845V109.38H268.581V111.012C268.837 110.479 269.215 110.057 269.717 109.748C270.229 109.439 270.826 109.284 271.509 109.284Z" fill="#E9453B"/>
<g clip-path="url(#clip0)">
<path fill-rule="evenodd" clip-rule="evenodd" d="M75.1869 221C76.7289 219.507 82.803 214.104 89.9289 214.104C92.5921 214.104 95.368 214.849 98.1919 216.316C94.9187 218.335 92.8587 220.523 92.7658 220.623C92.5677 220.835 92.5677 221.165 92.7658 221.378C92.8587 221.477 94.9187 223.665 98.1919 225.685C95.368 227.151 92.5921 227.896 89.9289 227.896C82.8027 227.896 76.7282 222.492 75.1869 221ZM69.7671 225.533C69.3257 225.533 68.8765 225.502 68.4224 225.44C71.4895 223.858 72.2262 221.272 72.2605 221.145C72.2862 221.051 72.2862 220.95 72.2605 220.855C72.2262 220.729 71.4893 218.141 68.4213 216.56C68.8756 216.498 69.325 216.467 69.767 216.467C72.4593 216.467 74.609 217.62 76.0608 218.738C74.7906 219.789 74.0543 220.572 74.0077 220.623C73.8096 220.835 73.8095 221.165 74.0077 221.377C74.0543 221.427 74.7907 222.211 76.0613 223.262C74.6087 224.38 72.4586 225.533 69.7671 225.533ZM104.595 221.076C104.592 221.079 104.589 221.082 104.586 221.085C104.561 221.109 104.537 221.132 104.511 221.157C104.502 221.165 104.493 221.173 104.485 221.181C104.463 221.202 104.441 221.223 104.419 221.244C104.408 221.254 104.398 221.264 104.387 221.273C104.365 221.294 104.343 221.315 104.32 221.336C104.308 221.348 104.294 221.361 104.281 221.373C104.259 221.393 104.238 221.413 104.216 221.433C104.201 221.447 104.186 221.461 104.171 221.474C104.149 221.495 104.126 221.515 104.103 221.536C104.088 221.55 104.072 221.564 104.056 221.578C104.033 221.6 104.009 221.621 103.985 221.643C103.968 221.658 103.951 221.674 103.934 221.689C103.91 221.71 103.885 221.732 103.861 221.754C103.843 221.77 103.825 221.786 103.807 221.802C103.781 221.825 103.755 221.847 103.729 221.87C103.71 221.887 103.691 221.904 103.672 221.92C103.646 221.943 103.619 221.966 103.593 221.989C103.572 222.007 103.551 222.026 103.529 222.044C103.503 222.067 103.476 222.089 103.449 222.112C103.427 222.131 103.405 222.15 103.383 222.169C103.355 222.192 103.328 222.215 103.3 222.239C103.277 222.259 103.253 222.279 103.229 222.299C103.201 222.322 103.173 222.345 103.145 222.369C103.12 222.389 103.095 222.41 103.07 222.431C103.042 222.454 103.013 222.478 102.985 222.501C102.958 222.523 102.932 222.544 102.905 222.566C102.876 222.59 102.847 222.613 102.818 222.637C102.79 222.659 102.763 222.681 102.735 222.704C102.705 222.728 102.675 222.752 102.645 222.776C102.616 222.798 102.588 222.821 102.559 222.844C102.529 222.868 102.498 222.892 102.467 222.916C102.437 222.939 102.408 222.962 102.378 222.986C102.346 223.01 102.315 223.034 102.283 223.059C102.252 223.082 102.222 223.106 102.191 223.13C102.159 223.154 102.126 223.179 102.093 223.204C102.062 223.228 102.03 223.252 101.998 223.276C101.966 223.3 101.933 223.324 101.9 223.349C101.867 223.374 101.834 223.398 101.8 223.423C101.767 223.448 101.734 223.472 101.701 223.496C101.666 223.521 101.632 223.547 101.597 223.572C101.564 223.596 101.531 223.62 101.498 223.644C101.461 223.67 101.425 223.696 101.388 223.722C101.355 223.746 101.321 223.77 101.287 223.793C101.25 223.82 101.213 223.846 101.176 223.872C101.142 223.896 101.107 223.919 101.073 223.943C101.035 223.97 100.996 223.997 100.957 224.023C100.924 224.046 100.889 224.07 100.855 224.093C100.815 224.12 100.775 224.147 100.734 224.175C100.701 224.197 100.667 224.22 100.633 224.242C100.591 224.27 100.549 224.298 100.507 224.326C100.474 224.347 100.442 224.368 100.409 224.39C100.364 224.419 100.319 224.448 100.274 224.477C100.245 224.496 100.215 224.515 100.185 224.534C100.136 224.565 100.087 224.597 100.037 224.628C100.016 224.641 99.9946 224.655 99.9736 224.668C99.7665 224.797 99.5544 224.926 99.3377 225.053C99.328 225.059 99.3186 225.065 99.3091 225.07C96.6677 223.524 94.7239 221.758 93.9439 221C94.724 220.242 96.6677 218.476 99.3091 216.93C99.3345 216.945 99.3595 216.96 99.3848 216.975C99.5764 217.088 99.7644 217.202 99.9484 217.317C99.9776 217.335 100.007 217.353 100.036 217.372C100.081 217.4 100.125 217.428 100.17 217.457C100.204 217.479 100.239 217.501 100.273 217.523C100.316 217.55 100.357 217.577 100.399 217.604C100.434 217.627 100.47 217.65 100.505 217.673C100.547 217.701 100.587 217.728 100.628 217.755C100.663 217.778 100.698 217.801 100.732 217.824C100.773 217.852 100.812 217.879 100.852 217.906C100.887 217.929 100.921 217.952 100.955 217.976C100.994 218.002 101.032 218.029 101.07 218.055C101.105 218.079 101.139 218.103 101.173 218.127C101.211 218.153 101.248 218.18 101.286 218.206C101.319 218.229 101.352 218.253 101.385 218.276C101.423 218.303 101.461 218.33 101.498 218.357C101.53 218.38 101.561 218.403 101.592 218.425C101.629 218.452 101.666 218.479 101.702 218.505C101.734 218.528 101.765 218.551 101.796 218.574C101.831 218.6 101.866 218.627 101.902 218.653C101.932 218.676 101.963 218.698 101.993 218.721C102.028 218.747 102.062 218.773 102.097 218.799C102.126 218.822 102.155 218.844 102.184 218.866C102.219 218.892 102.252 218.918 102.286 218.944C102.314 218.966 102.343 218.988 102.37 219.01C102.404 219.036 102.438 219.062 102.472 219.089C102.498 219.109 102.524 219.13 102.55 219.15C102.584 219.177 102.617 219.203 102.65 219.229C102.675 219.25 102.701 219.27 102.726 219.29C102.758 219.316 102.79 219.342 102.821 219.367C102.847 219.387 102.871 219.407 102.896 219.428C102.927 219.453 102.958 219.478 102.989 219.503C103.012 219.522 103.036 219.542 103.059 219.561C103.09 219.586 103.121 219.612 103.151 219.637C103.173 219.655 103.194 219.673 103.216 219.691C103.246 219.717 103.277 219.742 103.306 219.767C103.327 219.785 103.347 219.802 103.368 219.819C103.397 219.844 103.427 219.869 103.456 219.894C103.475 219.91 103.494 219.927 103.513 219.943C103.542 219.968 103.571 219.993 103.599 220.017C103.617 220.033 103.635 220.048 103.653 220.064C103.681 220.088 103.708 220.113 103.735 220.136C103.753 220.151 103.769 220.166 103.786 220.181C103.813 220.205 103.84 220.229 103.866 220.252C103.882 220.266 103.898 220.28 103.913 220.294C103.939 220.317 103.965 220.34 103.99 220.362C104.005 220.376 104.02 220.389 104.035 220.403C104.059 220.425 104.084 220.447 104.108 220.469C104.121 220.481 104.133 220.492 104.146 220.504C104.171 220.527 104.196 220.55 104.221 220.572C104.231 220.581 104.24 220.59 104.25 220.599C104.275 220.623 104.3 220.646 104.324 220.668C104.335 220.678 104.345 220.687 104.355 220.697C104.378 220.718 104.4 220.739 104.422 220.76C104.432 220.769 104.441 220.778 104.451 220.787C104.472 220.807 104.492 220.826 104.512 220.845C104.525 220.857 104.536 220.868 104.548 220.88C104.565 220.895 104.581 220.911 104.597 220.926C104.623 220.951 104.649 220.976 104.674 221C104.649 221.025 104.622 221.05 104.595 221.076ZM105.851 220.623C105.833 220.602 105.732 220.496 105.558 220.322C105.414 220.179 105.22 219.991 104.979 219.768C104.97 219.76 104.962 219.753 104.954 219.745C104.869 219.667 104.779 219.585 104.684 219.499C104.665 219.483 104.647 219.467 104.628 219.45C103.547 218.484 101.799 217.076 99.5801 215.813C99.58 215.813 99.58 215.813 99.58 215.813C99.5799 215.813 99.5799 215.813 99.5799 215.813C96.297 213.946 93.0499 213 89.9289 213C85.3647 213 81.2772 215.075 78.6517 216.815C78.0285 217.228 77.4581 217.64 76.9467 218.033C75.3522 216.753 72.8993 215.363 69.7671 215.363C68.6681 215.363 67.5329 215.535 66.3931 215.876C66.1598 215.945 65.9998 216.16 66 216.405C66 216.649 66.1601 216.864 66.3935 216.934C69.8569 217.964 70.9286 220.377 71.1523 221C70.9271 221.627 69.8545 224.036 66.3934 225.067C66.16 225.136 66 225.352 66 225.596C66 225.841 66.1601 226.056 66.3936 226.125C67.5349 226.465 68.67 226.637 69.7671 226.637C72.8985 226.637 75.3521 225.247 76.9471 223.967C77.4584 224.36 78.0286 224.772 78.6517 225.185C81.2772 226.925 85.3646 229 89.9289 229C93.05 229 96.2972 228.054 99.5801 226.187C102.989 224.247 105.287 221.962 105.763 221.47C105.812 221.419 105.842 221.387 105.852 221.377C106.049 221.165 106.049 220.835 105.851 220.623Z" fill="#5F64C8"/>
<path fill-rule="evenodd" clip-rule="evenodd" d="M98.6437 219.169C97.9023 219.169 97.3012 219.773 97.3012 220.517C97.3012 221.262 97.9022 221.865 98.6436 221.865C99.3848 221.865 99.9858 221.262 99.9858 220.517C99.9858 219.773 99.3848 219.169 98.6437 219.169Z" fill="#5F64C8"/>
</g>
<g clip-path="url(#clip1)">
<path fill-rule="evenodd" clip-rule="evenodd" d="M156.187 242C157.729 240.507 163.803 235.104 170.929 235.104C173.592 235.104 176.368 235.849 179.192 237.316C175.919 239.335 173.859 241.523 173.766 241.623C173.568 241.835 173.568 242.165 173.766 242.378C173.859 242.477 175.919 244.665 179.192 246.685C176.368 248.151 173.592 248.896 170.929 248.896C163.803 248.896 157.728 243.492 156.187 242ZM150.767 246.533C150.326 246.533 149.877 246.502 149.422 246.44C152.49 244.858 153.226 242.272 153.26 242.145C153.286 242.051 153.286 241.95 153.26 241.855C153.226 241.729 152.489 239.141 149.421 237.56C149.876 237.498 150.325 237.467 150.767 237.467C153.459 237.467 155.609 238.62 157.061 239.738C155.791 240.789 155.054 241.572 155.008 241.623C154.81 241.835 154.81 242.165 155.008 242.377C155.054 242.427 155.791 243.211 157.061 244.262C155.609 245.38 153.459 246.533 150.767 246.533ZM185.595 242.076C185.592 242.079 185.589 242.082 185.586 242.085C185.561 242.109 185.537 242.132 185.511 242.157C185.502 242.165 185.493 242.173 185.485 242.181C185.463 242.202 185.441 242.223 185.419 242.244C185.408 242.254 185.398 242.264 185.387 242.273C185.365 242.294 185.343 242.315 185.32 242.336C185.308 242.348 185.294 242.361 185.281 242.373C185.259 242.393 185.238 242.413 185.216 242.433C185.201 242.447 185.186 242.461 185.171 242.474C185.149 242.495 185.126 242.515 185.103 242.536C185.088 242.55 185.072 242.564 185.056 242.578C185.033 242.6 185.009 242.621 184.985 242.643C184.968 242.658 184.951 242.674 184.934 242.689C184.91 242.71 184.885 242.732 184.861 242.754C184.843 242.77 184.825 242.786 184.807 242.802C184.781 242.825 184.755 242.847 184.729 242.87C184.71 242.887 184.691 242.904 184.672 242.92C184.646 242.943 184.619 242.966 184.593 242.989C184.572 243.007 184.551 243.026 184.529 243.044C184.503 243.067 184.476 243.089 184.449 243.112C184.427 243.131 184.405 243.15 184.383 243.169C184.355 243.192 184.328 243.215 184.3 243.239C184.277 243.259 184.253 243.279 184.229 243.299C184.201 243.322 184.173 243.345 184.145 243.369C184.12 243.389 184.095 243.41 184.07 243.431C184.042 243.454 184.013 243.478 183.985 243.501C183.958 243.523 183.932 243.544 183.905 243.566C183.876 243.59 183.847 243.613 183.818 243.637C183.79 243.659 183.763 243.681 183.735 243.704C183.705 243.728 183.675 243.752 183.645 243.776C183.616 243.798 183.588 243.821 183.559 243.844C183.529 243.868 183.498 243.892 183.467 243.916C183.437 243.939 183.408 243.962 183.378 243.986C183.346 244.01 183.315 244.034 183.283 244.059C183.252 244.082 183.222 244.106 183.191 244.13C183.159 244.154 183.126 244.179 183.093 244.204C183.062 244.228 183.03 244.252 182.998 244.276C182.966 244.3 182.933 244.324 182.9 244.349C182.867 244.374 182.834 244.398 182.8 244.423C182.767 244.448 182.734 244.472 182.701 244.496C182.666 244.521 182.632 244.547 182.597 244.572C182.564 244.596 182.531 244.62 182.498 244.644C182.461 244.67 182.425 244.696 182.388 244.722C182.355 244.746 182.321 244.77 182.287 244.793C182.25 244.82 182.213 244.846 182.176 244.872C182.142 244.896 182.107 244.919 182.073 244.943C182.035 244.97 181.996 244.997 181.957 245.023C181.924 245.046 181.889 245.07 181.855 245.093C181.815 245.12 181.775 245.147 181.734 245.175C181.701 245.197 181.667 245.22 181.633 245.242C181.591 245.27 181.549 245.298 181.507 245.326C181.474 245.347 181.442 245.368 181.409 245.39C181.364 245.419 181.319 245.448 181.274 245.477C181.245 245.496 181.215 245.515 181.185 245.534C181.136 245.565 181.087 245.597 181.037 245.628C181.016 245.641 180.995 245.655 180.974 245.668C180.767 245.797 180.554 245.926 180.338 246.053C180.328 246.059 180.319 246.065 180.309 246.07C177.668 244.524 175.724 242.758 174.944 242C175.724 241.242 177.668 239.476 180.309 237.93C180.334 237.945 180.36 237.96 180.385 237.975C180.576 238.088 180.764 238.202 180.948 238.317C180.978 238.335 181.007 238.353 181.036 238.372C181.081 238.4 181.125 238.428 181.17 238.457C181.204 238.479 181.239 238.501 181.273 238.523C181.316 238.55 181.357 238.577 181.399 238.604C181.434 238.627 181.47 238.65 181.505 238.673C181.547 238.701 181.587 238.728 181.628 238.755C181.663 238.778 181.698 238.801 181.732 238.824C181.773 238.852 181.812 238.879 181.852 238.906C181.887 238.929 181.921 238.952 181.955 238.976C181.994 239.002 182.032 239.029 182.07 239.055C182.105 239.079 182.139 239.103 182.173 239.127C182.211 239.153 182.248 239.18 182.286 239.206C182.319 239.229 182.352 239.253 182.385 239.276C182.423 239.303 182.461 239.33 182.498 239.357C182.53 239.38 182.561 239.403 182.592 239.425C182.629 239.452 182.666 239.479 182.702 239.505C182.734 239.528 182.765 239.551 182.796 239.574C182.831 239.6 182.866 239.627 182.902 239.653C182.932 239.676 182.963 239.698 182.993 239.721C183.028 239.747 183.062 239.773 183.097 239.799C183.126 239.822 183.155 239.844 183.184 239.866C183.219 239.892 183.252 239.918 183.286 239.944C183.314 239.966 183.343 239.988 183.37 240.01C183.404 240.036 183.438 240.062 183.472 240.089C183.498 240.109 183.524 240.13 183.55 240.15C183.584 240.177 183.617 240.203 183.65 240.229C183.675 240.25 183.701 240.27 183.726 240.29C183.758 240.316 183.79 240.342 183.821 240.367C183.847 240.387 183.871 240.407 183.896 240.428C183.927 240.453 183.958 240.478 183.989 240.503C184.012 240.522 184.036 240.542 184.059 240.561C184.09 240.586 184.121 240.612 184.151 240.637C184.173 240.655 184.194 240.673 184.216 240.691C184.246 240.717 184.277 240.742 184.306 240.767C184.327 240.785 184.347 240.802 184.368 240.819C184.397 240.844 184.427 240.869 184.456 240.894C184.475 240.91 184.494 240.927 184.513 240.943C184.542 240.968 184.571 240.993 184.599 241.017C184.617 241.033 184.635 241.048 184.653 241.064C184.681 241.088 184.708 241.113 184.736 241.136C184.753 241.151 184.769 241.166 184.786 241.181C184.813 241.205 184.84 241.229 184.866 241.252C184.882 241.266 184.898 241.28 184.913 241.294C184.939 241.317 184.965 241.34 184.99 241.362C185.005 241.376 185.02 241.389 185.035 241.403C185.059 241.425 185.084 241.447 185.108 241.469C185.121 241.481 185.133 241.492 185.146 241.504C185.171 241.527 185.196 241.55 185.221 241.572C185.231 241.581 185.24 241.59 185.25 241.599C185.275 241.623 185.3 241.646 185.324 241.668C185.335 241.678 185.345 241.687 185.355 241.697C185.378 241.718 185.4 241.739 185.422 241.76C185.432 241.769 185.441 241.778 185.451 241.787C185.472 241.807 185.492 241.826 185.512 241.845C185.525 241.857 185.536 241.868 185.548 241.88C185.565 241.895 185.581 241.911 185.597 241.926C185.623 241.951 185.649 241.976 185.674 242C185.649 242.025 185.622 242.05 185.595 242.076ZM186.851 241.623C186.833 241.602 186.732 241.496 186.558 241.322C186.414 241.179 186.22 240.991 185.979 240.768C185.97 240.76 185.962 240.753 185.954 240.745C185.869 240.667 185.779 240.585 185.684 240.499C185.665 240.483 185.647 240.467 185.628 240.45C184.547 239.484 182.799 238.076 180.58 236.813C180.58 236.813 180.58 236.813 180.58 236.813C180.58 236.813 180.58 236.813 180.58 236.813C177.297 234.946 174.05 234 170.929 234C166.365 234 162.277 236.075 159.652 237.815C159.028 238.228 158.458 238.64 157.947 239.033C156.352 237.753 153.899 236.363 150.767 236.363C149.668 236.363 148.533 236.535 147.393 236.876C147.16 236.945 147 237.16 147 237.405C147 237.649 147.16 237.864 147.394 237.934C150.857 238.964 151.929 241.377 152.152 242C151.927 242.627 150.854 245.036 147.393 246.067C147.16 246.136 147 246.352 147 246.596C147 246.841 147.16 247.056 147.394 247.125C148.535 247.465 149.67 247.637 150.767 247.637C153.898 247.637 156.352 246.247 157.947 244.967C158.458 245.36 159.029 245.772 159.652 246.185C162.277 247.925 166.365 250 170.929 250C174.05 250 177.297 249.054 180.58 247.187C183.989 245.247 186.287 242.962 186.763 242.47C186.812 242.419 186.842 242.387 186.852 242.377C187.049 242.165 187.049 241.835 186.851 241.623Z" fill="#5F64C8"/>
<path fill-rule="evenodd" clip-rule="evenodd" d="M179.644 240.169C178.902 240.169 178.301 240.773 178.301 241.517C178.301 242.262 178.902 242.865 179.644 242.865C180.385 242.865 180.986 242.262 180.986 241.517C180.986 240.773 180.385 240.169 179.644 240.169Z" fill="#5F64C8"/>
</g>
<g clip-path="url(#clip2)">
<path fill-rule="evenodd" clip-rule="evenodd" d="M78.4208 244.5C77.1486 243.287 72.1375 238.897 66.2586 238.897C64.0615 238.897 61.7714 239.502 59.4417 240.694C62.1421 242.335 63.8415 244.112 63.9182 244.193C64.0816 244.366 64.0816 244.634 63.9182 244.807C63.8415 244.888 62.142 246.665 59.4417 248.306C61.7714 249.498 64.0615 250.103 66.2586 250.103C72.1377 250.103 77.1492 245.713 78.4208 244.5ZM82.8921 248.183C83.2563 248.183 83.6269 248.158 84.0015 248.107C81.4711 246.822 80.8633 244.721 80.8351 244.618C80.8138 244.541 80.8138 244.46 80.8351 244.383C80.8633 244.28 81.4713 242.177 84.0024 240.892C83.6276 240.842 83.2568 240.817 82.8922 240.817C80.671 240.817 78.8975 241.754 77.6998 242.662C78.7477 243.516 79.3552 244.153 79.3937 244.193C79.5571 244.366 79.5571 244.634 79.3937 244.807C79.3552 244.847 78.7476 245.484 77.6994 246.338C78.8978 247.246 80.6717 248.183 82.8921 248.183ZM54.1592 244.562C54.1616 244.564 54.1643 244.567 54.1669 244.569C54.1868 244.588 54.2074 244.608 54.2288 244.628C54.2355 244.634 54.2429 244.641 54.2498 244.647C54.2677 244.664 54.2858 244.681 54.3047 244.699C54.313 244.706 54.3219 244.714 54.3304 244.722C54.3485 244.739 54.3667 244.756 54.3856 244.773C54.3962 244.783 54.4075 244.793 54.4183 244.803C54.436 244.819 54.4535 244.835 54.4719 244.852C54.484 244.863 54.4968 244.874 54.5092 244.885C54.5273 244.902 54.5457 244.918 54.5647 244.935C54.5772 244.947 54.5904 244.959 54.6034 244.97C54.6227 244.987 54.6422 245.005 54.6622 245.022C54.676 245.035 54.6903 245.047 54.7046 245.06C54.7244 245.077 54.7445 245.095 54.7649 245.113C54.7795 245.126 54.7946 245.139 54.8096 245.152C54.8307 245.17 54.852 245.189 54.8738 245.207C54.8892 245.221 54.9051 245.234 54.9209 245.248C54.9423 245.266 54.964 245.285 54.9859 245.304C55.0033 245.318 55.0208 245.333 55.0383 245.348C55.0601 245.367 55.082 245.385 55.1043 245.404C55.1223 245.419 55.1409 245.435 55.1593 245.45C55.1817 245.469 55.2043 245.488 55.2273 245.507C55.2466 245.523 55.2664 245.539 55.2861 245.555C55.3089 245.574 55.3319 245.593 55.3551 245.612C55.3756 245.629 55.3965 245.646 55.4173 245.663C55.4407 245.682 55.464 245.701 55.4878 245.72C55.5094 245.737 55.5314 245.755 55.5533 245.773C55.5771 245.792 55.6011 245.811 55.6254 245.83C55.648 245.848 55.6708 245.866 55.6938 245.884C55.7183 245.904 55.7431 245.923 55.768 245.943C55.7914 245.961 55.8151 245.979 55.8388 245.998C55.864 246.018 55.8894 246.037 55.9149 246.057C55.9392 246.076 55.9636 246.094 55.9885 246.113C56.0143 246.133 56.0404 246.153 56.0665 246.173C56.0918 246.192 56.1171 246.211 56.1428 246.231C56.1691 246.25 56.1959 246.27 56.2229 246.291C56.249 246.31 56.2751 246.33 56.3017 246.349C56.3283 246.369 56.3553 246.389 56.3823 246.408C56.4097 246.429 56.4372 246.449 56.465 246.469C56.492 246.489 56.5193 246.508 56.5467 246.528C56.5754 246.549 56.6039 246.569 56.6327 246.59C56.6597 246.609 56.6871 246.629 56.7145 246.648C56.7443 246.669 56.7743 246.69 56.8045 246.712C56.832 246.731 56.86 246.75 56.8878 246.77C56.9185 246.791 56.9489 246.812 56.9799 246.834C57.0079 246.853 57.0364 246.872 57.0647 246.891C57.0965 246.913 57.128 246.935 57.1603 246.956C57.1879 246.975 57.2162 246.994 57.2443 247.013C57.2775 247.035 57.3105 247.057 57.344 247.079C57.3717 247.098 57.3997 247.116 57.4276 247.134C57.4624 247.157 57.497 247.18 57.5321 247.202C57.5586 247.22 57.5857 247.237 57.6125 247.254C57.6495 247.278 57.6866 247.302 57.7241 247.325C57.7483 247.341 57.7729 247.356 57.7973 247.371C57.8378 247.397 57.8784 247.422 57.9195 247.448C57.9368 247.459 57.9544 247.469 57.9717 247.48C58.1426 247.585 58.3176 247.69 58.4964 247.793C58.5044 247.798 58.5121 247.802 58.52 247.807C60.6991 246.551 62.3027 245.116 62.9463 244.5C62.3027 243.884 60.6992 242.449 58.52 241.193C58.499 241.205 58.4784 241.218 58.4575 241.23C58.2994 241.321 58.1443 241.414 57.9926 241.507C57.9684 241.522 57.9441 241.537 57.9202 241.552C57.883 241.575 57.8465 241.598 57.8098 241.621C57.7813 241.639 57.7527 241.657 57.7245 241.675C57.6897 241.697 57.6553 241.719 57.6208 241.741C57.5916 241.76 57.562 241.778 57.5331 241.797C57.4989 241.819 57.4654 241.841 57.4316 241.864C57.4029 241.882 57.3742 241.901 57.3458 241.92C57.3125 241.942 57.2798 241.964 57.2469 241.986C57.2185 242.005 57.19 242.024 57.1619 242.043C57.13 242.064 57.0987 242.086 57.0672 242.107C57.0387 242.127 57.0101 242.146 56.982 242.165C56.9507 242.187 56.92 242.208 56.8891 242.23C56.8617 242.249 56.8342 242.268 56.8071 242.287C56.7757 242.309 56.7448 242.331 56.714 242.353C56.6879 242.371 56.6619 242.39 56.6362 242.408C56.6057 242.43 56.5756 242.452 56.5455 242.473C56.5198 242.492 56.4941 242.51 56.4687 242.529C56.4393 242.55 56.4101 242.572 56.3811 242.593C56.356 242.611 56.3308 242.63 56.306 242.648C56.2771 242.67 56.2486 242.691 56.2202 242.712C56.196 242.73 56.1718 242.748 56.1478 242.766C56.1196 242.788 56.0917 242.809 56.0641 242.83C56.0407 242.847 56.0174 242.865 55.9944 242.883C55.9663 242.904 55.9386 242.926 55.911 242.947C55.8892 242.964 55.8675 242.981 55.846 242.997C55.8184 243.019 55.7911 243.04 55.764 243.061C55.7428 243.078 55.7216 243.094 55.7008 243.111C55.6743 243.132 55.6481 243.153 55.6224 243.173C55.6015 243.19 55.5811 243.206 55.5606 243.222C55.5349 243.243 55.5095 243.263 55.4842 243.284C55.4647 243.3 55.4456 243.315 55.4263 243.331C55.4008 243.351 55.3753 243.372 55.3504 243.393C55.3322 243.407 55.3146 243.422 55.2969 243.437C55.2717 243.457 55.2467 243.478 55.2222 243.498C55.2052 243.512 55.1885 243.526 55.1718 243.54C55.1473 243.561 55.123 243.581 55.099 243.601C55.083 243.615 55.0674 243.628 55.0517 243.641C55.0279 243.662 55.0043 243.682 54.9811 243.701C54.966 243.714 54.9512 243.727 54.9364 243.74C54.9134 243.759 54.8905 243.779 54.8682 243.798C54.8541 243.81 54.8403 243.823 54.8264 243.835C54.8041 243.854 54.782 243.873 54.7604 243.892C54.7471 243.903 54.7343 243.915 54.7214 243.926C54.7001 243.945 54.6788 243.964 54.6582 243.982C54.6457 243.993 54.6337 244.004 54.6214 244.015C54.601 244.033 54.5805 244.051 54.5607 244.069C54.55 244.078 54.54 244.088 54.5296 244.097C54.5088 244.116 54.488 244.134 54.4681 244.152C54.4597 244.16 54.4518 244.167 54.4438 244.175C54.423 244.193 54.4024 244.212 54.3825 244.23C54.3737 244.238 54.3655 244.246 54.3569 244.254C54.3383 244.271 54.3196 244.288 54.3019 244.305C54.2936 244.312 54.286 244.319 54.278 244.327C54.2608 244.343 54.2437 244.359 54.2274 244.374C54.217 244.384 54.2075 244.393 54.1975 244.402C54.184 244.415 54.1704 244.428 54.1577 244.44C54.1357 244.461 54.1145 244.481 54.0942 244.5C54.1149 244.52 54.1365 244.541 54.1592 244.562ZM53.1225 244.193C53.1381 244.177 53.2207 244.09 53.3649 243.949C53.4834 243.833 53.6438 243.68 53.8427 243.499C53.8495 243.493 53.8564 243.487 53.8633 243.48C53.9329 243.417 54.0073 243.35 54.086 243.281C54.1012 243.267 54.1163 243.254 54.1318 243.241C55.024 242.456 56.4658 241.312 58.2964 240.286C58.2965 240.286 58.2965 240.286 58.2965 240.286C58.2965 240.286 58.2965 240.286 58.2965 240.286C61.0049 238.769 63.6838 238 66.2586 238C70.0241 238 73.3963 239.686 75.5624 241.1C76.0765 241.436 76.547 241.77 76.969 242.089C78.2844 241.049 80.308 239.92 82.8921 239.92C83.7988 239.92 84.7354 240.06 85.6757 240.336C85.8682 240.393 86.0001 240.568 86 240.766C86 240.965 85.8679 241.14 85.6753 241.196C82.8181 242.033 81.9339 243.994 81.7494 244.5C81.9351 245.009 82.82 246.967 85.6754 247.804C85.868 247.861 86 248.036 86 248.234C86 248.433 85.8679 248.608 85.6752 248.664C84.7337 248.94 83.7972 249.08 82.8921 249.08C80.3087 249.08 78.2845 247.95 76.9686 246.911C76.5468 247.23 76.0764 247.564 75.5624 247.9C73.3963 249.314 70.0242 251 66.2586 251C63.6837 251 61.0048 250.231 58.2964 248.714C55.4838 247.138 53.5881 245.281 53.1955 244.882C53.1549 244.84 53.1304 244.815 53.1225 244.807C52.9592 244.634 52.9592 244.366 53.1225 244.193Z" fill="#5F64C8"/>
<path fill-rule="evenodd" clip-rule="evenodd" d="M59.069 243.013C59.6806 243.013 60.1765 243.503 60.1765 244.108C60.1765 244.713 59.6807 245.203 59.069 245.203C58.4575 245.203 57.9617 244.713 57.9617 244.108C57.9617 243.503 58.4575 243.013 59.069 243.013Z" fill="#5F64C8"/>
</g>
<g clip-path="url(#clip3)">
<path fill-rule="evenodd" clip-rule="evenodd" d="M248.421 222.5C247.149 221.287 242.137 216.897 236.259 216.897C234.061 216.897 231.771 217.502 229.442 218.694C232.142 220.335 233.842 222.112 233.918 222.193C234.082 222.366 234.082 222.634 233.918 222.807C233.842 222.888 232.142 224.665 229.442 226.306C231.771 227.498 234.061 228.103 236.259 228.103C242.138 228.103 247.149 223.713 248.421 222.5ZM252.892 226.183C253.256 226.183 253.627 226.158 254.002 226.107C251.471 224.822 250.863 222.721 250.835 222.618C250.814 222.541 250.814 222.46 250.835 222.383C250.863 222.28 251.471 220.177 254.002 218.892C253.628 218.842 253.257 218.817 252.892 218.817C250.671 218.817 248.898 219.754 247.7 220.662C248.748 221.516 249.355 222.153 249.394 222.193C249.557 222.366 249.557 222.634 249.394 222.807C249.355 222.847 248.748 223.484 247.699 224.338C248.898 225.246 250.672 226.183 252.892 226.183ZM224.159 222.562C224.162 222.564 224.164 222.567 224.167 222.569C224.187 222.588 224.207 222.608 224.229 222.628C224.236 222.634 224.243 222.641 224.25 222.647C224.268 222.664 224.286 222.681 224.305 222.699C224.313 222.706 224.322 222.714 224.33 222.722C224.349 222.739 224.367 222.756 224.386 222.773C224.396 222.783 224.407 222.793 224.418 222.803C224.436 222.819 224.454 222.835 224.472 222.852C224.484 222.863 224.497 222.874 224.509 222.885C224.527 222.902 224.546 222.918 224.565 222.935C224.577 222.947 224.59 222.959 224.603 222.97C224.623 222.987 224.642 223.005 224.662 223.022C224.676 223.035 224.69 223.047 224.705 223.06C224.724 223.077 224.744 223.095 224.765 223.113C224.78 223.126 224.795 223.139 224.81 223.152C224.831 223.17 224.852 223.189 224.874 223.207C224.889 223.221 224.905 223.234 224.921 223.248C224.942 223.266 224.964 223.285 224.986 223.304C225.003 223.318 225.021 223.333 225.038 223.348C225.06 223.367 225.082 223.385 225.104 223.404C225.122 223.419 225.141 223.435 225.159 223.45C225.182 223.469 225.204 223.488 225.227 223.507C225.247 223.523 225.266 223.539 225.286 223.555C225.309 223.574 225.332 223.593 225.355 223.612C225.376 223.629 225.397 223.646 225.417 223.663C225.441 223.682 225.464 223.701 225.488 223.72C225.509 223.737 225.531 223.755 225.553 223.773C225.577 223.792 225.601 223.811 225.625 223.83C225.648 223.848 225.671 223.866 225.694 223.884C225.718 223.904 225.743 223.923 225.768 223.943C225.791 223.961 225.815 223.979 225.839 223.998C225.864 224.018 225.889 224.037 225.915 224.057C225.939 224.076 225.964 224.094 225.989 224.113C226.014 224.133 226.04 224.153 226.066 224.173C226.092 224.192 226.117 224.211 226.143 224.231C226.169 224.25 226.196 224.27 226.223 224.291C226.249 224.31 226.275 224.33 226.302 224.349C226.328 224.369 226.355 224.389 226.382 224.408C226.41 224.429 226.437 224.449 226.465 224.469C226.492 224.489 226.519 224.508 226.547 224.528C226.575 224.549 226.604 224.569 226.633 224.59C226.66 224.609 226.687 224.629 226.714 224.648C226.744 224.669 226.774 224.69 226.805 224.712C226.832 224.731 226.86 224.75 226.888 224.77C226.918 224.791 226.949 224.812 226.98 224.834C227.008 224.853 227.036 224.872 227.065 224.891C227.096 224.913 227.128 224.935 227.16 224.956C227.188 224.975 227.216 224.994 227.244 225.013C227.277 225.035 227.31 225.057 227.344 225.079C227.372 225.098 227.4 225.116 227.428 225.134C227.462 225.157 227.497 225.18 227.532 225.202C227.559 225.22 227.586 225.237 227.612 225.254C227.65 225.278 227.687 225.302 227.724 225.325C227.748 225.341 227.773 225.356 227.797 225.371C227.838 225.397 227.878 225.422 227.919 225.448C227.937 225.459 227.954 225.469 227.972 225.48C228.143 225.585 228.318 225.69 228.496 225.793C228.504 225.798 228.512 225.802 228.52 225.807C230.699 224.551 232.303 223.116 232.946 222.5C232.303 221.884 230.699 220.449 228.52 219.193C228.499 219.205 228.478 219.218 228.457 219.23C228.299 219.321 228.144 219.414 227.993 219.507C227.968 219.522 227.944 219.537 227.92 219.552C227.883 219.575 227.846 219.598 227.81 219.621C227.781 219.639 227.753 219.657 227.724 219.675C227.69 219.697 227.655 219.719 227.621 219.741C227.592 219.76 227.562 219.778 227.533 219.797C227.499 219.819 227.465 219.841 227.432 219.864C227.403 219.882 227.374 219.901 227.346 219.92C227.313 219.942 227.28 219.964 227.247 219.986C227.218 220.005 227.19 220.024 227.162 220.043C227.13 220.064 227.099 220.086 227.067 220.107C227.039 220.127 227.01 220.146 226.982 220.165C226.951 220.187 226.92 220.208 226.889 220.23C226.862 220.249 226.834 220.268 226.807 220.287C226.776 220.309 226.745 220.331 226.714 220.353C226.688 220.371 226.662 220.39 226.636 220.408C226.606 220.43 226.576 220.452 226.546 220.473C226.52 220.492 226.494 220.51 226.469 220.529C226.439 220.55 226.41 220.572 226.381 220.593C226.356 220.611 226.331 220.63 226.306 220.648C226.277 220.67 226.249 220.691 226.22 220.712C226.196 220.73 226.172 220.748 226.148 220.766C226.12 220.788 226.092 220.809 226.064 220.83C226.041 220.847 226.017 220.865 225.994 220.883C225.966 220.904 225.939 220.926 225.911 220.947C225.889 220.964 225.867 220.981 225.846 220.997C225.818 221.019 225.791 221.04 225.764 221.061C225.743 221.078 225.722 221.094 225.701 221.111C225.674 221.132 225.648 221.153 225.622 221.173C225.602 221.19 225.581 221.206 225.561 221.222C225.535 221.243 225.509 221.263 225.484 221.284C225.465 221.3 225.446 221.315 225.426 221.331C225.401 221.351 225.375 221.372 225.35 221.393C225.332 221.407 225.315 221.422 225.297 221.437C225.272 221.457 225.247 221.478 225.222 221.498C225.205 221.512 225.189 221.526 225.172 221.54C225.147 221.561 225.123 221.581 225.099 221.601C225.083 221.615 225.067 221.628 225.052 221.641C225.028 221.662 225.004 221.682 224.981 221.701C224.966 221.714 224.951 221.727 224.936 221.74C224.913 221.759 224.891 221.779 224.868 221.798C224.854 221.81 224.84 221.823 224.826 221.835C224.804 221.854 224.782 221.873 224.76 221.892C224.747 221.903 224.734 221.915 224.721 221.926C224.7 221.945 224.679 221.964 224.658 221.982C224.646 221.993 224.634 222.004 224.621 222.015C224.601 222.033 224.581 222.051 224.561 222.069C224.55 222.078 224.54 222.088 224.53 222.097C224.509 222.116 224.488 222.134 224.468 222.152C224.46 222.16 224.452 222.167 224.444 222.175C224.423 222.193 224.402 222.212 224.383 222.23C224.374 222.238 224.365 222.246 224.357 222.254C224.338 222.271 224.32 222.288 224.302 222.305C224.294 222.312 224.286 222.319 224.278 222.327C224.261 222.343 224.244 222.359 224.227 222.374C224.217 222.384 224.207 222.393 224.197 222.402C224.184 222.415 224.17 222.428 224.158 222.44C224.136 222.461 224.114 222.481 224.094 222.5C224.115 222.52 224.137 222.541 224.159 222.562ZM223.123 222.193C223.138 222.177 223.221 222.09 223.365 221.949C223.483 221.833 223.644 221.68 223.843 221.499C223.85 221.493 223.856 221.487 223.863 221.48C223.933 221.417 224.007 221.35 224.086 221.281C224.101 221.267 224.116 221.254 224.132 221.241C225.024 220.456 226.466 219.312 228.296 218.286C228.296 218.286 228.297 218.286 228.297 218.286C228.297 218.286 228.297 218.286 228.297 218.286C231.005 216.769 233.684 216 236.259 216C240.024 216 243.396 217.686 245.562 219.1C246.076 219.436 246.547 219.77 246.969 220.089C248.284 219.049 250.308 217.92 252.892 217.92C253.799 217.92 254.735 218.06 255.676 218.336C255.868 218.393 256 218.568 256 218.766C256 218.965 255.868 219.14 255.675 219.196C252.818 220.033 251.934 221.994 251.749 222.5C251.935 223.009 252.82 224.967 255.675 225.804C255.868 225.861 256 226.036 256 226.234C256 226.433 255.868 226.608 255.675 226.664C254.734 226.94 253.797 227.08 252.892 227.08C250.309 227.08 248.284 225.95 246.969 224.911C246.547 225.23 246.076 225.564 245.562 225.9C243.396 227.314 240.024 229 236.259 229C233.684 229 231.005 228.231 228.296 226.714C225.484 225.138 223.588 223.281 223.196 222.882C223.155 222.84 223.13 222.815 223.122 222.807C222.959 222.634 222.959 222.366 223.123 222.193Z" fill="#5F64C8"/>
<path fill-rule="evenodd" clip-rule="evenodd" d="M229.069 221.013C229.681 221.013 230.177 221.503 230.177 222.108C230.177 222.713 229.681 223.203 229.069 223.203C228.458 223.203 227.962 222.713 227.962 222.108C227.962 221.503 228.458 221.013 229.069 221.013Z" fill="#5F64C8"/>
</g>
<defs>
<filter id="filter0_d" x="122.897" y="195.787" width="83.7886" height="83.7886" filterUnits="userSpaceOnUse" color-interpolation-filters="sRGB">
<feFlood flood-opacity="0" result="BackgroundImageFix"/>
<feColorMatrix in="SourceAlpha" type="matrix" values="0 0 0 0 0 0 0 0 0 0 0 0 0 0 0 0 0 0 127 0"/>
<feOffset dy="4"/>
<feGaussianBlur stdDeviation="2"/>
<feColorMatrix type="matrix" values="0 0 0 0 0.913725 0 0 0 0 0.270588 0 0 0 0 0.231373 0 0 0 0.4 0"/>
<feBlend mode="normal" in2="BackgroundImageFix" result="effect1_dropShadow"/>
<feBlend mode="normal" in="SourceGraphic" in2="effect1_dropShadow" result="shape"/>
</filter>
<filter id="filter1_d" x="38.0858" y="195.787" width="83.7886" height="83.7886" filterUnits="userSpaceOnUse" color-interpolation-filters="sRGB">
<feFlood flood-opacity="0" result="BackgroundImageFix"/>
<feColorMatrix in="SourceAlpha" type="matrix" values="0 0 0 0 0 0 0 0 0 0 0 0 0 0 0 0 0 0 127 0"/>
<feOffset dy="4"/>
<feGaussianBlur stdDeviation="2"/>
<feColorMatrix type="matrix" values="0 0 0 0 0.913725 0 0 0 0 0.270588 0 0 0 0 0.231373 0 0 0 0.4 0"/>
<feBlend mode="normal" in2="BackgroundImageFix" result="effect1_dropShadow"/>
<feBlend mode="normal" in="SourceGraphic" in2="effect1_dropShadow" result="shape"/>
</filter>
<filter id="filter2_d" x="207.708" y="195.787" width="83.7886" height="83.7886" filterUnits="userSpaceOnUse" color-interpolation-filters="sRGB">
<feFlood flood-opacity="0" result="BackgroundImageFix"/>
<feColorMatrix in="SourceAlpha" type="matrix" values="0 0 0 0 0 0 0 0 0 0 0 0 0 0 0 0 0 0 127 0"/>
<feOffset dy="4"/>
<feGaussianBlur stdDeviation="2"/>
<feColorMatrix type="matrix" values="0 0 0 0 0.913725 0 0 0 0 0.270588 0 0 0 0 0.231373 0 0 0 0.4 0"/>
<feBlend mode="normal" in2="BackgroundImageFix" result="effect1_dropShadow"/>
<feBlend mode="normal" in="SourceGraphic" in2="effect1_dropShadow" result="shape"/>
</filter>
<clipPath id="clip0">
<rect width="40" height="16" fill="white" transform="translate(66 213)"/>
</clipPath>
<clipPath id="clip1">
<rect width="40" height="16" fill="white" transform="translate(147 234)"/>
</clipPath>
<clipPath id="clip2">
<rect width="33" height="13" fill="white" transform="matrix(-1 0 0 1 86 238)"/>
</clipPath>
<clipPath id="clip3">
<rect width="33" height="13" fill="white" transform="matrix(-1 0 0 1 256 216)"/>
</clipPath>
</defs>
</svg>
