<svg width="71" height="26" viewBox="0 0 71 26" fill="none" xmlns="http://www.w3.org/2000/svg">
<g clip-path="url(#clip0)">
<path d="M7.13882 6.64953H0V0H22.1345V6.64953H14.9851V26.0002H7.13882V6.64953Z" fill="#EC2227"/>
<path d="M46.6078 0H59.5015C63.7121 0.0710709 66.7013 1.40495 68.4697 4.00141C70.18 6.57417 71.0233 9.56186 70.9993 12.9645C71.0594 21.4891 66.715 25.8342 57.966 26H46.6076V0H46.6078ZM54.4541 19.3507H57.5287C58.7745 19.3507 59.7644 19.119 60.4981 18.6549C61.2434 18.1912 61.8085 17.6324 62.1928 16.9781C62.5651 16.3003 62.8274 15.5925 62.9787 14.8552C63.0952 14.1061 63.1533 13.4403 63.1533 12.8573C63.1533 12.3939 63.1183 11.8172 63.0484 11.127C62.9318 10.4492 62.6583 9.77146 62.2275 9.09347C61.82 8.40374 61.1968 7.81532 60.3585 7.3273C59.5201 6.8756 58.3903 6.64953 56.9696 6.64953H54.4541V19.3507Z" fill="#EC2227"/>
<path d="M45.0923 19.3507H31.4425V16.0945H45.0923V9.90548H31.4425V6.64953H45.0923V0H23.5964V26H45.0923V19.3507Z" fill="#EC2227"/>
</g>
<defs>
<clipPath id="clip0">
<rect width="71" height="26" fill="white"/>
</clipPath>
</defs>
</svg>
